<?xml version="1.0" encoding="UTF-8"?>
<svg version="1.1" xmlns="http://www.w3.org/2000/svg" width="2048" height="2048">
<path d="M0 0 C675.84 0 1351.68 0 2048 0 C2048 675.84 2048 1351.68 2048 2048 C1372.16 2048 696.32 2048 0 2048 C0 1372.16 0 696.32 0 0 Z " fill="#BB7D7E" transform="translate(0,0)"/>
<path d="M0 0 C1.09957031 -0.01417969 2.19914062 -0.02835937 3.33203125 -0.04296875 C6.1875 0.1875 6.1875 0.1875 9.1875 2.1875 C11.05059931 2.39221346 12.91552802 2.5885953 14.78540039 2.7175293 C27.78596037 3.64194349 39.26144244 8.31062326 48.1875 18.1875 C62.07514844 34.43392842 64.01160208 51.50298251 65.25 72.125 C65.84931125 82.6952871 65.84931125 82.6952871 67.1875 93.1875 C71.21124141 87.24976179 71.21124141 87.24976179 74.9375 81.125 C75.35 80.485625 75.7625 79.84625 76.1875 79.1875 C76.8475 79.1875 77.5075 79.1875 78.1875 79.1875 C78.54328125 78.10082031 78.54328125 78.10082031 78.90625 76.9921875 C83.44040494 67.06681176 96.22087458 58.17415017 106.1875 54.1875 C109.25 53.5 109.25 53.5 113.1875 53.1875 C114.09113281 53.11144531 114.99476563 53.03539062 115.92578125 52.95703125 C125.7095957 52.50622037 134.05594063 55.04103629 143.1875 58.1875 C144.18523437 58.52136719 145.18296875 58.85523438 146.2109375 59.19921875 C151.98347043 61.30397306 156.55714347 64.16394422 161.1875 68.1875 C161.868125 68.77402344 162.54875 69.36054687 163.25 69.96484375 C170.30263614 76.49654654 175.27361019 84.40775288 176.66796875 94.01953125 C177.12587358 96.3356357 177.12587358 96.3356357 178.57421875 98.7734375 C180.74991142 103.37768785 181.73200537 108.04106324 182.8125 113 C183.0290625 113.94681641 183.245625 114.89363281 183.46875 115.86914062 C184.59057917 120.90005971 185.42814343 125.83616218 185.92382812 130.96411133 C186.30391556 134.16916341 186.98464849 137.29453304 187.64355469 140.45214844 C188.68948535 145.71184642 189.48098804 151.01546083 190.3125 156.3125 C190.58513672 158.03339844 190.58513672 158.03339844 190.86328125 159.7890625 C191.3064879 162.58826242 191.74785745 165.38773849 192.1875 168.1875 C192.70699219 167.64770508 193.22648437 167.10791016 193.76171875 166.55175781 C200.70483463 159.4514272 200.70483463 159.4514272 205.1875 156.9375 C206.03054688 156.463125 206.87359375 155.98875 207.7421875 155.5 C208.54914063 155.066875 209.35609375 154.63375 210.1875 154.1875 C210.89132812 153.795625 211.59515625 153.40375 212.3203125 153 C221.68089825 148.0076876 230.54666036 147.8493665 241 147.875 C242.30259766 147.85888672 243.60519531 147.84277344 244.94726562 147.82617188 C259.23589744 147.81898805 270.60389813 150.93912364 281.3125 160.6875 C299.00606739 179.41975859 301.89254005 207.29754349 303.23046875 231.74609375 C303.2747167 232.55346922 303.31896465 233.36084469 303.36455345 234.19268608 C304.33665135 252.35501061 304.54272119 270.49403993 304.5047493 288.67910004 C304.49990792 291.29984514 304.49890629 293.92057153 304.49850464 296.5413208 C304.47914702 331.81834322 303.11320613 366.96812459 301.1875 402.1875 C300.42464336 416.23837504 299.9333023 430.27290181 299.63525391 444.34106445 C299.43249096 453.73419733 299.11595011 463.09628498 298.51989746 472.47317505 C298.21238704 477.41272701 298.09841639 482.30407795 298.1875 487.25 C298.48968391 528.38154755 298.48968391 528.38154755 294.6875 541.97509766 C293.98781153 545.07108248 293.86826718 548.12119832 293.6875 551.2890625 C293.6041753 552.67968802 293.52084171 554.070313 293.4375 555.4609375 C293.3113187 557.64446544 293.18661489 559.82807242 293.0625 562.01171875 C292.94107758 564.12522768 292.81447794 566.23838123 292.6875 568.3515625 C292.6153125 569.61436035 292.543125 570.8771582 292.46875 572.17822266 C292.1875 575.1875 292.1875 575.1875 291.1875 577.1875 C290.85876707 580.14609639 290.572695 583.09777817 290.3125 586.0625 C289.40417719 595.76623932 288.05858107 605.36050776 286.53125 614.98388672 C286.22347767 616.95686476 285.93835528 618.93334498 285.65625 620.91015625 C284.77080061 627.10092322 283.50707012 633.0311228 281.90625 639.07421875 C280.86224701 643.5963404 280.33175949 648.15719704 279.8125 652.765625 C279.20308272 656.10218463 278.25390649 658.90474263 277.01269531 662.04003906 C276.1474339 664.29176669 275.40402244 666.55860165 274.6796875 668.859375 C270.69798473 681.41724302 265.87937702 693.31182469 260.1875 705.1875 C259.83510254 705.92935547 259.48270508 706.67121094 259.11962891 707.43554688 C255.55235058 714.90920482 251.80837683 722.1674667 247.2265625 729.08203125 C245.57345151 731.59970029 243.97606723 734.13438325 242.3984375 736.69921875 C230.01854446 756.77477474 214.0506494 776.71112953 195.1875 791.1875 C194.5275 791.1875 193.8675 791.1875 193.1875 791.1875 C193.26266846 792.28360596 193.33783691 793.37971191 193.4152832 794.5090332 C194.97207351 817.27080405 196.43697121 840.03529744 197.75 862.8125 C198.8783816 882.41418547 198.8783816 882.41418547 200.25 902 C200.36589478 903.52089233 200.36589478 903.52089233 200.48413086 905.07250977 C200.80897124 909.30437207 201.13693956 913.53599009 201.46533203 917.76757812 C203.18392197 940.2749997 203.73518252 962.51923914 202.6036377 985.06402588 C202.53561801 986.45770838 202.47427899 987.85173627 202.42028809 989.24603271 C201.907181 1001.89639171 199.00697337 1010.39652238 189.67578125 1019.1015625 C181.5416747 1025.92042105 172.39277215 1030.06886356 162.71484375 1034.1953125 C159.62209324 1035.51485933 156.68329407 1036.98664834 153.72265625 1038.578125 C146.40257213 1042.28233206 138.51019378 1044.43061618 130.6875 1046.8125 C129.13126813 1047.29348762 127.5752767 1047.77525389 126.01953125 1048.2578125 C123.04476202 1049.1791173 120.06744687 1050.09127222 117.08740234 1050.99536133 C114.80832221 1051.68743784 112.54100875 1052.39799183 110.27587891 1053.13549805 C104.09705936 1055.12404834 98.00451953 1056.0318593 91.5625 1056.75 C83.85014987 1057.56928694 83.85014987 1057.56928694 76.2890625 1059.21484375 C64.09836559 1062.43552 50.52465899 1061.42849374 38 1061.4375 C37.02694916 1061.43850708 36.05389832 1061.43951416 35.05136108 1061.44055176 C14.46689019 1061.42617166 -5.47181519 1060.08493319 -25.44042969 1054.79394531 C-28.2551676 1054.07432726 -31.082235 1053.42252469 -33.9140625 1052.7734375 C-50.05688118 1049.05799816 -64.89866437 1044.54604159 -79.8125 1037.1875 C-80.62460937 1036.78789063 -81.43671875 1036.38828125 -82.2734375 1035.9765625 C-95.64197317 1028.98739824 -110.56846005 1015.91905923 -118.8125 1003.1875 C-120.52574651 995.92482459 -120.18001444 988.07890055 -120.41796875 980.640625 C-120.45535156 979.5990625 -120.49273438 978.5575 -120.53125 977.484375 C-120.56154297 976.53916992 -120.59183594 975.59396484 -120.62304688 974.62011719 C-120.72482423 972.0478401 -120.72482423 972.0478401 -121.8125 969.1875 C-122.01758511 967.27978125 -122.17822581 965.36713158 -122.3125 963.453125 C-122.395 962.32132813 -122.4775 961.18953125 -122.5625 960.0234375 C-122.645 958.84007812 -122.7275 957.65671875 -122.8125 956.4375 C-122.9769702 954.1092188 -123.14357756 951.78108741 -123.3125 949.453125 C-123.3846875 948.41961914 -123.456875 947.38611328 -123.53125 946.32128906 C-123.72360394 944.17801204 -123.98845212 942.0403469 -124.31469727 939.91333008 C-124.92105246 935.37503357 -125.11052216 930.88088836 -125.27734375 926.30859375 C-125.35582217 924.39907629 -125.43460746 922.48957141 -125.51367188 920.58007812 C-125.63343231 917.59590393 -125.75049755 914.61168973 -125.86206055 911.62719727 C-125.97192709 908.72896082 -126.09264511 905.83133288 -126.21484375 902.93359375 C-126.24513168 902.04594833 -126.27541962 901.15830292 -126.30662537 900.24375916 C-126.51476663 895.48715535 -127.23125189 891.70839165 -128.8125 887.1875 C-129.07717705 884.73105137 -129.25804396 882.26477189 -129.375 879.796875 C-129.41109375 879.09946198 -129.4471875 878.40204895 -129.484375 877.6835022 C-129.56081678 876.20052757 -129.6338165 874.71737205 -129.70361328 873.23406982 C-129.8867664 869.37112009 -130.09872938 865.50979748 -130.3125 861.6484375 C-130.35383057 860.8972464 -130.39516113 860.1460553 -130.43774414 859.37210083 C-130.77631601 853.40891265 -131.3032585 847.50027892 -132.0690918 841.57836914 C-132.60443347 837.37299134 -132.95601363 833.19001448 -133.20703125 828.95703125 C-133.27728516 827.86793457 -133.34753906 826.77883789 -133.41992188 825.65673828 C-133.55347982 823.51949315 -133.66899105 821.38101921 -133.76367188 819.24169922 C-134.15574809 813.23221969 -134.15574809 813.23221969 -137.16015625 808.10546875 C-139.26003482 806.58699986 -141.07119732 805.32365137 -143.4375 804.3125 C-158.4256753 797.2526492 -175.08012687 785.05080455 -185.5 772 C-187.43056008 769.65202153 -189.19744244 767.93707223 -191.5 766 C-208.40540314 751.5460395 -220.52813037 732.10686819 -231.8125 713.1875 C-232.45687012 712.11193848 -232.45687012 712.11193848 -233.11425781 711.01464844 C-239.3042276 700.64308729 -244.92587581 690.23101143 -249.8125 679.1875 C-250.62440545 677.43722408 -251.43686928 675.68720703 -252.25 673.9375 C-253.11110232 672.02393929 -253.96431509 670.10682128 -254.8125 668.1875 C-255.09706055 667.54425781 -255.38162109 666.90101563 -255.67480469 666.23828125 C-261.43823073 653.12275421 -266.24754262 639.76125004 -270.8125 626.1875 C-271.225 624.97707031 -271.6375 623.76664063 -272.0625 622.51953125 C-272.7040988 620.62230355 -273.33525841 618.72149492 -273.953125 616.81640625 C-274.53936712 615.02303832 -275.15536069 613.23919088 -275.796875 611.46484375 C-282.29306939 592.50095321 -283.46033323 571.61765575 -285.8125 551.79296875 C-285.89498993 551.09924667 -285.97747986 550.4055246 -286.06246948 549.69078064 C-286.14497955 548.99682693 -286.22748962 548.30287323 -286.3125 547.58789062 C-286.395 546.8941333 -286.4775 546.20037598 -286.5625 545.4855957 C-286.73021238 544.06970355 -286.89686618 542.65368564 -287.0625 541.23754883 C-287.95415605 533.62625434 -288.93372149 526.06989492 -290.37060547 518.5378418 C-292.90970051 505.03294238 -293.1590662 491.31555536 -293.47094727 477.62036133 C-293.66582082 469.25625943 -293.66582082 469.25625943 -294.30078125 460.91796875 C-295.13364511 452.61778438 -295.23640001 444.27213609 -295.4375 435.9375 C-295.45962555 435.03854004 -295.4817511 434.13958008 -295.50454712 433.21337891 C-296.03050029 410.92145489 -296.43117534 388.25472783 -292.8125 366.1875 C-292.68504395 365.37168457 -292.55758789 364.55586914 -292.42626953 363.71533203 C-287.43372137 332.40368605 -287.43372137 332.40368605 -276.8125 321.1875 C-275.47832031 319.75470703 -275.47832031 319.75470703 -274.1171875 318.29296875 C-268.19126629 312.08247213 -262.09127363 306.8006127 -254.8125 302.1875 C-253.8225 301.5275 -252.8325 300.8675 -251.8125 300.1875 C-233.97254114 294.53646101 -215.1011479 293.51478864 -197.97167969 302.11132812 C-196.25995123 303.0512123 -194.56707371 304.02517533 -192.875 305 C-188.01024618 307.79555489 -184.43657697 308.94516279 -178.8359375 308.82421875 C-176.02928879 307.94104551 -175.32535759 306.68089681 -173.8125 304.1875 C-173.41838223 301.68466255 -173.41838223 301.68466255 -173.57470703 298.93847656 C-173.60211975 297.87213989 -173.62953247 296.80580322 -173.65777588 295.70715332 C-173.73436432 293.96492493 -173.73436432 293.96492493 -173.8125 292.1875 C-173.86307556 290.97606323 -173.91365112 289.76462646 -173.96575928 288.51647949 C-174.15882317 284.3999822 -174.38395168 280.28623834 -174.6171875 276.171875 C-174.70233118 274.62902197 -174.78721481 273.08615457 -174.87185669 271.54327393 C-175.04977013 268.31242548 -175.22982157 265.08170628 -175.41162109 261.85107422 C-175.63868248 257.81568325 -175.86200177 253.78009771 -176.08385086 249.74441719 C-176.92358972 234.47998272 -177.79910634 219.21922691 -178.78215408 203.96331406 C-179.51506531 192.57723637 -180.09907449 181.2207258 -180.3125 169.8125 C-180.50092111 161.49533464 -180.73378214 153.25042756 -181.875 145 C-185.70241753 116.28729381 -183.28010432 86.64863905 -165.375 62.7109375 C-163.30135531 60.32768614 -161.21459306 58.23438522 -158.8125 56.1875 C-157.81283203 55.31158203 -157.81283203 55.31158203 -156.79296875 54.41796875 C-143.34221984 43.51410721 -126.33612184 42.94704234 -109.71972656 43.85888672 C-103.16286995 44.60002956 -98.18694677 47.426101 -92.8125 51.1875 C-91.81089844 51.83589844 -90.80929687 52.48429687 -89.77734375 53.15234375 C-82.13376945 58.34750529 -76.44517914 64.20440113 -71.8125 72.1875 C-71.70292969 71.06472656 -71.59335937 69.94195313 -71.48046875 68.78515625 C-70.02540864 54.7415502 -70.02540864 54.7415502 -67.59375 48.4921875 C-66.55184174 45.41855815 -65.99438965 42.30947069 -65.375 39.125 C-62.94390928 27.55251203 -57.21863275 17.64494214 -47.3125 10.75 C-40.41402042 6.30578719 -32.75711055 4.56716109 -24.8125 3.0625 C-23.53632812 2.80919922 -23.53632812 2.80919922 -22.234375 2.55078125 C-14.83088162 1.10868975 -7.56469691 0.04486772 0 0 Z M-29.4375 26.0625 C-30.02998535 26.38992188 -30.6224707 26.71734375 -31.23291016 27.0546875 C-34.94552759 29.26306406 -36.91847499 31.32706686 -38.8125 35.1875 C-39.163125 35.87070312 -39.51375 36.55390625 -39.875 37.2578125 C-44.57275186 47.55371866 -46.24052868 57.44440903 -47.07861328 68.66308594 C-47.47882235 73.76646112 -48.31528758 78.26638347 -49.8125 83.1875 C-52.56311564 102.4158603 -50.52823129 122.54344592 -49.54122162 141.83666611 C-49.36560676 145.28784354 -49.19509013 148.73927334 -49.02392578 152.19067383 C-48.68701801 158.96654752 -48.34425148 165.74211121 -47.99926758 172.51757812 C-47.82880315 175.86714834 -47.65926039 179.21676319 -47.49023438 182.56640625 C-47.11422296 190.01428263 -46.73685431 197.46208738 -46.34968567 204.90939331 C-46.27833447 206.28405601 -46.20759938 207.65875084 -46.13749695 209.03347778 C-45.9596505 212.49454598 -45.76750704 215.95393353 -45.55151367 219.4128418 C-44.96823895 229.04443451 -44.69585545 238.66010061 -44.56640625 248.30859375 C-44.54132996 250.17347694 -44.54132996 250.17347694 -44.51574707 252.07603455 C-44.44954329 257.23252049 -44.38739155 262.38900107 -44.33569336 267.5456543 C-44.29576648 271.36261628 -44.24434265 275.17929297 -44.19140625 278.99609375 C-44.17878502 280.71680336 -44.17878502 280.71680336 -44.16590881 282.47227478 C-44.06718188 288.991807 -43.4568431 295.16829361 -42.28233337 301.58192444 C-40.32621455 312.43005844 -40.53449756 323.73824841 -40.20703125 334.7265625 C-40.02512932 340.38433981 -39.77610455 346.01401089 -39.3125 351.65625 C-38.63925486 359.88480177 -38.44325884 368.12062629 -38.20703125 376.37109375 C-37.9898212 383.38922535 -37.60660594 390.36320165 -37.03515625 397.36132812 C-36.77696996 400.63848219 -36.61281159 403.90047626 -36.5625 407.1875 C-36.52382813 408.734375 -36.52382813 408.734375 -36.484375 410.3125 C-36.86213007 413.62235394 -37.99719582 415.43588103 -39.8125 418.1875 C-39.8125 418.8475 -39.8125 419.5075 -39.8125 420.1875 C-44.5601642 422.15604369 -47.82363019 422.54810086 -52.8125 421.1875 C-55.6875 418.6875 -55.6875 418.6875 -57.8125 416.1875 C-58.1425 415.8575 -58.4725 415.5275 -58.8125 415.1875 C-58.95853636 413.44108583 -59.03986976 411.6891809 -59.09375 409.9375 C-59.14982422 408.31134766 -59.14982422 408.31134766 -59.20703125 406.65234375 C-59.24183594 405.50894531 -59.27664063 404.36554688 -59.3125 403.1875 C-59.38224535 400.95823186 -59.45511018 398.7290589 -59.53125 396.5 C-59.56154297 395.50613281 -59.59183594 394.51226563 -59.62304688 393.48828125 C-59.768588 390.95256471 -59.9909511 388.48211809 -60.28515625 385.96289062 C-60.8819423 380.80747967 -61.21771628 375.64811548 -61.53125 370.46875 C-61.62545227 368.94538025 -61.62545227 368.94538025 -61.72155762 367.39123535 C-61.85373353 365.24315088 -61.98477578 363.09499639 -62.11474609 360.94677734 C-62.30858373 357.75204598 -62.50753704 354.55766373 -62.70703125 351.36328125 C-63.98238983 330.68919996 -64.83638224 310.04384388 -65.05859375 289.33203125 C-65.07125463 288.15739382 -65.07125463 288.15739382 -65.0841713 286.95902634 C-65.16129904 279.6694572 -65.2316601 272.37983797 -65.28930664 265.09008789 C-65.42997366 247.7330597 -65.64983046 230.53669623 -67.58877563 213.26681519 C-67.8985222 210.38800161 -68.10874716 207.50574236 -68.3046875 204.6171875 C-70.04601577 179.21480689 -72.69004179 153.99593867 -77.25 128.9375 C-77.3891684 128.15838257 -77.52833679 127.37926514 -77.67172241 126.57653809 C-81.15330725 107.27713289 -85.64138724 86.11131607 -101.4453125 73.00390625 C-111.22964631 66.65558522 -122.50826878 66.4811575 -133.8125 68.1875 C-141.13757027 70.50111968 -146.12225778 75.55607965 -149.8125 82.1875 C-151.22283965 85.24389067 -152.51519158 88.31575966 -153.734375 91.453125 C-154.8125 94.1875 -154.8125 94.1875 -155.91796875 96.31640625 C-157.26958791 99.14359217 -157.40505746 102.10257788 -157.8125 105.1875 C-158.1425 105.5175 -158.4725 105.8475 -158.8125 106.1875 C-159.05841596 109.17188757 -159.23899118 112.13503558 -159.375 115.125 C-159.43977539 116.32286133 -159.43977539 116.32286133 -159.50585938 117.54492188 C-159.64513843 120.42556655 -159.73510838 123.30449944 -159.8125 126.1875 C-159.86821167 128.08375122 -159.86821167 128.08375122 -159.92504883 130.01831055 C-160.16236674 142.04311795 -159.01368935 153.83060019 -157.7322998 165.77615356 C-155.50083848 186.6908622 -154.02928823 207.42573225 -153.93847656 228.45922852 C-153.93213555 231.2821481 -153.93213555 231.2821481 -152.8125 234.1875 C-152.64947619 236.1227751 -152.53819811 238.06256939 -152.45532227 240.00292969 C-152.40179092 241.20399353 -152.34825958 242.40505737 -152.29310608 243.64251709 C-152.21182716 245.60611176 -152.21182716 245.60611176 -152.12890625 247.609375 C-152.06833214 248.98815939 -152.00728266 250.36692297 -151.94578552 251.7456665 C-151.75069827 256.14274077 -151.56268412 260.54010458 -151.375 264.9375 C-151.13057446 270.6408163 -150.88232975 276.34395125 -150.62890625 282.046875 C-150.59756718 282.75638494 -150.5662281 283.46589489 -150.53393936 284.19690514 C-150.06546077 294.7151672 -149.4548865 305.21800456 -148.74609375 315.72265625 C-148.02383716 326.44571695 -147.50319984 337.1306922 -147.3125 347.875 C-147.09662894 357.98170348 -146.64561097 367.98940984 -145.75 378.0625 C-144.54486255 392.25356397 -144.62030816 406.45535865 -144.625 420.6875 C-144.62418427 421.85746521 -144.62336853 423.02743042 -144.62252808 424.23284912 C-144.62279591 427.62404281 -144.63170466 431.0150824 -144.64453125 434.40625 C-144.64572968 435.41475006 -144.6469281 436.42325012 -144.64816284 437.46231079 C-144.68693958 443.44342079 -145.04747766 449.32622832 -145.58683777 455.28186035 C-145.93236779 459.73092443 -145.94783491 464.16473163 -145.953125 468.625 C-145.97141689 470.52735607 -145.99098369 472.42970024 -146.01171875 474.33203125 C-146.04087075 477.27934746 -146.06250627 480.22586894 -146.06298828 483.17333984 C-146.06631055 486.05374786 -146.10072512 488.93239706 -146.140625 491.8125 C-146.1335553 492.69478271 -146.1264856 493.57706543 -146.11920166 494.48608398 C-146.24113789 500.59097488 -146.24113789 500.59097488 -149.22949219 503.7109375 C-154.05780593 506.47101704 -157.38897371 506.62540999 -162.8125 505.1875 C-166.36660477 501.72224785 -167.76727708 499.32445466 -167.96398926 494.37889099 C-167.98168038 492.69461528 -167.99388093 491.01027701 -168.00195312 489.32592773 C-168.01439308 487.9473056 -168.01439308 487.9473056 -168.02708435 486.54083252 C-168.0445179 484.5377877 -168.05967559 482.53472211 -168.07286072 480.53164482 C-168.09390994 477.3468947 -168.12094217 474.16224506 -168.14953613 470.97755432 C-168.20931621 464.19340892 -168.26125898 457.40921446 -168.3125 450.625 C-168.37202166 442.81135388 -168.43483873 434.99775452 -168.50437927 427.18419075 C-168.5305994 424.07328422 -168.55164189 420.96237229 -168.5723877 417.85142517 C-168.69597312 402.17057454 -168.87437099 386.65343655 -172.125 371.25 C-172.42567383 369.7021582 -172.42567383 369.7021582 -172.73242188 368.12304688 C-176.00100046 352.12421488 -182.99892347 340.44305484 -195.8125 330.1875 C-196.62074219 329.48173828 -196.62074219 329.48173828 -197.4453125 328.76171875 C-207.29206367 320.77051114 -219.57980033 319.20943505 -231.8125 320.1875 C-232.7303125 320.24808594 -233.648125 320.30867188 -234.59375 320.37109375 C-244.64893392 321.65981194 -253.05902319 329.35776429 -259.26171875 336.96484375 C-264.23997744 343.69865966 -266.48333068 351.26123938 -268.8125 359.1875 C-269.03808594 359.91839844 -269.26367188 360.64929688 -269.49609375 361.40234375 C-271.09571359 367.06921403 -271.6336709 372.96697812 -272.34765625 378.796875 C-272.8125 382.1875 -272.8125 382.1875 -273.33325195 383.97583008 C-273.98787008 386.99681103 -273.94241784 389.87479851 -273.9453125 392.96484375 C-273.94660156 394.28291016 -273.94789063 395.60097656 -273.94921875 396.95898438 C-273.94712402 397.64307373 -273.9450293 398.32716309 -273.94287109 399.03198242 C-273.93752696 401.11449499 -273.94282239 403.19679105 -273.94921875 405.27929688 C-273.94792969 406.59865234 -273.94664062 407.91800781 -273.9453125 409.27734375 C-273.94418457 410.48253662 -273.94305664 411.68772949 -273.94189453 412.92944336 C-273.8266664 415.83080082 -273.39701645 418.35694323 -272.8125 421.1875 C-272.69077988 423.25194863 -272.61246143 425.31919781 -272.56640625 427.38671875 C-272.5190332 429.18592773 -272.5190332 429.18592773 -272.47070312 431.02148438 C-272.43912109 432.29314453 -272.40753906 433.56480469 -272.375 434.875 C-272.11910063 443.71870889 -271.71687468 452.41874326 -270.54541016 461.18652344 C-269.46173239 469.92507323 -269.36986737 478.73490039 -269.15429688 487.52929688 C-269.12271484 488.73521484 -269.09113281 489.94113281 -269.05859375 491.18359375 C-269.03466553 492.26825928 -269.0107373 493.3529248 -268.98608398 494.47045898 C-268.92238961 497.28299623 -268.92238961 497.28299623 -267.8125 500.1875 C-267.61903343 502.04848107 -267.47011433 503.91425137 -267.34765625 505.78125 C-267.26966797 506.895 -267.19167969 508.00875 -267.11132812 509.15625 C-266.95587549 511.47904645 -266.80218009 513.80196129 -266.65039062 516.125 C-266.20418963 522.45162219 -265.46780855 528.56107567 -264.24731445 534.78417969 C-263.49992899 538.91515244 -263.41331932 543.05630889 -263.25390625 547.2421875 C-262.87650675 550.61540429 -262.26560484 553.63900908 -261.46484375 556.92578125 C-260.14782518 562.42221748 -259.15793457 567.90495805 -258.3125 573.48828125 C-258.18894638 574.30176025 -258.06539276 575.11523926 -257.93809509 575.95336914 C-257.43074142 579.32212334 -256.93074788 582.69189583 -256.4375 586.06274414 C-256.07005936 588.559953 -255.69186339 591.05535984 -255.3125 593.55078125 C-255.20615234 594.29991287 -255.09980469 595.04904449 -254.99023438 595.82087708 C-254.20452791 600.94099956 -252.73723917 605.37695258 -250.8125 610.1875 C-250.43533121 611.65610098 -250.09140313 613.1346114 -249.8125 614.625 C-248.30177494 621.85666748 -245.69572086 628.62247704 -242.9140625 635.44921875 C-241.26533492 639.5476515 -239.71483844 643.68298759 -238.15625 647.81640625 C-227.8722067 673.61620091 -214.6317873 698.37626251 -198.8125 721.1875 C-198.17183594 722.1775 -197.53117188 723.1675 -196.87109375 724.1875 C-194.58059254 727.52546002 -192.07851693 730.5631492 -189.4375 733.625 C-188.70406372 734.48085693 -188.70406372 734.48085693 -187.95581055 735.35400391 C-186.99709014 736.47269712 -186.03741419 737.59057234 -185.07666016 738.70751953 C-184.05207988 739.9070185 -183.0448002 741.12128055 -182.04296875 742.33984375 C-179.07595901 745.94439277 -175.88355001 748.91653946 -172.31640625 751.921875 C-170.29316301 753.75257872 -168.41148487 755.60992302 -166.52734375 757.578125 C-145.47037003 779.53511453 -118.56401655 792.26074822 -90.64550781 803.44873047 C-89.02704372 804.101031 -87.41530569 804.76996672 -85.8046875 805.44140625 C-82.05140681 806.99666476 -78.47439075 808.326382 -74.5 809.1875 C-70.6439313 810.23321354 -68.65643605 811.42974383 -65.8125 814.1875 C-65.4825 814.8475 -65.1525 815.5075 -64.8125 816.1875 C-64.1525 816.1875 -63.4925 816.1875 -62.8125 816.1875 C-63.06639158 822.01431177 -63.42366013 825.93165528 -67.8125 830.1875 C-73.09530435 832.82890218 -80.06931288 831.66025965 -85.54296875 830.17578125 C-90.04237045 828.59696063 -94.36049283 827.06385935 -98.453125 824.59375 C-100.73257539 823.23513718 -102.55186026 822.56696299 -105.125 822 C-106.341875 821.731875 -107.55875 821.46375 -108.8125 821.1875 C-109.0532874 828.51813877 -108.73984163 835.61714635 -107.93359375 842.89453125 C-107.05437296 851.2518052 -106.37307514 859.6140448 -105.77734375 867.99609375 C-105.69262817 869.18794281 -105.6079126 870.37979187 -105.52062988 871.60775757 C-105.17272709 876.5417381 -104.8298071 881.47605938 -104.48706055 886.41040039 C-104.23225781 890.06415314 -103.97367748 893.71762471 -103.71484375 897.37109375 C-103.63878403 898.4856041 -103.5627243 899.60011444 -103.48435974 900.74839783 C-103.41080765 901.7846077 -103.33725555 902.82081757 -103.26147461 903.88842773 C-103.16726479 905.24689064 -103.16726479 905.24689064 -103.07115173 906.63279724 C-102.81100065 909.20230911 -102.3355382 911.66008487 -101.8125 914.1875 C-101.55434181 916.72655553 -101.32519953 919.25705306 -101.12890625 921.80078125 C-101.06979065 922.5510257 -101.01067505 923.30127014 -100.94976807 924.07424927 C-100.82278828 925.69887282 -100.69730309 927.32361375 -100.57315063 928.94845581 C-100.37228726 931.53493136 -100.15773196 934.12003673 -99.94213867 936.70532227 C-99.20453767 945.85311173 -98.72830488 954.92260316 -98.734375 964.1015625 C-99.5426605 984.06646707 -99.5426605 984.06646707 -91.34643555 1001.39282227 C-88.04631671 1004.42275157 -84.65393003 1006.8930025 -80.8125 1009.1875 C-79.79422119 1009.84903076 -79.79422119 1009.84903076 -78.75537109 1010.52392578 C-65.65540223 1019.0029827 -50.15242671 1025.37334078 -34.8125 1028.1875 C-32.97857049 1028.53856651 -31.14523913 1028.89277119 -29.3125 1029.25 C-28.05953125 1029.48396484 -28.05953125 1029.48396484 -26.78125 1029.72265625 C-24.8125 1030.1875 -24.8125 1030.1875 -23.8125 1031.1875 C-21.84019832 1031.55930356 -19.85919048 1031.88550668 -17.875 1032.1875 C-12.0286235 1033.07943825 -12.0286235 1033.07943825 -9.8125 1034.1875 C-7.67180165 1034.55235937 -5.52479151 1034.8807293 -3.375 1035.1875 C-0.03133484 1035.66570016 2.98185864 1036.11895288 6.1875 1037.1875 C16.7354235 1038.73996056 27.56680981 1038.37364225 38.19677734 1038.37280273 C41.31231137 1038.37499987 44.42749656 1038.39324109 47.54296875 1038.41210938 C49.55208214 1038.41504243 51.56119719 1038.41702781 53.5703125 1038.41796875 C54.48724884 1038.42515427 55.40418518 1038.43233978 56.34890747 1038.43974304 C62.51084262 1038.41823572 68.19491511 1037.60071132 74.1875 1036.1875 C75.71310547 1035.83558594 75.71310547 1035.83558594 77.26953125 1035.4765625 C78.17058594 1035.25742188 79.07164062 1035.03828125 80 1034.8125 C83.99183572 1033.86965749 87.98121963 1033.0286791 92.01953125 1032.31640625 C103.37904977 1030.3067189 114.14011448 1027.57956798 125.06738281 1023.88818359 C129.18483507 1022.52739502 133.35775145 1021.34807379 137.5234375 1020.14453125 C140.34768308 1019.12995623 142.65030908 1017.77797789 145.1875 1016.1875 C146.88764957 1015.44969924 148.58858345 1014.7132984 150.30078125 1014.00390625 C153.00228517 1012.8349325 155.60384976 1011.48660674 158.22265625 1010.14453125 C160.1875 1009.1875 160.1875 1009.1875 163.625 1007.875 C170.25968533 1004.73225432 175.70994599 1001.19323548 178.56607056 994.2265625 C179.67777214 990.57879681 179.59378501 986.98101996 179.55078125 983.1953125 C179.55268463 981.91326431 179.55268463 981.91326431 179.55462646 980.60531616 C179.55293727 977.84070553 179.5277294 975.07696287 179.5 972.3125 C179.49067775 970.39778707 179.48148245 968.48307352 179.47241211 966.56835938 C179.38493344 954.62628193 178.84906621 942.81097181 177.69140625 930.921875 C176.99534578 923.63029421 176.79215963 916.32226429 176.61743164 909.00195312 C176.42799343 902.50631553 175.9099961 896.09011619 175.25390625 889.62890625 C173.94120909 876.56907517 173.29619938 863.48067776 172.625 850.375 C172.43618754 846.76574921 172.24611395 843.15656657 172.05581665 839.5473938 C171.93420085 837.24018956 171.81307394 834.93295949 171.69247437 832.6257019 C171.24663731 824.14240263 170.74793715 815.66401021 170.1875 807.1875 C165.95894702 807.98263954 162.06594437 809.20507953 158 810.625 C147.36309175 814.23108037 137.40648734 815.68393376 126.1875 816.1875 C125.52395508 816.22149902 124.86041016 816.25549805 124.17675781 816.29052734 C122.15950244 816.38546268 120.1437715 816.44770667 118.125 816.5 C116.31322266 816.55607422 116.31322266 816.55607422 114.46484375 816.61328125 C110.52508989 816.10144195 108.98262804 814.95273362 106.1875 812.1875 C103.52210969 808.18941454 103.34600296 804.88998347 104.1875 800.1875 C106.625 797.1875 106.625 797.1875 109.1875 795.1875 C109.5175 794.8575 109.8475 794.5275 110.1875 794.1875 C111.6681433 794.05410702 113.15459701 793.98405703 114.640625 793.94140625 C116.02495728 793.89463745 116.02495728 793.89463745 117.43725586 793.84692383 C118.42733643 793.81493896 119.41741699 793.7829541 120.4375 793.75 C139.06434936 792.97891496 160.03971324 789.7912842 174.48046875 776.640625 C177.71714716 773.88537473 181.30072092 771.56430797 184.796875 769.15234375 C187.19861486 767.17836475 187.85964928 765.89383981 189.1875 763.1875 C189.77144531 762.89746094 190.35539062 762.60742188 190.95703125 762.30859375 C194.26278385 760.64703334 196.43677817 757.96433524 198.875 755.25 C199.40319336 754.66734375 199.93138672 754.0846875 200.47558594 753.484375 C207.84229416 745.30211469 214.44880208 737.13053601 220.08203125 727.640625 C221.93846514 724.53855514 223.95296254 721.56737531 226.00366211 718.59130859 C230.92654551 711.43058397 234.80989188 704.22130607 238.1875 696.1875 C238.91276909 694.51913357 239.64151241 692.85226958 240.375 691.1875 C240.65730469 690.5275 240.93960938 689.8675 241.23046875 689.1875 C242.1875 687.1875 242.1875 687.1875 243.6171875 684.90625 C245.50987684 681.62935503 246.82982479 678.22934694 248.125 674.6875 C248.38514893 673.98117432 248.64529785 673.27484863 248.91333008 672.54711914 C252.60942479 662.40028232 255.52590214 652.32067421 257.4765625 641.6953125 C258.1875 638.1875 258.1875 638.1875 259.20703125 634.7734375 C260.31031531 630.73831891 260.82309114 626.83779653 261.25 622.6875 C262.8960005 607.4789995 262.8960005 607.4789995 264.1875 606.1875 C264.54905983 603.62486872 264.85482959 601.07658888 265.125 598.50390625 C265.20999756 597.73320297 265.29499512 596.96249969 265.38256836 596.16844177 C265.65502738 593.6960607 265.92184629 591.22312097 266.1875 588.75 C266.45333468 586.28047256 266.72047405 583.81113096 266.99243164 581.3422699 C267.16192642 579.80349229 267.32787678 578.26431945 267.48999023 576.7247467 C268.07484925 571.4128015 268.07484925 571.4128015 269.1875 569.1875 C269.32948035 567.28814685 269.41366345 565.38432438 269.46875 563.48046875 C269.52482422 561.7644043 269.52482422 561.7644043 269.58203125 560.01367188 C269.61683594 558.81291016 269.65164063 557.61214844 269.6875 556.375 C269.75659635 554.01420801 269.82937634 551.65352029 269.90625 549.29296875 C269.95168945 547.71745239 269.95168945 547.71745239 269.99804688 546.11010742 C270.17533561 543.37515459 270.61391844 540.86216012 271.1875 538.1875 C271.4821112 534.61533916 271.69242093 531.04266232 271.90625 527.46484375 C272.1875 524.1875 272.1875 524.1875 272.70336914 522.30029297 C273.27032631 519.82603811 273.26581242 517.6440741 273.21484375 515.10546875 C273.20106689 514.05512451 273.18729004 513.00478027 273.1730957 511.92260742 C273.15722412 510.75189697 273.14135254 509.58118652 273.125 508.375 C273.01257621 489.32944352 273.95762213 470.33596235 274.85351562 451.31591797 C275.12764984 445.49241532 275.3938624 439.66858708 275.65739155 433.84459782 C275.98562084 426.5914771 276.31790379 419.3385458 276.65142441 412.08566666 C276.74931882 409.95234424 276.84659332 407.81899428 276.9437561 405.68563843 C277.12738912 401.66007042 277.31543358 397.63471933 277.50390625 393.609375 C277.55802673 392.41538589 277.61214722 391.22139679 277.66790771 389.9912262 C277.95522738 383.9308166 278.3762169 377.91009287 278.95405579 371.8710022 C280.86847089 349.86430068 280.3753066 327.56579273 280.37280273 305.49487305 C280.37272186 301.76793525 280.37962162 298.0411214 280.39331055 294.31420898 C280.4852818 268.86734784 279.806205 243.58287062 278.1875 218.1875 C277.97972821 214.75852379 277.77206161 211.32954131 277.56465149 207.90054321 C276.78662347 196.5141291 274.85808642 185.17304409 267.1875 176.1875 C256.9751751 167.58550178 247.21971977 168.28670923 234.1875 169.1875 C220.36116978 171.96138953 209.33783426 183.02516048 201.0859375 193.9765625 C199.62740207 196.33265819 198.40411824 198.69940448 197.1875 201.1875 C196.82887375 201.91870056 196.4702475 202.64990112 196.10075378 203.40325928 C193.0746724 210.20794749 192.60019631 216.19101669 192.61328125 223.578125 C192.59947922 224.7495253 192.58567719 225.9209256 192.57145691 227.12782288 C192.5303766 230.89777886 192.5153332 234.66736039 192.5 238.4375 C192.47490919 241.02110034 192.4475608 243.60467972 192.41796875 246.18823242 C192.36052256 251.24247788 192.30988511 256.29671017 192.26416016 261.35107422 C192.17984769 269.7382127 191.97407372 278.11758384 191.6875 286.5 C191.65180908 287.67530273 191.61611816 288.85060547 191.5793457 290.06152344 C191.54284912 291.10985352 191.50635254 292.15818359 191.46875 293.23828125 C191.43845703 294.11137939 191.40816406 294.98447754 191.37695312 295.8840332 C191.1875 298.1875 191.1875 298.1875 190.68849182 299.98265076 C190.08908332 302.62062871 190.02489343 305.06281217 189.98217773 307.76855469 C189.96223251 308.89203308 189.94228729 310.01551147 189.92173767 311.17303467 C189.90502518 312.38952698 189.88831268 313.60601929 189.87109375 314.859375 C189.8399221 316.76314911 189.8399221 316.76314911 189.80812073 318.7053833 C189.76482377 321.40546948 189.72327866 324.10551173 189.68481445 326.80566406 C189.62710049 330.85231937 189.56085508 334.89879533 189.49414062 338.9453125 C189.14745115 360.70288093 188.93049504 382.43757911 189.6875 404.1875 C189.73603424 405.66795708 189.78421086 407.14842594 189.83203125 408.62890625 C189.94645788 412.148581 190.06551414 415.66807808 190.1875 419.1875 C177.26080406 421.06289505 177.26080406 421.06289505 172.375 419 C169.15040793 416.32819514 167.42559855 413.65718176 166.75080872 409.49198914 C166.72194077 408.5209877 166.69307281 407.54998627 166.66333008 406.54956055 C166.62351517 405.44037766 166.58370026 404.33119476 166.54267883 403.18840027 C166.50028328 401.39938042 166.50028328 401.39938042 166.45703125 399.57421875 C166.39681038 397.71069511 166.39681038 397.71069511 166.33537292 395.80952454 C166.23146671 392.50320481 166.14006443 389.19700707 166.05438232 385.89019775 C165.96510801 382.58203846 165.85727499 379.27447816 165.75195312 375.96679688 C165.20139465 358.14837875 164.97152097 340.48486124 165.98513794 322.68469238 C167.22738895 300.50469766 167.57432292 278.32194876 167.82209015 256.1133461 C167.8452049 254.06934349 167.86984094 252.02536429 167.89486694 249.98138428 C167.92476513 247.47381888 167.95105302 244.96620639 167.97280884 242.45855713 C168.05704768 235.34109395 168.40102218 228.28476896 168.96099854 221.18852234 C169.2491796 217.37027855 169.37904649 213.57798093 169.375 209.75 C169.37491943 208.95835449 169.37483887 208.16670898 169.37475586 207.35107422 C169.25646256 193.58671468 168.31236501 179.8278448 167.55418396 166.08734131 C167.24925225 160.50319782 167.00203336 154.91889816 166.79174805 149.33032227 C165.9563664 127.65148373 162.47336285 101.03205532 147.48046875 84.12109375 C138.33410266 76.40822967 124.64995921 75.22194989 113.1875 76.1875 C106.09567951 78.00703972 100.71028435 82.58178316 95.1875 87.1875 C94.59195312 87.62578125 93.99640625 88.0640625 93.3828125 88.515625 C82.50946011 96.83348904 75.88249651 110.20667126 73.82617188 123.52832031 C73.30662374 127.62425479 72.92545409 131.72584629 72.58203125 135.83984375 C72.30719446 139.11770738 71.86518483 142.27711716 71.1875 145.5 C68.11220855 161.70629777 68.08087935 177.99131335 68.20645142 194.41638184 C68.43815995 227.30357401 68.43815995 227.30357401 65.67900085 239.42060852 C65.11509449 242.59510499 65.04531015 245.58422367 65.02636719 248.80908203 C65.02140228 249.455849 65.01643738 250.10261597 65.01132202 250.76898193 C64.99672651 252.91110329 64.98988715 255.05314951 64.984375 257.1953125 C64.98154762 257.94138638 64.97872025 258.68746025 64.97580719 259.45614243 C64.96079235 263.43870136 64.9515892 267.42122416 64.94726562 271.40380859 C64.94295891 274.62267893 64.92938401 277.84126932 64.90625 281.06005859 C64.7807006 298.87351931 65.16859346 316.43881416 66.87766075 334.17627716 C68.28097765 348.80967437 68.74611014 363.34572759 68.7434082 378.04248047 C68.74309355 381.47533042 68.78527904 384.90645114 68.83572483 388.33888054 C68.87689033 391.68168082 68.87533291 395.02413709 68.87890625 398.3671875 C68.9004628 399.58775848 68.92201935 400.80832947 68.94422913 402.06588745 C68.87779698 410.18423641 68.87779698 410.18423641 66.89646912 413.06385803 C62.92647777 416.51290495 59.56838614 416.98907375 54.53125 416.75390625 C50.50559795 415.78104034 49.32581696 413.63639832 47.1875 410.1875 C45.97715271 407.76680541 46.03722841 406.17807169 45.99804688 403.47265625 C45.98132935 402.48982666 45.96461182 401.50699707 45.9473877 400.49438477 C45.93381226 399.42373779 45.92023682 398.35309082 45.90625 397.25 C45.88784058 396.14132568 45.86943115 395.03265137 45.85046387 393.89038086 C45.79159181 390.32280921 45.73897551 386.75518551 45.6875 383.1875 C45.44457654 364.46153058 45.44457654 364.46153058 44.71875 345.75 C44.68140747 345.0288501 44.64406494 344.3077002 44.60559082 343.56469727 C44.45597871 341.05789054 44.30647483 338.64767466 43.67633915 336.21041566 C42.8502558 332.79191501 43.05823758 329.2951521 43.07397461 325.79704285 C43.07382575 324.94257909 43.07367689 324.08811533 43.07352352 323.20775872 C43.07421899 320.33924584 43.08206606 317.4707967 43.08984375 314.60229492 C43.09176268 312.54725175 43.0932266 310.49220811 43.0942688 308.43716431 C43.09743316 304.0070071 43.10370728 299.57686888 43.11233521 295.14671898 C43.12585481 288.13144956 43.13175195 281.11618647 43.13647461 274.10090637 C43.14852751 257.9279744 43.17051639 241.75505876 43.19270325 225.58213806 C43.21291379 210.78879365 43.23098861 195.99545497 43.24091816 181.20209962 C43.24587985 174.23996787 43.25571003 167.27786563 43.26934814 160.31574571 C43.2768548 155.96437979 43.28013292 151.61301781 43.2823143 147.26164627 C43.28417262 145.25708208 43.28774574 143.25251855 43.29324722 141.24796104 C43.31997584 131.18390777 43.20393321 121.20173253 42.41821861 111.16528225 C42.13152432 107.46504681 42.03072861 103.79656477 41.9765625 100.0859375 C41.95080788 98.68862482 41.92424685 97.29132682 41.89697266 95.89404297 C41.88369934 95.18713318 41.87042603 94.48022339 41.85675049 93.75189209 C41.60857849 81.47302612 41.04756398 69.28471851 39.8125 57.0625 C39.6985791 55.89122559 39.5846582 54.71995117 39.46728516 53.51318359 C38.33543209 41.87992234 38.33543209 41.87992234 32.5 32.125 C26.44042402 27.47280941 19.09355013 24.3748345 12.1875 21.1875 C11.35476563 20.78660156 10.52203125 20.38570313 9.6640625 19.97265625 C-2.90474281 15.98790882 -18.33092935 19.89505958 -29.4375 26.0625 Z " fill="#970202" transform="translate(1013.8125,444.8125)"/>
<path d="M0 0 C5.61925626 0.40137545 8.08656763 2.17974459 12 6 C12 6.66 12 7.32 12 8 C12.66 8 13.32 8 14 8 C14.76140684 15.61406844 14.76140684 15.61406844 12.95703125 18.8984375 C11.17646218 21.03929768 9.50485776 22.74757112 7 24 C4.95944995 24.07065617 2.91665743 24.08421976 0.875 24.0625 C-0.22070312 24.05347656 -1.31640625 24.04445313 -2.4453125 24.03515625 C-3.70988281 24.01775391 -3.70988281 24.01775391 -5 24 C-5 23.67 -5 23.34 -5 23 C-4.33613281 22.97421875 -3.67226563 22.9484375 -2.98828125 22.921875 C1.05416857 22.66221399 4.34450888 22.29430213 8.0625 20.625 C11.1096668 16.49658046 10.90491738 12.01344719 11 7 C10.38253906 6.7009375 9.76507812 6.401875 9.12890625 6.09375 C6.87011612 4.93327067 5.00522268 3.55243046 3 2 C2.01 1.34 1.02 0.68 0 0 Z " fill="#A52F30" transform="translate(937,1253)"/>
<path d="M0 0 C2.97 0.495 2.97 0.495 6 1 C6 1.66 6 2.32 6 3 C6.61875 3.2475 7.2375 3.495 7.875 3.75 C10.44122735 5.2595455 10.9284097 6.25770301 12 9 C12.25057706 13.66908582 11.55406956 17.17729066 8.9375 21.0625 C8.298125 21.701875 7.65875 22.34125 7 23 C6.34 22.67 5.68 22.34 5 22 C5.639375 21.360625 6.27875 20.72125 6.9375 20.0625 C9.61912635 16.08069118 9.79498004 12.705208 10 8 C9.34 8 8.68 8 8 8 C6.65576661 6.34211215 5.32381517 4.67423683 4 3 C1.87396815 1.23676495 1.87396815 1.23676495 0 0 Z " fill="#B05656" transform="translate(941,1253)"/>
<path d="M0 0 C4.34607612 0.31043401 7.55025689 1.33134591 10.875 4.2578125 C13.14451025 7.77240129 12.42006641 11.99381105 12 16 C11.67 16 11.34 16 11 16 C11 13.03 11 10.06 11 7 C9.68 6.34 8.36 5.68 7 5 C5.65210653 4.01971384 4.31787285 3.02028865 3 2 C2.01 1.34 1.02 0.68 0 0 Z " fill="#A12323" transform="translate(937,1253)"/>
<path d="M0 0 C1.61648438 0.04060547 1.61648438 0.04060547 3.265625 0.08203125 C4.08546875 0.11683594 4.9053125 0.15164063 5.75 0.1875 C5.75 0.5175 5.75 0.8475 5.75 1.1875 C4.64591797 1.20876953 4.64591797 1.20876953 3.51953125 1.23046875 C-2.93004111 1.4584922 -2.93004111 1.4584922 -8.3125 4.75 C-9.2715625 5.9565625 -9.2715625 5.9565625 -10.25 7.1875 C-10.91 7.1875 -11.57 7.1875 -12.25 7.1875 C-9.73903637 1.1193379 -6.39239195 -0.20844756 0 0 Z " fill="#A01E1E" transform="translate(1130.25,1237.8125)"/>
</svg>
