<?xml version="1.0" encoding="UTF-8"?>
<svg version="1.1" xmlns="http://www.w3.org/2000/svg" width="2048" height="2048">
<path d="M0 0 C675.84 0 1351.68 0 2048 0 C2048 675.84 2048 1351.68 2048 2048 C1372.16 2048 696.32 2048 0 2048 C0 1372.16 0 696.32 0 0 Z " fill="#DC9C9C" transform="translate(0,0)"/>
<path d="M0 0 C1.1034375 -0.01417969 2.206875 -0.02835937 3.34375 -0.04296875 C6.53895357 0.19034438 8.56343137 0.98927107 11.5 2.1875 C13.80781653 2.45981685 16.12147962 2.68467602 18.4375 2.875 C31.31154458 4.29625378 42.16907862 10.78128854 50.546875 20.58203125 C62.54592467 35.98682622 63.92935766 51.31881506 65.5 70.1875 C65.70533232 72.47411153 65.91231883 74.76057522 66.12109375 77.046875 C66.60658809 82.42506434 67.06505815 87.80499698 67.5 93.1875 C67.9125 92.50945312 68.325 91.83140625 68.75 91.1328125 C77.97462943 76.26633383 89.70429008 60.90578397 106.5 54.1875 C109.5625 53.5 109.5625 53.5 113.5 53.1875 C114.40363281 53.11144531 115.30726563 53.03539062 116.23828125 52.95703125 C131.4971251 52.25394629 150.37284538 58.15620441 161.875 68.27734375 C169.57382089 75.52935807 175.4316866 83.34325961 176.98046875 94.01953125 C177.44386121 96.34666541 177.44386121 96.34666541 178.90234375 98.8515625 C180.91847221 103.06127817 181.88156663 107.20581684 182.875 111.75 C183.08487549 112.69238525 183.29475098 113.63477051 183.51098633 114.60571289 C187.34704718 132.2806733 190.4205451 150.21728529 192.5 168.1875 C192.92667969 167.7028125 193.35335938 167.218125 193.79296875 166.71875 C204.54468328 155.19113854 218.09028742 148.24880546 233.9453125 147.69140625 C236.50528251 147.69009881 239.06534527 147.70980279 241.625 147.75 C243.54505859 147.73936523 243.54505859 147.73936523 245.50390625 147.72851562 C259.30894551 147.82036082 270.88722164 150.8088172 281.1875 160.375 C299.0062716 179.49349377 302.18007697 206.84138242 303.54296875 231.74609375 C303.5872167 232.55346922 303.63146465 233.36084469 303.67705345 234.19268608 C304.64915135 252.35501061 304.85522119 270.49403993 304.8172493 288.67910004 C304.81240792 291.29984514 304.81140629 293.92057153 304.81100464 296.5413208 C304.79164702 331.81834322 303.42570613 366.96812459 301.5 402.1875 C300.73714336 416.23837504 300.2458023 430.27290181 299.94775391 444.34106445 C299.74499096 453.73419733 299.42845011 463.09628498 298.83239746 472.47317505 C298.52488704 477.41272701 298.41091639 482.30407795 298.5 487.25 C298.80218391 528.38154755 298.80218391 528.38154755 295 541.97509766 C294.30031153 545.07108248 294.18076718 548.12119832 294 551.2890625 C293.9166753 552.67968802 293.83334171 554.070313 293.75 555.4609375 C293.6238187 557.64446544 293.49911489 559.82807242 293.375 562.01171875 C293.25357758 564.12522768 293.12697794 566.23838123 293 568.3515625 C292.9278125 569.61436035 292.855625 570.8771582 292.78125 572.17822266 C292.5 575.1875 292.5 575.1875 291.5 577.1875 C291.17126784 580.14608945 290.88573058 583.09783505 290.625 586.0625 C289.10820155 602.00821969 286.50738005 617.60926212 283.27075195 633.29345703 C281.91205721 639.92413544 280.78015373 646.48997578 280.0546875 653.22265625 C279.47614949 656.31498263 278.47898063 659.08886656 277.32958984 662.01147461 C276.46714552 664.27367776 275.71960711 666.55037239 274.9921875 668.859375 C271.01048473 681.41724302 266.19187702 693.31182469 260.5 705.1875 C260.14760254 705.92935547 259.79520508 706.67121094 259.43212891 707.43554688 C255.86485058 714.90920482 252.12087683 722.1674667 247.5390625 729.08203125 C245.88595151 731.59970029 244.28856723 734.13438325 242.7109375 736.69921875 C235.77516667 747.94133214 228.72432717 758.29571849 219.171875 767.51953125 C217.39174115 769.29550591 215.76065144 771.15298949 214.125 773.0625 C208.47311654 779.60344378 202.40905269 785.96358212 195.5 791.1875 C194.84 791.1875 194.18 791.1875 193.5 791.1875 C194.97071174 816.01677398 196.51533939 840.83923303 198.24487305 865.65194702 C198.5007768 869.32364555 198.75547591 872.99542568 199.00976562 876.66723633 C199.09347412 877.87590866 199.17718262 879.08458099 199.26342773 880.32987976 C199.43093654 882.74940295 199.59841722 885.16892808 199.76586914 887.5884552 C199.84764404 888.7698558 199.92941895 889.95125641 200.01367188 891.16845703 C200.09447998 892.33596497 200.17528809 893.5034729 200.25854492 894.70635986 C200.49490511 898.11404526 200.73273798 901.52162558 200.97070312 904.92919922 C204.21304056 951.53343893 204.21304056 951.53343893 203.5 970.1875 C203.45746094 971.49332031 203.41492187 972.79914062 203.37109375 974.14453125 C203.24854137 977.75781209 203.09247349 981.36853071 202.91513062 984.97952271 C202.8479506 986.38391068 202.78701589 987.78861471 202.73306274 989.193573 C202.22522808 1001.74559446 199.38914168 1010.36598851 190.12890625 1019.03125 C181.76815462 1025.88880557 172.42377536 1030.34411124 162.51953125 1034.44921875 C159.61188549 1035.65863813 156.87835567 1037.05246096 154.10546875 1038.54296875 C146.75867423 1042.26015949 138.85103915 1044.42198547 131 1046.8125 C129.44376813 1047.29348762 127.8877767 1047.77525389 126.33203125 1048.2578125 C123.36098647 1049.17782813 120.38762652 1050.08957194 117.41162109 1050.9934082 C115.09584638 1051.69685534 112.78819698 1052.41530231 110.48291016 1053.15307617 C105.2737309 1054.80343477 100.31446144 1055.76795817 94.875 1056.25 C93.46563196 1056.38131566 92.05675547 1056.51802046 90.6484375 1056.66015625 C89.73843994 1056.74148804 89.73843994 1056.74148804 88.81005859 1056.82446289 C86.24479704 1057.18910506 86.24479704 1057.18910506 82.78149414 1058.15136719 C78.49368696 1059.24658457 74.24592775 1059.84365382 69.84765625 1060.29296875 C68.62212791 1060.41879585 68.62212791 1060.41879585 67.37184143 1060.54716492 C57.56918484 1061.4723948 47.77643436 1061.53805627 37.9375 1061.5 C36.97876984 1061.49850952 36.02003967 1061.49701904 35.03225708 1061.4954834 C10.62287423 1061.42749422 -12.98021349 1058.94176332 -36.5 1052.1875 C-38.95702279 1051.59867101 -41.41543643 1051.01562422 -43.875 1050.4375 C-56.27648265 1047.40657881 -68.26770424 1043.29695817 -79.5 1037.1875 C-80.799375 1036.56488281 -80.799375 1036.56488281 -82.125 1035.9296875 C-92.25750896 1030.89221856 -99.58399541 1023.14049526 -107.5 1015.1875 C-108.44359375 1014.26453125 -109.3871875 1013.3415625 -110.359375 1012.390625 C-111.32419464 1011.40750255 -112.28772767 1010.42311587 -113.25 1009.4375 C-113.99056641 1008.7259375 -113.99056641 1008.7259375 -114.74609375 1008 C-118.78423936 1003.7959032 -119.31332129 999.91496185 -119.5 994.1875 C-119.60404817 992.31059225 -119.70821757 990.43369067 -119.81408691 988.55688477 C-120.05624192 984.16638699 -120.27445603 979.77446738 -120.47412109 975.38183594 C-120.88664331 966.43513458 -121.65582353 957.63334181 -122.90429688 948.76318359 C-124.67213253 935.67447377 -125.7244452 922.55645159 -126.7265625 909.390625 C-126.92111989 906.89389899 -127.11623004 904.397216 -127.31185913 901.90057373 C-127.81970868 895.4018855 -128.32059321 888.90268025 -128.81976318 882.40332031 C-129.42863148 874.49253724 -130.04574183 866.58239461 -130.66170311 858.6721611 C-131.14037366 852.52323764 -131.61784634 846.37422968 -132.09146118 840.22491455 C-132.17878006 839.09418518 -132.26609894 837.96345581 -132.35606384 836.79846191 C-132.5172309 834.71076024 -132.6778467 832.62301588 -132.8377533 830.53521729 C-132.98182266 828.67195605 -133.12929064 826.80895364 -133.28059769 824.94626617 C-133.43439135 823.01246364 -133.57479042 821.07757102 -133.70521164 819.1420517 C-133.81492231 817.66682919 -133.81492231 817.66682919 -133.92684937 816.1618042 C-134.01810121 814.83512285 -134.01810121 814.83512285 -134.11119652 813.48163986 C-134.3771107 810.91508752 -134.3771107 810.91508752 -136.5625 808.25 C-139.38097514 806.27107064 -142.10686365 804.79106222 -145.2109375 803.33203125 C-161.30673168 795.28413416 -174.92297287 782.84350375 -187.5 770.1875 C-188.37398437 769.32511719 -189.24796875 768.46273437 -190.1484375 767.57421875 C-202.85502428 754.99506192 -214.23315477 741.51595222 -223.5 726.1875 C-224.39912109 724.75083984 -224.39912109 724.75083984 -225.31640625 723.28515625 C-234.23729399 708.99371387 -242.67810941 694.60461082 -249.5 679.1875 C-250.31190545 677.43722408 -251.12436928 675.68720703 -251.9375 673.9375 C-258.54848693 659.26327655 -264.37005075 644.44139502 -269.5 629.1875 C-269.91427246 627.96522705 -269.91427246 627.96522705 -270.33691406 626.71826172 C-271.88128894 622.16080599 -273.40198174 617.59650166 -274.89501953 613.02197266 C-275.39252204 611.51340372 -275.91029978 610.01153621 -276.43359375 608.51171875 C-280.42471746 596.53834763 -281.42547507 583.49077052 -282.72851562 570.99633789 C-283.35015259 565.18005068 -284.16098185 559.40429754 -285.0625 553.625 C-285.18947266 552.79677734 -285.31644531 551.96855469 -285.44726562 551.11523438 C-285.75427817 547.33726207 -285.75427817 547.33726207 -287.5 544.1875 C-287.77652726 542.33081695 -287.99260905 540.46507804 -288.18359375 538.59765625 C-288.30557129 537.43073242 -288.42754883 536.26380859 -288.55322266 535.06152344 C-288.74343994 533.17481934 -288.74343994 533.17481934 -288.9375 531.25 C-289.20377476 528.6522768 -289.47070025 526.05462022 -289.73828125 523.45703125 C-289.93284912 521.56331787 -289.93284912 521.56331787 -290.13134766 519.63134766 C-290.42397234 516.89772924 -290.74356805 514.17422657 -291.10546875 511.44921875 C-292.58125526 500.20205889 -292.90079377 488.94545461 -293.15869141 477.61621094 C-293.1901123 476.30040039 -293.2215332 474.98458984 -293.25390625 473.62890625 C-293.27783447 472.46045166 -293.3017627 471.29199707 -293.32641602 470.08813477 C-293.45903726 467.10798061 -293.69474831 464.21430317 -294.00488281 461.25244141 C-294.71360968 453.74639234 -294.66431963 446.23855371 -294.66796875 438.70703125 C-294.67119236 437.12440462 -294.67455721 435.54177827 -294.67805481 433.95915222 C-294.6840083 430.65529694 -294.68589867 427.35146767 -294.68530273 424.04760742 C-294.68520143 419.86024211 -294.69883816 415.67304755 -294.71607494 411.48572254 C-294.72731629 408.21930713 -294.72921825 404.9529314 -294.72869301 401.68649864 C-294.72985555 400.14508159 -294.73417727 398.60366291 -294.74202538 397.0622654 C-294.85087465 373.47464609 -293.6535572 339.30194111 -276.5 321.1875 C-275.16582031 319.75470703 -275.16582031 319.75470703 -273.8046875 318.29296875 C-267.87876629 312.08247213 -261.77877363 306.8006127 -254.5 302.1875 C-253.51 301.5275 -252.52 300.8675 -251.5 300.1875 C-244.62686391 297.79734119 -237.7470618 296.55404214 -230.5 296.1875 C-229.46359375 296.11144531 -228.4271875 296.03539062 -227.359375 295.95703125 C-214.75739127 295.42475568 -203.40552069 298.7238045 -192.5625 305 C-187.69774618 307.79555489 -184.12407697 308.94516279 -178.5234375 308.82421875 C-175.71082214 307.93916797 -175.01083544 306.69157093 -173.5 304.1875 C-173.10290554 301.56740944 -173.10290554 301.56740944 -173.25610352 298.72241211 C-173.2834256 297.65650848 -173.31074768 296.59060486 -173.33889771 295.49240112 C-173.59712255 290.19509876 -173.97309868 284.91487721 -174.40234375 279.62890625 C-175.23107795 268.74506564 -175.84978032 257.86920757 -176.31640625 246.96484375 C-176.3633922 245.87131529 -176.3633922 245.87131529 -176.41132736 244.75569534 C-176.60177312 240.29858907 -176.78680576 235.84127088 -176.96972656 231.3838501 C-177.21745614 225.35212375 -177.46968045 219.3205954 -177.72645378 213.28924751 C-177.81353022 211.22066653 -177.89723575 209.15196984 -177.98060608 207.08323669 C-178.25560295 200.55804296 -178.64823824 194.07731773 -179.28355408 187.57743835 C-179.58209174 184.28106479 -179.69614127 180.99174287 -179.78125 177.68359375 C-179.81863281 176.36552734 -179.85601563 175.04746094 -179.89453125 173.68945312 C-179.94797982 171.65374893 -180.00017864 169.61801533 -180.05224609 167.58227539 C-180.25243109 158.45995681 -180.25243109 158.45995681 -181.0234375 149.375 C-181.80760708 142.35464171 -181.64854388 135.28378398 -181.63037109 128.22924805 C-181.62501926 125.75888918 -181.63033858 123.28871268 -181.63671875 120.81835938 C-181.64963344 98.25170633 -177.26292985 74.94530934 -161 57.875 C-156.58301751 53.94966044 -151.73588224 50.9014323 -146.5 48.1875 C-145.55640625 47.69443359 -145.55640625 47.69443359 -144.59375 47.19140625 C-133.79791841 42.06338625 -115.57744771 42.01072653 -104.15429688 44.75 C-99.86690038 46.28032193 -96.2106015 48.59057173 -92.5 51.1875 C-91.49839844 51.83589844 -90.49679687 52.48429687 -89.46484375 53.15234375 C-81.82126945 58.34750529 -76.13267914 64.20440113 -71.5 72.1875 C-71.39042969 71.06472656 -71.28085937 69.94195313 -71.16796875 68.78515625 C-69.712248 54.73517396 -69.712248 54.73517396 -67.27734375 48.484375 C-66.2515428 45.45336516 -65.72181881 42.39257137 -65.125 39.25 C-62.39832579 26.19288485 -56.11834832 16.87213674 -45.00390625 9.51171875 C-37.85800117 5.73252714 -30.7231346 4.32779664 -22.8125 3.0625 C-20.78769556 2.72695366 -18.76295369 2.39102942 -16.73828125 2.0546875 C-15.85180908 1.91144043 -14.96533691 1.76819336 -14.05200195 1.62060547 C-12.31898641 1.32649186 -10.59127289 0.99964747 -8.86987305 0.64379883 C-5.88618288 0.06931475 -3.03706231 0.01773985 0 0 Z M-9.07421875 19.13671875 C-18.80733055 19.35154125 -30.52704388 25.52639344 -37.5 32.1875 C-39.64098139 35.99935311 -41.03900472 40.07244755 -42.5 44.1875 C-42.80035156 45.00992188 -43.10070312 45.83234375 -43.41015625 46.6796875 C-45.68890537 53.84801389 -46.20832439 61.20087843 -46.76635742 68.66381836 C-47.16620917 73.76725167 -48.00449797 78.26604709 -49.5 83.1875 C-51.97532425 100.70158667 -50.343944 118.92576321 -49.4765625 136.515625 C-49.36893001 138.75680013 -49.26162735 140.99799112 -49.15463257 143.23919678 C-48.93008811 147.92570023 -48.70294078 152.61206708 -48.47363281 157.29833984 C-48.18553647 163.18626479 -47.90180192 169.07438832 -47.61980724 174.96260834 C-46.64101612 195.3907982 -45.64796831 215.81716813 -44.50071144 236.23665619 C-43.69752131 250.55217847 -43.1474309 264.8496104 -42.9375 279.1875 C-42.89310243 282.02603289 -42.84661013 284.86447509 -42.79469299 287.70288086 C-42.76341977 289.42236825 -42.73633758 291.14193964 -42.71446228 292.86157227 C-42.70097244 293.62268311 -42.6874826 294.38379395 -42.67358398 295.16796875 C-42.66407211 295.82692139 -42.65456024 296.48587402 -42.64476013 297.16479492 C-42.54697985 299.22262301 -42.54697985 299.22262301 -42.02493286 301.33171082 C-41.25847738 305.50145411 -41.12726452 309.66943589 -40.92749023 313.8996582 C-40.87857635 314.87264862 -40.82966248 315.84563904 -40.77926636 316.84811401 C-40.61870269 320.06133282 -40.46354693 323.27478738 -40.30859375 326.48828125 C-40.19819279 328.72642838 -40.08751683 330.96456197 -39.97657776 333.2026825 C-39.7448312 337.89404396 -39.51561642 342.58551998 -39.28833008 347.27709961 C-38.99746029 353.27933578 -38.70157734 359.2813113 -38.40394497 365.28321552 C-38.17503163 369.90633021 -37.94816431 374.52954345 -37.72197151 379.15279198 C-37.61360814 381.36511787 -37.50476079 383.57742012 -37.39541435 385.78969765 C-37.24267097 388.88875868 -37.09252958 391.9879351 -36.94311523 395.0871582 C-36.87534126 396.44886894 -36.87534126 396.44886894 -36.80619812 397.83808899 C-36.0270268 414.20957174 -36.0270268 414.20957174 -39.5 419.1875 C-42.91234859 421.59165469 -44.88189691 422.1875 -49.0625 422.1875 C-53.12302535 421.00625626 -54.79175419 419.37367154 -57.5 416.1875 C-57.83 415.8575 -58.16 415.5275 -58.5 415.1875 C-58.63480453 413.69915179 -58.70378296 412.20477901 -58.74609375 410.7109375 C-59.10159013 399.00472305 -59.64262629 387.32934987 -60.4375 375.64453125 C-61.45830671 360.2700926 -62.31530701 344.89032503 -63.0625 329.5 C-63.09508533 328.83822376 -63.12767067 328.17644753 -63.16124344 327.49461746 C-64.1154292 308.11331447 -64.69843293 288.76388759 -64.89877319 269.35760498 C-65.41204876 219.88657726 -68.35654412 169.73766525 -78.5 121.1875 C-78.75523437 119.95128906 -79.01046875 118.71507812 -79.2734375 117.44140625 C-82.57227455 102.38381131 -86.75999979 83.92759275 -100.03125 74.36328125 C-102.48374435 72.8737516 -104.94530402 71.49266294 -107.5 70.1875 C-108.10803467 69.84130615 -108.71606934 69.4951123 -109.3425293 69.13842773 C-116.78395736 65.85854063 -129.35470301 66.91490318 -136.9609375 69.25 C-139.49759335 70.68613747 -141.43108869 72.14073978 -143.5 74.1875 C-144.05042969 74.72117187 -144.60085938 75.25484375 -145.16796875 75.8046875 C-161.19408312 94.34389435 -160.83948847 123.56386309 -159.34143066 146.62893677 C-158.8632351 152.41060463 -158.21639546 158.17353263 -157.5625 163.9375 C-157.19529862 167.26520205 -156.83305795 170.59343013 -156.47265625 173.921875 C-156.38569992 174.72258926 -156.29874359 175.52330353 -156.20915222 176.34828186 C-155.1399139 186.3374781 -154.46775747 196.32316255 -154.16607666 206.36489868 C-153.85143763 216.64795861 -153.35308115 226.8933008 -152.5859375 237.15234375 C-151.33643581 254.60256497 -150.51174044 272.07012439 -149.68733215 289.54467773 C-149.34447813 296.80324229 -148.9971906 304.06159752 -148.65044022 311.31997681 C-148.56322619 313.14709751 -148.47616696 314.9742256 -148.38926315 316.80136108 C-147.85340513 328.06309851 -147.29243531 339.32294062 -146.68453026 350.58102226 C-145.44030515 373.63544748 -144.2233718 396.65589705 -144.25 419.75 C-144.25068481 420.56847412 -144.25136963 421.38694824 -144.2520752 422.23022461 C-144.2786832 431.65139478 -144.61675855 441.02846426 -145.13879395 450.43434143 C-145.47244879 456.76003346 -145.59451263 463.07243035 -145.640625 469.40625 C-145.65994371 471.28255428 -145.67947476 473.15885639 -145.69921875 475.03515625 C-145.72850307 477.89459683 -145.75001096 480.75319046 -145.75048828 483.61279297 C-145.75380439 486.44048306 -145.78813104 489.26637255 -145.828125 492.09375 C-145.8210553 492.95093628 -145.8139856 493.80812256 -145.80670166 494.69128418 C-145.92844322 500.59492841 -145.92844322 500.59492841 -148.91699219 503.69335938 C-153.73716335 506.48158693 -157.07375399 506.62613106 -162.5 505.1875 C-166.04779085 501.72840392 -167.45630489 499.33231924 -167.64476013 494.39476013 C-167.65938927 492.71690435 -167.6685432 491.03899597 -167.67358398 489.36108398 C-167.680271 488.44509933 -167.68695801 487.52911469 -167.69384766 486.58537292 C-167.70793052 484.58725265 -167.71981417 482.58911597 -167.72979546 480.59097099 C-167.74624641 477.40401895 -167.76949991 474.21718291 -167.79469299 471.0302887 C-167.86525679 461.96483222 -167.92479302 452.89932144 -167.97680664 443.83374023 C-168.00910916 438.28754903 -168.05052865 432.74148032 -168.09700203 427.1953907 C-168.11275671 425.10322406 -168.12519611 423.01102915 -168.13390923 420.91882133 C-168.18206034 409.49586981 -168.52344424 398.14980586 -169.40649414 386.75805664 C-169.48456267 385.73250136 -169.56263121 384.70694609 -169.64306545 383.65031338 C-170.35787602 375.18001147 -171.91418934 367.28970673 -174.5 359.1875 C-174.78617188 358.26195312 -175.07234375 357.33640625 -175.3671875 356.3828125 C-179.00690751 346.04343087 -185.97557646 337.87563468 -194.5 331.1875 C-195.09039063 330.66542969 -195.68078125 330.14335938 -196.2890625 329.60546875 C-206.46614045 321.0523926 -218.5943052 319.15562575 -231.5 320.1875 C-232.4178125 320.24808594 -233.335625 320.30867188 -234.28125 320.37109375 C-244.33643392 321.65981194 -252.74652319 329.35776429 -258.94921875 336.96484375 C-266.57785395 347.28367776 -269.29371574 360.76599206 -271.5 373.1875 C-271.67136475 374.1043457 -271.84272949 375.02119141 -272.01928711 375.96582031 C-273.51137743 384.5838484 -273.7698042 392.95459084 -273.6875 401.6875 C-273.68603799 403.03124936 -273.6853838 404.37499985 -273.68554688 405.71875 C-273.6613858 411.04492569 -273.56526542 415.96934784 -272.5 421.1875 C-272.37831545 423.24022081 -272.29997348 425.29575423 -272.25390625 427.3515625 C-272.22232422 428.54595947 -272.19074219 429.74035645 -272.15820312 430.97094727 C-272.11083008 432.87251587 -272.11083008 432.87251587 -272.0625 434.8125 C-271.79864041 443.90838849 -271.35503813 452.8706164 -270.23291016 461.89892578 C-269.22360489 470.54713804 -269.06388146 479.23766689 -268.84179688 487.93579102 C-268.81021484 489.09135498 -268.77863281 490.24691895 -268.74609375 491.4375 C-268.72216553 492.47390625 -268.6982373 493.5103125 -268.67358398 494.578125 C-268.60284662 497.29989365 -268.60284662 497.29989365 -267.5 500.1875 C-267.30653343 502.04848107 -267.15761433 503.91425137 -267.03515625 505.78125 C-266.95716797 506.895 -266.87917969 508.00875 -266.79882812 509.15625 C-266.64337549 511.47904645 -266.48968009 513.80196129 -266.33789062 516.125 C-265.89240869 522.44142675 -265.1581255 528.54051048 -263.93920898 534.75341797 C-263.15190026 539.11665754 -263.04535295 543.50563648 -262.84375 547.92578125 C-262.63552951 551.13350276 -262.63552951 551.13350276 -261.56396484 553.8046875 C-260.23401974 558.0331683 -259.69004852 562.18704019 -259.1328125 566.57421875 C-258.88447719 568.41866865 -258.63576728 570.26306814 -258.38671875 572.10742188 C-258.00469494 574.9853183 -257.62647011 577.86359357 -257.25537109 580.74291992 C-255.57523459 594.71304878 -255.57523459 594.71304878 -251.36889648 608.07885742 C-250.17222222 610.98295285 -249.61652872 613.93306067 -248.9921875 617 C-247.56601608 623.33853963 -245.06366377 629.23980005 -242.5 635.1875 C-241.84681601 636.99736398 -241.20158152 638.81010834 -240.5625 640.625 C-239.13599483 644.60619694 -237.51662879 648.31759534 -235.55004883 652.05566406 C-234.47170312 654.24494904 -233.58041886 656.44964174 -232.703125 658.7265625 C-230.44411101 664.42890257 -227.89422661 669.96728605 -225.25 675.5 C-224.52864868 677.01122437 -224.52864868 677.01122437 -223.79272461 678.55297852 C-220.58448855 685.17906607 -217.12588325 691.43196653 -213.12890625 697.6171875 C-211.74858711 699.79524504 -210.58981308 701.91940406 -209.5 704.25 C-205.16024471 713.31186787 -198.76835906 721.38993687 -192.5 729.1875 C-191.54287109 730.40566406 -191.54287109 730.40566406 -190.56640625 731.6484375 C-184.49080539 739.34656725 -178.3974567 746.74430187 -170.8671875 753.05859375 C-168.96537494 754.76896973 -167.20800209 756.50023235 -165.4453125 758.34765625 C-144.77011299 779.97571279 -117.74754332 792.46411924 -90.31542969 803.453125 C-88.74763898 804.08732544 -87.18924354 804.74466078 -85.6328125 805.40625 C-80.23052186 807.68453232 -74.91721783 809.12758297 -69.1640625 810.28125 C-65.40370532 811.56043309 -63.26803887 813.65142227 -61.5 817.1875 C-61.515625 819.24609375 -61.515625 819.24609375 -61.75 821.625 C-61.81703125 822.40746094 -61.8840625 823.18992187 -61.953125 823.99609375 C-62.59462806 826.56668816 -63.58833926 827.42486658 -65.5 829.1875 C-65.5 829.8475 -65.5 830.5075 -65.5 831.1875 C-78.69746064 831.95878017 -88.98399581 830.32306198 -100.5 823.1875 C-103.48357998 821.83778525 -105.20334304 821.1875 -108.5 821.1875 C-108.65257084 828.95550518 -108.04962492 836.57778961 -107.36328125 844.3125 C-107.24193827 845.71393418 -107.12100814 847.11540416 -107.00045776 848.51690674 C-106.74241278 851.5113123 -106.482372 854.50553476 -106.22079468 857.49963379 C-105.52323425 865.49351822 -104.84400566 873.48897626 -104.1640625 881.484375 C-104.09450285 882.30140648 -104.0249432 883.11843796 -103.95327568 883.96022797 C-102.5823703 900.07437941 -101.26485311 916.19235995 -100.0093689 932.31591797 C-99.79894854 935.01763889 -99.58542684 937.71905583 -99.37026978 940.42041016 C-99.06798608 944.22256438 -98.77271232 948.02518688 -98.48046875 951.828125 C-98.38600967 953.02669632 -98.2915506 954.22526764 -98.19422913 955.4601593 C-97.74008771 961.55663865 -97.44457543 967.61339043 -97.38916016 973.72729492 C-97.37178299 974.94870178 -97.35440582 976.17010864 -97.33650208 977.42852783 C-97.31347553 979.72827035 -97.31887602 982.02855929 -97.35917664 984.32806396 C-97.28522738 991.20738475 -96.00623792 994.99727483 -91.40974426 1000.16593933 C-88.31110974 1003.14177428 -84.9954025 1005.70049563 -81.5 1008.1875 C-80.70851563 1008.82945312 -79.91703125 1009.47140625 -79.1015625 1010.1328125 C-64.74796606 1020.96892681 -45.29788927 1026.93254873 -27.82421875 1029.609375 C-24.5 1030.1875 -24.5 1030.1875 -23.5 1031.1875 C-21.69511516 1031.54134068 -19.88027472 1031.84480797 -18.0625 1032.125 C-11.18325861 1033.22665787 -4.34269741 1034.38397294 2.375 1036.25 C14.03763731 1039.14975986 26.57766864 1038.37374505 38.50927734 1038.37280273 C41.62481137 1038.37499987 44.73999656 1038.39324109 47.85546875 1038.41210938 C49.86458214 1038.41504243 51.87369719 1038.41702781 53.8828125 1038.41796875 C54.79974884 1038.42515427 55.71668518 1038.43233978 56.66140747 1038.43974304 C64.20513534 1038.41341278 71.15801144 1037.06713538 78.4375 1035.1875 C81.40173301 1034.42443012 84.35921017 1033.83578773 87.375 1033.3125 C99.64675866 1031.11030769 111.62487216 1028.28665445 123.5625 1024.6875 C124.51350586 1024.40302002 125.46451172 1024.11854004 126.44433594 1023.82543945 C132.34440412 1022.00616535 137.91207019 1019.80565602 143.5 1017.1875 C145.02083333 1016.52083333 146.54166667 1015.85416667 148.0625 1015.1875 C151.63651618 1013.60250152 155.12704391 1011.89318261 158.60546875 1010.109375 C160.33829728 1009.26618421 162.13717962 1008.56239505 163.9375 1007.875 C170.6228134 1004.7082726 176.00361036 1001.17903902 178.87634277 994.16864014 C179.92006365 990.85310521 179.9267479 987.54786265 179.8984375 984.109375 C179.9025766 983.32721619 179.9067157 982.54505737 179.91098022 981.73919678 C179.91722777 979.13825075 179.89796732 976.53834338 179.875 973.9375 C179.86901794 972.56646118 179.86901794 972.56646118 179.86291504 971.16772461 C179.74206359 947.12345106 178.1462901 923.16658116 176.5 899.1875 C176.33245317 896.72900843 176.16497413 894.27051224 175.99755859 891.81201172 C175.31315155 881.78637776 174.62321973 871.76114404 173.91992188 861.73681641 C172.64619014 843.56063536 171.49304322 825.38118203 170.5 807.1875 C166.82663056 807.85656259 163.59941667 808.90786342 160.13427734 810.30810547 C149.10221223 814.65801 138.26775594 815.65168869 126.5 816.1875 C125.72156738 816.23132812 124.94313477 816.27515625 124.14111328 816.3203125 C112.62871355 816.93362569 112.62871355 816.93362569 108.72265625 814.3515625 C105.56435184 811.27651743 104.18910388 809.17661015 104.0625 804.8125 C104.12487019 800.98297027 104.37878834 800.33668359 106.9375 797.1875 C107.783125 796.5275 108.62875 795.8675 109.5 795.1875 C109.83 794.8575 110.16 794.5275 110.5 794.1875 C112.36757703 793.98248523 114.24203124 793.83954948 116.1171875 793.72265625 C117.2825 793.64466797 118.4478125 793.56667969 119.6484375 793.48632812 C122.09366015 793.33125897 124.5389706 793.17756676 126.984375 793.02539062 C145.09573267 791.806738 162.41665571 787.36768965 176.5 775.1875 C177.82772787 774.18006937 179.16161828 773.18073318 180.5 772.1875 C181.180625 771.67703125 181.86125 771.1665625 182.5625 770.640625 C184.20833333 769.40625 185.85416667 768.171875 187.5 766.9375 C188.16 766.36 188.82 765.7825 189.5 765.1875 C189.5 764.5275 189.5 763.8675 189.5 763.1875 C190.32564453 762.86652344 190.32564453 762.86652344 191.16796875 762.5390625 C194.29075719 760.72920521 196.44856925 758.23680443 198.8125 755.5625 C199.29960449 755.01835449 199.78670898 754.47420898 200.28857422 753.91357422 C201.25903731 752.82795509 202.22719837 751.74027305 203.19287109 750.65039062 C204.26248554 749.45331745 205.35645754 748.27804808 206.45703125 747.109375 C211.03344954 742.17927567 214.54687595 736.65233728 218.1015625 730.97265625 C220.12330088 727.7494133 222.2426154 724.60388422 224.390625 721.46386719 C229.05793153 714.62106161 232.98083638 707.70138989 236.5 700.1875 C237.36989426 698.43495643 238.24468492 696.68483235 239.125 694.9375 C239.53105469 694.12023438 239.93710938 693.30296875 240.35546875 692.4609375 C241.04943852 691.08247194 241.7567775 689.71048251 242.48828125 688.3515625 C250.11088214 673.9846851 254.86815058 657.60569153 257.7890625 641.6953125 C258.5 638.1875 258.5 638.1875 259.51953125 634.7734375 C260.62281531 630.73831891 261.13559114 626.83779653 261.5625 622.6875 C263.2085005 607.4789995 263.2085005 607.4789995 264.5 606.1875 C264.86155983 603.62486872 265.16732959 601.07658888 265.4375 598.50390625 C265.52249756 597.73320297 265.60749512 596.96249969 265.69506836 596.16844177 C265.96752738 593.6960607 266.23434629 591.22312097 266.5 588.75 C266.76583468 586.28047256 267.03297405 583.81113096 267.30493164 581.3422699 C267.47442642 579.80349229 267.64037678 578.26431945 267.80249023 576.7247467 C268.38734925 571.4128015 268.38734925 571.4128015 269.5 569.1875 C269.62786226 567.80817017 269.70198211 566.42360347 269.74609375 565.0390625 C269.77767578 564.20536133 269.80925781 563.37166016 269.84179688 562.51269531 C269.87337891 561.62163086 269.90496094 560.73056641 269.9375 559.8125 C270.16706889 554.27755526 270.39680337 548.87993668 271.5 543.4375 C272.60508647 537.58219109 272.87514903 531.75403188 273.125 525.8125 C273.16496094 524.89887695 273.20492187 523.98525391 273.24609375 523.04394531 C273.45941159 517.21918325 273.50497982 511.40488541 273.48028564 505.57722473 C273.43012418 493.40225407 273.80762845 481.28532957 274.375 469.125 C274.46656069 467.0905948 274.55769698 465.05617046 274.6484375 463.02172852 C274.83596376 458.82948425 275.02608788 454.6373685 275.21777344 450.4453125 C275.49444676 444.35991709 275.75284375 438.27383761 276.0078125 432.1875 C277.49475778 396.96159559 277.49475778 396.96159559 278.80273438 379.93530273 C280.64238513 355.15605731 280.68812825 330.32713685 280.68530273 305.49487305 C280.68522186 301.76793525 280.69212162 298.0411214 280.70581055 294.31420898 C280.7977818 268.86734784 280.118705 243.58287062 278.5 218.1875 C278.29222821 214.75852379 278.08456161 211.32954131 277.87715149 207.90054321 C277.09912347 196.5141291 275.17058642 185.17304409 267.5 176.1875 C258.20722488 168.36005269 250.21425214 168.55427538 238.48828125 169.4609375 C226.42360127 170.75401746 219.1192571 174.85992143 210.75 183.5 C210.11707031 184.12583984 209.48414063 184.75167969 208.83203125 185.39648438 C203.24863201 191.05533496 199.03586648 197.07843496 196.25 204.5625 C194.51265823 209.16218354 194.51265823 209.16218354 193.5 211.1875 C193.38593716 212.84591489 193.33323897 214.50872055 193.31054688 216.17089844 C193.29378906 217.21603607 193.27703125 218.26117371 193.25976562 219.33798218 C193.24623047 220.47941681 193.23269531 221.62085144 193.21875 222.796875 C193.20070313 223.9796402 193.18265625 225.1624054 193.1640625 226.38101196 C193.12557492 228.91810271 193.08910742 231.45522474 193.05444336 233.99237061 C192.96430949 240.52374129 192.8570228 247.05482506 192.75 253.5859375 C192.71900208 255.50021042 192.71900208 255.50021042 192.68737793 257.45315552 C192.52656011 267.15879426 192.31514114 276.86065488 192 286.5625 C191.96455078 287.74553711 191.92910156 288.92857422 191.89257812 290.14746094 C191.85583984 291.1996582 191.81910156 292.25185547 191.78125 293.3359375 C191.75095703 294.21427246 191.72066406 295.09260742 191.68945312 295.99755859 C191.5 298.1875 191.5 298.1875 190.5 301.1875 C190.38357459 303.0382137 190.32336697 304.89267596 190.29467773 306.74682617 C190.27473251 307.89040085 190.25478729 309.03397552 190.23423767 310.21220398 C190.21752518 311.45573135 190.20081268 312.69925873 190.18359375 313.98046875 C190.1524221 315.91965935 190.1524221 315.91965935 190.12062073 317.89802551 C190.0766036 320.65113855 190.03573779 323.40427401 189.99731445 326.1574707 C189.94908011 329.60981412 189.89528222 333.06203868 189.83935356 336.51426506 C189.47513731 359.07951247 189.2148547 381.6290635 190 404.1875 C190.04853424 405.66795708 190.09671086 407.14842594 190.14453125 408.62890625 C190.25895788 412.148581 190.37801414 415.66807808 190.5 419.1875 C177.57330406 421.06289505 177.57330406 421.06289505 172.6875 419 C169.49555181 416.35524293 167.76521426 414.06100698 167.16925049 409.8510437 C166.97514353 406.84547223 166.8817772 403.85109326 166.8203125 400.83984375 C166.77077927 399.12908913 166.77077927 399.12908913 166.72024536 397.3837738 C166.36765296 383.84903103 166.35015172 370.31000033 166.37304688 356.77160645 C166.3756472 354.08011053 166.37078426 351.38864755 166.36618423 348.69715595 C166.34585398 334.60940598 166.52419745 320.55515771 167.11434937 306.47921753 C167.47430801 297.66793655 167.6602354 288.86001116 167.78125 280.04296875 C167.79558767 279.01799884 167.79558767 279.01799884 167.810215 277.97232246 C167.88748026 272.39594171 167.95789434 266.81947963 168.02606201 261.24298096 C168.07764119 257.02996019 168.13251344 252.81700827 168.19187927 248.60408974 C168.21771563 246.68240411 168.23889872 244.76065764 168.2598877 242.83891296 C168.36074602 235.64069692 168.72487254 228.5085971 169.27838135 221.33140564 C169.55410698 217.41993261 169.62941767 213.5579952 169.6328125 209.63671875 C169.63376923 208.92643021 169.63472595 208.21614166 169.63571167 207.48432922 C169.63637991 206.01860462 169.63462287 204.55287679 169.63037109 203.0871582 C169.62489591 200.83212906 169.63041506 198.57728964 169.63671875 196.32226562 C169.63605977 194.88541623 169.63478236 193.44856695 169.6328125 192.01171875 C169.63168457 190.72354248 169.63055664 189.43536621 169.62939453 188.1081543 C169.83410789 185.29656876 169.83410789 185.29656876 168.5 184.1875 C168.36415323 182.81090606 168.29357828 181.42777531 168.25048828 180.04516602 C168.22020538 179.16236465 168.18992249 178.27956329 168.15872192 177.37001038 C168.11495926 175.92035133 168.11495926 175.92035133 168.0703125 174.44140625 C167.99649072 172.38475134 167.92225747 170.32811116 167.84765625 168.27148438 C167.73548311 165.03813012 167.62670786 161.80477364 167.52587891 158.57104492 C166.91927548 139.52221768 165.16412195 122.15682882 158.5 104.1875 C158.108125 103.01960937 157.71625 101.85171875 157.3125 100.6484375 C154.32631097 92.10243601 151.35606224 85.76834427 143.1484375 81.40625 C132.6768767 76.58015399 121.17079854 73.97726991 109.8125 77.25 C105.16281916 79.96962464 100.80032012 82.94530281 96.5 86.1875 C95.80648438 86.70054687 95.11296875 87.21359375 94.3984375 87.7421875 C82.49793106 97.27207512 75.6967672 111.08598493 73.828125 126.046875 C73.47517705 129.25475903 73.20302238 132.46213737 72.95703125 135.6796875 C72.70118043 138.7400062 72.22807505 141.62176976 71.51953125 144.609375 C70.35319199 149.56725441 69.80171156 154.49180253 69.375 159.5625 C69.24544922 161.08979736 69.24544922 161.08979736 69.11328125 162.64794922 C68.32733934 173.20358569 68.37329207 183.74532174 68.57373047 194.32177734 C68.71109411 203.67888435 68.20951292 212.90607612 67.515625 222.23828125 C66.38009899 237.86308219 66.18436681 253.41525161 66.24285889 269.07550049 C66.25015703 271.29781615 66.25327167 273.52010534 66.25537109 275.74243164 C66.27624726 293.58044055 66.54132417 311.37139121 67.5 329.1875 C68.39700821 345.97915088 68.81199294 362.75806078 68.90942383 379.57177734 C68.92554777 382.29761101 68.95325518 385.02292328 68.99145508 387.74853516 C69.03906777 391.55145263 69.05350834 395.35306774 69.05859375 399.15625 C69.08777138 400.87164978 69.08777138 400.87164978 69.11753845 402.6217041 C69.07337114 410.40968745 69.07337114 410.40968745 66.13500977 414.39575195 C62.30760485 416.99830219 59.61229511 416.94236004 55.1015625 416.75390625 C52.23558814 416.12993285 51.23743643 415.52890827 49.375 413.3125 C47.12634681 409.56474468 46.37435335 407.83491172 46.32641602 403.53613281 C46.30618126 402.08125458 46.30618126 402.08125458 46.28553772 400.59698486 C46.26988014 399.00983673 46.26988014 399.00983673 46.25390625 397.390625 C46.2208875 395.12760147 46.18767758 392.86458072 46.15429688 390.6015625 C46.10749573 387.05243521 46.06324262 383.50331159 46.02319336 379.95410156 C45.98252032 376.51613352 45.93114859 373.07843433 45.87890625 369.640625 C45.86628502 368.1142038 45.86628502 368.1142038 45.85340881 366.5569458 C45.75744402 360.60045003 45.38292258 354.75363534 44.77265686 348.83026797 C43.54256797 336.70837941 43.23063814 324.73393548 43.28881836 312.55883789 C43.29102764 310.50114008 43.29232674 308.44344113 43.2928009 306.38574219 C43.2957019 302.00498772 43.30483557 297.62431001 43.31910515 293.24357796 C43.34164159 286.30247757 43.3495051 279.36140434 43.35560608 272.42027283 C43.36692372 261.43865405 43.38760547 250.4570771 43.41250378 239.47548145 C43.45702114 219.80701609 43.4901254 200.13853616 43.51274782 180.47003359 C43.52110173 173.58315014 43.53506966 166.69630848 43.55372036 159.8094455 C43.56443161 155.51708852 43.5709708 151.22473187 43.57652092 146.93236542 C43.5799636 144.95681046 43.58514641 142.98125756 43.59228897 141.00571251 C43.62755481 131.02482303 43.50999692 121.12889116 42.73127651 111.17532444 C42.44459055 107.47167417 42.34327821 103.79996248 42.2890625 100.0859375 C42.26330788 98.68862482 42.23674685 97.29132682 42.20947266 95.89404297 C42.19619934 95.18713318 42.18292603 94.48022339 42.16925049 93.75189209 C41.92107849 81.47302612 41.36006398 69.28471851 40.125 57.0625 C40.0110791 55.89122559 39.8971582 54.71995117 39.77978516 53.51318359 C38.64793209 41.87992234 38.64793209 41.87992234 32.8125 32.125 C26.75401337 27.47364575 19.40651404 24.37124611 12.5 21.1875 C11.65050781 20.78402344 10.80101562 20.38054687 9.92578125 19.96484375 C3.8701997 18.02432728 -2.79506347 19.26058676 -9.07421875 19.13671875 Z " fill="#A91312" transform="translate(1013.5,444.8125)"/>
<path d="M0 0 C5.68587391 0.69339926 10.96201004 1.83463566 15 6.125 C16.44731944 10.28604339 16.13373126 13.77148882 15 18 C12.24719501 22.55636687 12.24719501 22.55636687 9.25390625 23.62109375 C6.39055052 24.10245511 3.65221485 24.09404581 0.75 24.0625 C-0.32765625 24.05347656 -1.4053125 24.04445313 -2.515625 24.03515625 C-3.33546875 24.02355469 -4.1553125 24.01195312 -5 24 C-5 23.67 -5 23.34 -5 23 C-4.33613281 22.97421875 -3.67226563 22.9484375 -2.98828125 22.921875 C1.05416857 22.66221399 4.34450888 22.29430213 8.0625 20.625 C11.1096668 16.49658046 10.90491738 12.01344719 11 7 C10.38253906 6.7009375 9.76507812 6.401875 9.12890625 6.09375 C6.87011612 4.93327067 5.00522268 3.55243046 3 2 C2.01 1.34 1.02 0.68 0 0 Z " fill="#BA4040" transform="translate(937,1253)"/>
<path d="M0 0 C3.01990039 0.89780822 4.73870172 1.7125719 6.875 4.0625 C8.47485598 8.23990173 8.17800346 11.71423741 7 16 C4.9375 19.0625 4.9375 19.0625 3 21 C2.34 20.67 1.68 20.34 1 20 C1.495 19.360625 1.99 18.72125 2.5 18.0625 C4.512492 13.95366216 4.75019594 10.50117563 4 6 C2.89195513 3.64960178 1.6658087 2.03020436 0 0 Z " fill="#C66060" transform="translate(945,1255)"/>
<path d="M0 0 C4.34607612 0.31043401 7.55025689 1.33134591 10.875 4.2578125 C13.14451025 7.77240129 12.42006641 11.99381105 12 16 C11.67 16 11.34 16 11 16 C11 13.03 11 10.06 11 7 C9.68 6.34 8.36 5.68 7 5 C5.65210653 4.01971384 4.31787285 3.02028865 3 2 C2.01 1.34 1.02 0.68 0 0 Z " fill="#B63736" transform="translate(937,1253)"/>
<path d="M0 0 C1.61648438 0.04060547 1.61648438 0.04060547 3.265625 0.08203125 C4.08546875 0.11683594 4.9053125 0.15164063 5.75 0.1875 C5.75 0.5175 5.75 0.8475 5.75 1.1875 C4.64591797 1.20876953 4.64591797 1.20876953 3.51953125 1.23046875 C-2.93004111 1.4584922 -2.93004111 1.4584922 -8.3125 4.75 C-9.2715625 5.9565625 -9.2715625 5.9565625 -10.25 7.1875 C-10.91 7.1875 -11.57 7.1875 -12.25 7.1875 C-9.73903637 1.1193379 -6.39239195 -0.20844756 0 0 Z " fill="#B43131" transform="translate(1130.25,1237.8125)"/>
<path d="M0 0 C0.66 0.33 1.32 0.66 2 1 C-1.3 4.3 -4.6 7.6 -8 11 C-8 6.67750434 -5.85084926 5.11604454 -3 2 C-2.01 1.34 -1.02 0.68 0 0 Z " fill="#D38382" transform="translate(874,516)"/>
<path d="M0 0 C3.14158949 0.93398606 4.7325148 1.66794941 6.8125 4.25 C8.16280181 7.37701471 8.23523553 9.6282908 8 13 C6.5393715 10.35261084 6 9.10551666 6 6 C5.34 6 4.68 6 4 6 C2.61061923 4.03852126 1.2739589 2.03833424 0 0 Z " fill="#CB6D6D" transform="translate(945,1255)"/>
<path d="M0 0 C0.33 0 0.66 0 1 0 C1.28783441 3.70986572 1.45251957 7.29998705 1 11 C-1.5 13.6875 -1.5 13.6875 -4 15 C-2.125 10.125 -2.125 10.125 -1 9 C-0.76807135 7.48530552 -0.58784762 5.96245438 -0.4375 4.4375 C-0.35371094 3.61121094 -0.26992188 2.78492188 -0.18359375 1.93359375 C-0.12300781 1.29550781 -0.06242188 0.65742187 0 0 Z " fill="#AD1D1C" transform="translate(947,1260)"/>
</svg>
