<?xml version="1.0" encoding="UTF-8"?>
<svg version="1.1" xmlns="http://www.w3.org/2000/svg" width="2048" height="2048">
<path d="M0 0 C675.84 0 1351.68 0 2048 0 C2048 675.84 2048 1351.68 2048 2048 C1372.16 2048 696.32 2048 0 2048 C0 1372.16 0 696.32 0 0 Z " fill="#DC9C9C" transform="translate(0,0)"/>
<path d="M0 0 C16.01720985 -0.52338666 31.38561221 -0.89218745 44.29394531 10.09423828 C46.54394531 12.46923828 46.54394531 12.46923828 48.29394531 15.09423828 C48.70257812 15.65626953 49.11121094 16.21830078 49.53222656 16.79736328 C52.76141824 21.48397775 54.26443785 25.9795439 55.61035156 31.48486328 C56.50322386 34.8930844 57.84658548 37.88487517 59.29394531 41.09423828 C66.89666926 62.69082064 70.61834559 86.16810825 74.26074219 108.69116211 C76.13754277 120.28364159 78.16907696 131.84591913 80.23144531 143.40673828 C80.49248047 144.87247787 80.49248047 144.87247787 80.75878906 146.36782837 C82.41459 155.66206517 84.07757422 164.9547889 85.79003906 174.23876953 C88.85393049 190.85220546 91.72116687 207.49069327 94.51760864 224.15133667 C94.73254974 225.4318692 94.94749084 226.71240173 95.16894531 228.03173828 C95.38300018 229.30719513 95.59705505 230.58265198 95.81759644 231.89675903 C98.88960669 250.16808004 102.13121939 268.39424387 105.69384766 286.57641602 C105.99696587 288.12528227 106.29986931 289.67419058 106.60253906 291.22314453 C106.74510132 291.9525676 106.88766357 292.68199066 107.0345459 293.43351746 C108.61788074 301.62601866 109.96423574 309.85737527 111.29394531 318.09423828 C113.76379211 313.43164944 115.14145988 308.50222729 116.66894531 303.46923828 C116.98275146 302.43887451 117.29655762 301.40851074 117.61987305 300.34692383 C119.64665078 293.57019713 121.35265286 286.79989252 122.77348709 279.87379837 C123.91338586 274.45937132 125.4100216 269.22359165 127.05859375 263.94482422 C130.42039825 252.94514737 133.23626148 241.83535823 135.99707031 230.67236328 C136.52462378 228.55464362 137.05260878 226.43703142 137.58099365 224.31951904 C138.96222488 218.77947972 140.33782307 213.23805767 141.71209717 207.69628906 C143.07851976 202.19009427 144.4500547 196.68517387 145.82128906 191.18017578 C147.69901951 183.64008253 149.57492223 176.09953953 151.44834328 168.5583744 C153.69774988 159.50422013 155.95232897 150.45140081 158.21826172 141.40136719 C158.44885033 140.48025398 158.67943893 139.55914078 158.91701508 138.61011505 C159.9884236 134.3311254 161.06080224 130.05238189 162.13458252 125.77398682 C164.56357822 116.08535174 166.92665332 106.38458075 169.16113281 96.64892578 C170.0582676 92.88690038 171.12561528 89.18587568 172.20800781 85.47314453 C174.33977054 78.09069078 176.09314089 70.64836535 177.79394531 63.15673828 C186.50244269 25.35684077 186.50244269 25.35684077 197.29394531 18.09423828 C214.83121726 7.97676246 229.40171837 6.46846739 249.16894531 10.28173828 C250.21421387 10.47775635 251.25948242 10.67377441 252.33642578 10.87573242 C266.27877646 13.76184551 278.14318577 20.71805355 286.52783203 32.41601562 C292.90773783 42.81063643 289.90589256 57.84966855 287.29394531 69.09423828 C286.90438279 70.98753074 286.51536751 72.88093582 286.12670898 74.77441406 C283.64675026 86.36608272 280.66851427 97.8408207 277.78222656 109.33642578 C277.13445989 111.92374554 276.48688334 114.51111216 275.83955383 117.09854126 C274.47155541 122.56501623 273.10189652 128.03107277 271.73101807 133.49682617 C269.77635959 141.29017199 267.82434522 149.08417814 265.87307405 156.87837267 C263.08503491 168.01486519 260.29570293 179.1510331 257.50504065 190.28686857 C254.33337403 202.94310226 251.16456804 215.60004611 248.00097656 228.25830078 C247.8164134 228.99674477 247.63185024 229.73518875 247.44169426 230.49600983 C245.95376418 236.44948066 244.4663609 242.40308305 242.97897339 248.35668945 C242.09970245 251.87600492 241.22031736 255.39529181 240.34082031 258.91455078 C240.07552017 259.97615417 239.81022003 261.03775757 239.53688049 262.13153076 C238.10012288 267.87810699 236.6591091 273.62358802 235.212677 279.36773682 C234.38152952 282.66848092 233.55193595 285.96961482 232.72235107 289.27075195 C232.21770085 291.2755497 231.71031485 293.27965828 231.20263672 295.28369141 C229.47336136 302.16394095 227.8377285 309.05808271 226.26141357 315.97476196 C222.74026774 331.41691106 218.87255909 346.75782781 214.91894531 362.09423828 C213.95902616 365.82169151 213.00005967 369.54937746 212.04403687 373.27783203 C211.45655007 375.56879708 210.86681959 377.85918823 210.27456665 380.14892578 C210.01364227 381.16599609 209.7527179 382.18306641 209.48388672 383.23095703 C209.25327545 384.12516357 209.02266418 385.01937012 208.7850647 385.94067383 C208.21983157 388.05108551 208.21983157 388.05108551 208.29394531 390.09423828 C209.94394531 390.09423828 211.59394531 390.09423828 213.29394531 390.09423828 C213.62394531 391.41423828 213.95394531 392.73423828 214.29394531 394.09423828 C214.95394531 394.09423828 215.61394531 394.09423828 216.29394531 394.09423828 C216.29394531 394.75423828 216.29394531 395.41423828 216.29394531 396.09423828 C217.17171631 396.04227295 218.0494873 395.99030762 218.95385742 395.93676758 C222.61382365 396.10931916 224.53146 396.89269919 227.73535156 398.61376953 C228.73115234 399.14164063 229.72695312 399.66951172 230.75292969 400.21337891 C231.77708984 400.7721875 232.80125 401.33099609 233.85644531 401.90673828 C234.88447266 402.45394531 235.9125 403.00115234 236.97167969 403.56494141 C241.47998868 405.97541122 245.91276348 408.46011601 250.29394531 411.09423828 C251.79301273 411.93237918 253.29698556 412.76180492 254.80566406 413.58251953 C255.64677734 414.04207031 256.48789063 414.50162109 257.35449219 414.97509766 C259.0858117 415.91863461 260.8175724 416.86136252 262.54980469 417.80322266 C268.55758584 421.08808551 274.44454329 424.53587566 280.29394531 428.09423828 C293.93388495 436.37706284 307.49070528 444.09689875 322.20019531 450.32470703 C329.8411268 453.56217963 329.8411268 453.56217963 332.29394531 457.09423828 C333.72527287 462.25802769 334.78817924 467.42359756 335.60644531 472.71923828 C335.72834229 473.4979126 335.85023926 474.27658691 335.97583008 475.07885742 C337.61831054 485.85968235 338.9695367 496.68285342 340.37817383 507.49609375 C341.71969489 517.78570901 343.09219329 528.0695192 344.54394531 538.34423828 C344.70693115 539.515271 344.86991699 540.68630371 345.0378418 541.89282227 C345.18938721 542.9544458 345.34093262 544.01606934 345.49707031 545.10986328 C345.69284668 546.49093262 345.69284668 546.49093262 345.89257812 547.89990234 C346.19472996 550.12829501 346.19472996 550.12829501 347.29394531 552.09423828 C347.41909459 554.07043276 347.46967291 556.05162001 347.48144531 558.03173828 C347.495625 559.09263672 347.50980469 560.15353516 347.52441406 561.24658203 C346.93928537 571.01525599 344.33624833 579.23145458 340.41894531 588.15673828 C339.54593011 590.18902441 338.67352765 592.22157388 337.80175781 594.25439453 C337.37894531 595.23311523 336.95613281 596.21183594 336.52050781 597.22021484 C333.84740685 603.48369902 331.3448835 609.80948189 329.04394531 616.21923828 C328.70878906 617.14994141 328.37363281 618.08064453 328.02832031 619.03955078 C327.78597656 619.71759766 327.54363281 620.39564453 327.29394531 621.09423828 C326.63394531 621.09423828 325.97394531 621.09423828 325.29394531 621.09423828 C324.92269531 622.33173828 324.55144531 623.56923828 324.16894531 624.84423828 C322.1706142 630.89715427 319.24092689 636.45777837 316.29394531 642.09423828 C315.63394531 642.09423828 314.97394531 642.09423828 314.29394531 642.09423828 C314.02582031 642.79548828 313.75769531 643.49673828 313.48144531 644.21923828 C312.22580041 647.25922068 310.79159408 650.16701568 309.29394531 653.09423828 C308.63394531 653.09423828 307.97394531 653.09423828 307.29394531 653.09423828 C307.12894531 654.02236328 306.96394531 654.95048828 306.79394531 655.90673828 C305.41946135 660.88542463 302.18394077 664.61098919 299.07128906 668.64111328 C297.14437902 671.04205994 297.14437902 671.04205994 296.29394531 674.09423828 C294.66228282 675.45395703 293.02958719 676.81245587 291.39160156 678.16455078 C286.06119615 683.06812671 281.70862305 689.06615152 277.54394531 694.96923828 C274.10150746 699.6768456 269.86792688 703.64748594 265.69921875 707.703125 C262.61102482 710.60005781 262.61102482 710.60005781 260.29394531 714.09423828 C258.65031398 714.81583253 256.98344145 715.48775249 255.29394531 716.09423828 C255.20109728 725.80091813 255.49384357 735.48212752 255.84472656 745.18017578 C255.9039602 746.85537292 255.96306946 748.53057446 256.02206421 750.20578003 C256.18090688 754.69544292 256.34285937 759.18498878 256.50551987 763.67451477 C256.60688836 766.4815067 256.70713066 769.28853674 256.80703735 772.09558105 C257.5196347 792.09576092 258.26827339 812.09340761 259.16113281 832.08642578 C259.21335401 833.2627891 259.21335401 833.2627891 259.26663017 834.46291733 C259.5944729 841.8474604 259.92657247 849.23171026 260.28185558 856.61498833 C261.19865312 875.79434507 261.45824096 894.8972846 261.29394531 914.09423828 C260.63394531 914.09423828 259.97394531 914.09423828 259.29394531 914.09423828 C259.20113281 915.88861328 259.20113281 915.88861328 259.10644531 917.71923828 C258.6207555 921.57777402 257.42542463 923.5682885 254.72363281 926.43798828 C253.08802336 928.33279267 251.96003074 930.28831741 250.73144531 932.46923828 C247.48445962 938.05236692 243.607748 943.06898446 239.69165039 948.18920898 C236.31800363 952.63343616 233.35365965 957.15121675 230.57910156 961.99658203 C228.91237272 964.71704826 226.9800774 967.03818738 224.82910156 969.38720703 C223.25514347 971.08600617 223.25514347 971.08600617 221.85253906 973.02001953 C213.57023834 983.71020718 200.81288609 988.10868502 188.21826172 991.55615234 C186.41379192 992.06072624 184.62448299 992.61865695 182.83691406 993.18017578 C173.1238643 996.18794206 163.35683192 997.81644191 153.29394531 999.09423828 C152.47974121 999.20010254 151.66553711 999.3059668 150.82666016 999.41503906 C122.38430816 1002.93477315 92.74509161 1002.05846332 64.29394531 999.09423828 C62.72338379 998.9335083 62.72338379 998.9335083 61.12109375 998.76953125 C44.15651296 996.97925982 27.8473809 993.90649929 11.50488281 989.02392578 C9.16065097 988.34518225 6.78739743 987.76449186 4.40332031 987.24267578 C-0.08877456 986.12740443 -3.83711611 984.14199579 -7.83105469 981.84423828 C-8.58878174 981.41385254 -9.34650879 980.9834668 -10.12719727 980.54003906 C-16.62211674 976.80449337 -23.02959 972.9231114 -29.39355469 968.96923828 C-30.31346191 968.40817383 -31.23336914 967.84710937 -32.18115234 967.26904297 C-40.88560571 961.76628269 -46.44644143 954.92449587 -51.95605469 946.34423828 C-52.79358143 945.05711897 -53.63209555 943.77064151 -54.47167969 942.48486328 C-54.83036133 941.92831055 -55.18904297 941.37175781 -55.55859375 940.79833984 C-56.70785044 939.02698005 -56.70785044 939.02698005 -58.2383709 937.26825714 C-59.880705 934.83553605 -60.15082574 933.50455057 -60.3364563 930.60583496 C-60.43294905 929.25539345 -60.43294905 929.25539345 -60.53139114 927.87767029 C-60.58790218 926.89146194 -60.64441322 925.9052536 -60.70263672 924.88916016 C-60.80930727 923.31038841 -60.80930727 923.31038841 -60.91813278 921.69972229 C-61.15439736 918.15485388 -61.371294 914.6090492 -61.58886719 911.06298828 C-61.75548897 908.52249901 -61.92341966 905.9820953 -62.09255981 903.44177246 C-62.84744874 892.00386172 -63.55358144 880.56293088 -64.26208496 869.12207031 C-64.40365025 866.83694679 -64.54525122 864.5518255 -64.68691969 862.26670837 C-64.78263969 860.72271583 -64.87830083 859.17871963 -64.97390413 857.63471985 C-65.81027771 844.14288691 -66.69370797 830.6545112 -67.61141586 817.16796875 C-68.16689898 808.97806727 -68.695409 800.78779579 -69.16992188 792.59277344 C-69.59410255 785.26891379 -70.06508345 777.94980619 -70.59213459 770.63260412 C-70.86597617 766.80846495 -71.11731896 762.98610727 -71.31093979 759.15699768 C-71.21148082 742.99602669 -71.21148082 742.99602669 -77.87677002 729.37768555 C-81.2186064 726.95013343 -84.87611443 725.60989487 -88.70605469 724.09423828 C-91.97313183 721.31893281 -94.81714403 718.25533752 -97.70605469 715.09423828 C-98.61355469 714.20736328 -99.52105469 713.32048828 -100.45605469 712.40673828 C-103.03349017 709.75770737 -105.34649855 706.93780593 -107.70605469 704.09423828 C-108.32867188 703.48966797 -108.95128906 702.88509766 -109.59277344 702.26220703 C-111.97711347 699.81616504 -113.9465336 697.2304691 -115.95605469 694.46923828 C-116.66246094 693.50759766 -117.36886719 692.54595703 -118.09667969 691.55517578 C-119.70605469 689.09423828 -119.70605469 689.09423828 -119.70605469 687.09423828 C-120.36605469 687.09423828 -121.02605469 687.09423828 -121.70605469 687.09423828 C-121.99738281 686.42779297 -122.28871094 685.76134766 -122.58886719 685.07470703 C-125.3030376 678.97209117 -128.26346626 673.11309 -131.56933594 667.30908203 C-132.70605469 665.09423828 -132.70605469 665.09423828 -132.70605469 663.09423828 C-133.36605469 663.09423828 -134.02605469 663.09423828 -134.70605469 663.09423828 C-134.96 662.38654297 -135.21394531 661.67884766 -135.47558594 660.94970703 C-136.82141343 657.82653275 -138.51012931 655.23742672 -140.39355469 652.40673828 C-144.23599027 646.4238442 -146.84716799 640.20846546 -149.27124023 633.53881836 C-150.85719127 629.1797688 -152.64266372 625.06185255 -154.76464844 620.9362793 C-158.24360871 614.12902948 -160.90690403 607.32516141 -162.19433594 599.78955078 C-162.78330868 596.68732794 -163.60730351 593.69838537 -164.45605469 590.65673828 C-166.45691826 583.28513565 -168.16738762 575.86124648 -169.83105469 568.40673828 C-170.08467773 567.27888916 -170.33830078 566.15104004 -170.59960938 564.98901367 C-171.32768949 561.69558127 -172.02679729 558.3980701 -172.70605469 555.09423828 C-173.00950806 553.63026611 -173.00950806 553.63026611 -173.3190918 552.13671875 C-174.85864316 543.9601278 -175.06108748 535.89625686 -175.01855469 527.59423828 C-175.01706421 526.87123535 -175.01557373 526.14823242 -175.01403809 525.40332031 C-174.81264179 470.17865273 -174.81264179 470.17865273 -166.08105469 451.64501953 C-164.10848366 446.551079 -163.65023663 442.71007494 -165.68457031 437.66992188 C-167.03021716 434.98934843 -168.46594807 432.38468533 -169.95605469 429.78173828 C-173.48597074 423.50478782 -176.49498576 417.44559555 -178.72802734 410.58251953 C-179.78775763 407.88637097 -181.14935967 405.75808313 -182.83105469 403.40673828 C-185.26721115 399.98032371 -186.35340589 397.28331679 -187.15136719 393.19580078 C-188.07162901 389.70917499 -189.81911917 386.65404734 -191.47949219 383.46923828 C-193.05887995 380.41106071 -194.37847224 377.26889195 -195.70605469 374.09423828 C-196.36705012 372.55013155 -197.03402205 371.00857343 -197.70605469 369.46923828 C-198.04121094 368.70095703 -198.37636719 367.93267578 -198.72167969 367.14111328 C-199.69459855 364.95588257 -199.69459855 364.95588257 -201.45605469 362.71923828 C-204.10609531 357.15415297 -203.32586169 350.40394446 -201.64355469 344.59423828 C-196.72556755 331.761723 -187.31509576 319.78112557 -174.70605469 314.09423828 C-173.00449219 313.25892578 -173.00449219 313.25892578 -171.26855469 312.40673828 C-162.76801831 309.27496172 -154.71327457 308.81566447 -145.70605469 309.09423828 C-145.72925781 308.47677734 -145.75246094 307.85931641 -145.77636719 307.22314453 C-146.057339 294.03753876 -142.3898082 283.75827075 -133.26855469 273.96923828 C-122.44347737 263.7464585 -108.52962469 256.02359304 -93.45605469 255.71923828 C-82.6432187 256.0990525 -74.25934573 258.93594567 -66.70605469 267.03173828 C-57.64940975 278.68593568 -51.26632874 292.48532047 -44.64355469 305.59423828 C-42.94657627 308.93912896 -41.24659684 312.28248774 -39.54589844 315.62548828 C-39.13620819 316.43203857 -38.72651794 317.23858887 -38.30441284 318.06958008 C-35.10006296 324.36255543 -31.8009282 330.59975505 -28.44848633 336.81494141 C-26.64148901 340.21575239 -24.91517478 343.64333007 -23.20605469 347.09423828 C-19.42645244 354.70931208 -15.54906374 362.27309785 -11.65258789 369.82885742 C-10.94784428 371.19547234 -10.24356661 372.56232767 -9.53979492 373.92944336 C-8.53155324 375.88746746 -7.52171447 377.844654 -6.51074219 379.80126953 C-6.18801331 380.42607208 -5.86528442 381.05087463 -5.53277588 381.6946106 C-3.02730778 386.5236508 -0.41600287 391.28870322 2.25830078 396.02661133 C3.29394531 398.09423828 3.29394531 398.09423828 3.29394531 400.09423828 C3.95394531 400.09423828 4.61394531 400.09423828 5.29394531 400.09423828 C2.48100449 385.8281542 -0.33543391 371.56276429 -3.15594959 357.29817581 C-4.46571102 350.67371529 -5.77436033 344.04903883 -7.08032227 337.42382812 C-8.34192692 331.02366104 -9.60672256 324.6241293 -10.87341881 318.22496796 C-11.3548607 315.79010413 -11.8352541 313.35503274 -12.31455421 310.9197464 C-12.98886439 307.49459841 -13.66698474 304.07022445 -14.34594727 300.64599609 C-14.54087769 299.65120743 -14.73580811 298.65641876 -14.93664551 297.63148499 C-15.92031622 292.69083061 -17.01189798 287.8058804 -18.26506042 282.92610168 C-19.50751915 278.04582312 -20.4211216 273.21556097 -21.12207031 268.23266602 C-22.74996211 257.37685974 -24.88455223 246.63876247 -27.04980469 235.87939453 C-27.46456755 233.80542468 -27.87907233 231.7314032 -28.29333496 229.65733337 C-29.15486879 225.34829243 -30.01903839 221.03979164 -30.88525391 216.73168945 C-31.98923056 211.2403071 -33.08716383 205.7477374 -34.18321991 200.25476933 C-35.03554725 195.98614714 -35.89072634 191.71810015 -36.7467804 187.45022392 C-37.15260074 185.42560027 -37.55763802 183.40081947 -37.96183777 181.37587166 C-39.8266291 172.04222004 -41.71764527 162.75466064 -44.10858154 153.53877258 C-44.99049252 149.93047379 -45.53274626 146.3055585 -46.04199219 142.62939453 C-47.80945753 130.7652739 -50.20601509 119.02779317 -52.57714844 107.2722168 C-53.34144512 103.48018654 -54.09833877 99.686728 -54.85449219 95.89306641 C-55.33843663 93.47956858 -55.82279572 91.06615384 -56.30761719 88.65283203 C-56.53365631 87.51970078 -56.75969543 86.38656952 -56.99258423 85.21910095 C-57.30828873 83.65960472 -57.30828873 83.65960472 -57.63037109 82.06860352 C-57.90658798 80.69562355 -57.90658798 80.69562355 -58.18838501 79.29490662 C-58.62288633 77.06847266 -58.62288633 77.06847266 -59.70605469 75.09423828 C-59.94916306 71.60001507 -59.89126897 68.09596511 -59.89355469 64.59423828 C-59.90580078 63.63775391 -59.91804687 62.68126953 -59.93066406 61.69580078 C-59.96882242 42.92188813 -51.80257813 27.6332637 -39.20605469 13.96923828 C-34.9604738 10.07914862 -29.8359853 7.61548259 -24.70605469 5.09423828 C-23.96355469 4.68947266 -23.22105469 4.28470703 -22.45605469 3.86767578 C-15.21927788 0.16946999 -7.93958263 0.27649575 0 0 Z M-22.70605469 18.09423828 C-23.80240234 18.72458984 -23.80240234 18.72458984 -24.92089844 19.36767578 C-37.93035422 27.27852235 -45.96375034 39.86732523 -50.70605469 54.09423828 C-50.89732225 58.7808712 -50.49449176 63.01203123 -49.5637207 67.60058594 C-49.1863678 69.48655739 -49.1863678 69.48655739 -48.8013916 71.41062927 C-48.52103691 72.77654486 -48.24055635 74.14243462 -47.95996094 75.50830078 C-47.67001477 76.94491202 -47.38068101 78.38164698 -47.09191895 79.8184967 C-46.31849343 83.65872392 -45.53696012 87.4972593 -44.75392532 91.33553696 C-43.94122849 95.32676837 -43.13628631 99.31956205 -42.33081055 103.31225586 C-41.04909069 109.66197885 -39.76370258 116.01094678 -38.47558594 122.359375 C-36.3993683 132.59480041 -34.35009668 142.8355522 -32.30776978 153.07778931 C-31.42482778 157.50539185 -30.54027019 161.93267104 -29.65527344 166.35986328 C-29.49016769 167.1859761 -29.32506195 168.01208893 -29.154953 168.86323547 C-28.06098616 174.33238894 -26.95772747 179.79961356 -25.85058594 185.26611328 C-22.6708668 200.98939367 -19.63744423 216.73036363 -16.76599121 232.51300049 C-14.7348521 243.66904476 -12.59134234 254.79497565 -10.33105469 265.90673828 C-8.32479943 275.77631171 -6.39682714 285.65643441 -4.58105469 295.56298828 C-4.30634087 297.06088142 -4.30634087 297.06088142 -4.02607727 298.58903503 C-3.07197654 303.80766631 -2.13033145 309.02827559 -1.20288086 314.25170898 C0.59156973 324.28826008 2.49979474 334.25036924 4.86816406 344.16845703 C10.33051319 367.54285694 12.09982461 389.98277576 11.98144531 413.90673828 C11.97841022 414.62958008 11.97537514 415.35242188 11.97224808 416.09716797 C11.94818697 420.93680991 11.88793342 425.77475939 11.80566406 430.61376953 C11.78734528 431.84303665 11.76902649 433.07230377 11.75015259 434.33882141 C11.40522877 448.30957728 8.04144188 460.02708671 -1.83105469 470.36767578 C-8.7160586 476.70761688 -14.82382411 477.76600473 -23.96655273 477.61816406 C-33.88867536 477.17058052 -42.52436632 474.13662665 -49.70605469 467.09423828 C-56.9371828 458.76801144 -61.88091904 448.22685487 -67.26220703 438.65722656 C-69.3099018 435.0223433 -71.38201777 431.40163233 -73.45605469 427.78173828 C-74.53938802 425.88590495 -75.62272135 423.99007161 -76.70605469 422.09423828 C-78.09928099 425.13370189 -78.09928099 425.13370189 -76.33496094 428.07080078 C-75.6544404 429.29160002 -74.96496954 430.50743576 -74.26855469 431.71923828 C-71.116874 437.4071412 -68.15780161 443.14521859 -65.39355469 449.03173828 C-65.0687915 449.7163916 -64.74402832 450.40104492 -64.40942383 451.10644531 C-62.86192024 454.41811102 -61.44464912 457.72753928 -60.19824219 461.16455078 C-58.80848716 464.96062806 -57.03618947 468.45588343 -55.14355469 472.03173828 C-51.43901211 479.23988409 -48.30002091 486.6434037 -45.26855469 494.15673828 C-44.83148193 495.22722412 -44.39440918 496.29770996 -43.9440918 497.40063477 C-40.13989582 506.96794307 -37.38832925 517.10836582 -41.62011719 527.02783203 C-46.32887044 535.98801358 -53.10855039 541.01651762 -61.70605469 546.09423828 C-62.40859375 546.51705078 -63.11113281 546.93986328 -63.83496094 547.37548828 C-74.63541362 553.32813861 -88.73242405 555.3492099 -100.73730469 552.33251953 C-103.20341907 551.39287053 -105.41652299 550.4048536 -107.70605469 549.09423828 C-108.6624585 548.54896484 -109.6188623 548.00369141 -110.60424805 547.44189453 C-114.10392625 544.79310228 -115.71751811 542.13840046 -117.54589844 538.26611328 C-117.87594376 537.59944641 -118.20598907 536.93277954 -118.54603577 536.24591064 C-119.59379327 534.11910359 -120.61847887 531.98205291 -121.64355469 529.84423828 C-122.32639717 528.45552704 -123.01063219 527.06749962 -123.69628906 525.68017578 C-127.44529765 518.04532488 -130.95244908 510.32735081 -134.32145691 502.5181427 C-136.60274612 497.2558333 -139.15587922 492.27133977 -141.94042969 487.26025391 C-144.12834755 483.27700829 -145.968532 479.28619846 -147.70605469 475.09423828 C-148.22167969 473.91861328 -148.73730469 472.74298828 -149.26855469 471.53173828 C-150.57061536 468.41811494 -151.68650525 465.30974034 -152.70605469 462.09423828 C-154.02605469 462.42423828 -155.34605469 462.75423828 -156.70605469 463.09423828 C-156.70605469 466.72423828 -156.70605469 470.35423828 -156.70605469 474.09423828 C-157.36605469 474.09423828 -158.02605469 474.09423828 -158.70605469 474.09423828 C-169.03268164 505.07411914 -162.39162206 549.32490408 -155.76855469 580.40673828 C-155.59356445 581.22972412 -155.41857422 582.05270996 -155.23828125 582.90063477 C-154.72810202 585.27600836 -154.20596067 587.64838217 -153.67871094 590.02001953 C-153.52551895 590.72967361 -153.37232697 591.4393277 -153.2144928 592.17048645 C-152.17311282 596.75923242 -150.65867004 600.81166475 -148.70605469 605.09423828 C-148.23560975 606.36063805 -147.77464872 607.63068533 -147.33105469 608.90673828 C-146.21781449 611.93498235 -144.89131329 614.73749103 -143.39355469 617.59423828 C-141.14977507 621.94784053 -139.47082602 626.36747419 -137.83105469 630.96923828 C-134.99619312 638.84158767 -131.45127489 646.36083333 -126.22558594 652.96533203 C-124.11716423 655.91929046 -122.64474796 659.14555562 -121.08105469 662.40673828 C-109.38951454 686.10880164 -93.51550111 709.29500645 -69.92089844 722.28955078 C-66.70605469 724.09423828 -66.70605469 724.09423828 -64.57714844 725.70751953 C-61.04345986 728.32643278 -56.79720792 729.56331311 -52.70605469 731.09423828 C-51.15917969 731.71298828 -51.15917969 731.71298828 -49.58105469 732.34423828 C-45.83447276 733.32160748 -42.5720707 733.22754918 -38.70605469 733.09423828 C-38.70605469 732.43423828 -38.70605469 731.77423828 -38.70605469 731.09423828 C-31.83105469 732.96923828 -31.83105469 732.96923828 -30.70605469 734.09423828 C-30.43290654 739.83034939 -30.43290654 739.83034939 -30.70605469 742.09423828 C-33.30995917 744.69814277 -34.45475535 744.39246151 -38.08105469 744.40673828 C-46.75472697 744.27121215 -54.54720853 741.82795224 -62.70605469 739.09423828 C-62.1837467 758.62555382 -60.68269623 778.02767562 -59.03512955 797.48747253 C-58.41086045 804.88805504 -57.80295572 812.29001164 -57.19433594 819.69189453 C-57.12791838 820.49788464 -57.06150082 821.30387474 -56.9930706 822.13428879 C-55.87726745 835.69662835 -54.89042192 849.26389048 -54.01855469 862.84423828 C-53.16916213 876.05542484 -52.13293911 889.21482454 -50.67651367 902.37451172 C-50.03700633 908.22498846 -49.62677041 913.9527584 -49.60229492 919.83642578 C-49.51403842 929.21799009 -46.79407768 935.14023431 -40.98828125 942.4387207 C-39.70605469 944.09423828 -39.70605469 944.09423828 -38.43164062 946.02514648 C-34.38072916 952.0046191 -29.46125312 955.33433392 -23.33105469 959.03173828 C-21.85741455 959.93678101 -21.85741455 959.93678101 -20.35400391 960.86010742 C-18.38096281 962.06560429 -16.40333251 963.2636263 -14.42089844 964.45361328 C-12.10621583 965.85241428 -9.82466169 967.28840454 -7.54980469 968.75048828 C3.56523571 975.69684742 15.65977042 978.93730414 28.29394531 982.09423828 C29.11233887 982.30419434 29.93073242 982.51415039 30.77392578 982.73046875 C45.37835752 986.40873689 60.32543019 987.7431058 75.29394531 989.09423828 C76.28048096 989.19212646 77.2670166 989.29001465 78.28344727 989.39086914 C88.7510933 990.33878345 99.22986962 990.29462798 109.73144531 990.28173828 C110.71293549 990.2808017 111.69442566 990.27986511 112.70565796 990.27890015 C164.93275239 990.32850538 164.93275239 990.32850538 210.79492188 968.61132812 C214.68154753 964.18158768 218.11640681 959.38217546 221.54394531 954.59423828 C222.10678223 953.81177734 222.66961914 953.02931641 223.24951172 952.22314453 C227.66350966 946.05279794 231.90351511 939.78018654 236.07128906 933.44189453 C238.05986333 930.42430382 240.13161671 927.47325184 242.23144531 924.53173828 C244.60932429 921.17703109 246.52619555 917.81581673 248.29394531 914.09423828 C248.95394531 913.43423828 249.61394531 912.77423828 250.29394531 912.09423828 C250.59506715 909.69805149 250.59506715 909.69805149 250.53540039 906.86982727 C250.53585861 905.7618513 250.53631683 904.65387533 250.53678894 903.51232433 C250.52497086 902.28936814 250.51315277 901.06641195 250.50097656 899.80639648 C250.49068169 897.87411556 250.49068169 897.87411556 250.48017883 895.90279865 C250.36280881 880.00909345 249.71551298 864.12876667 249.08237076 848.24901748 C248.9101349 843.89845293 248.74439667 839.54764019 248.57788086 835.19685364 C248.26358499 827.00947087 247.94369934 818.82231713 247.62164974 810.63523608 C247.25443355 801.29271254 246.89368566 791.94994244 246.53339958 782.60714948 C245.79395797 763.43590223 245.04665826 744.26496883 244.29394531 725.09423828 C241.25050999 726.56059199 238.88283456 728.16721777 236.29394531 730.34423828 C229.69201973 735.54939283 222.0125284 740.97453782 213.29394531 740.09423828 C212.30394531 739.43423828 211.31394531 738.77423828 210.29394531 738.09423828 C210.10644531 735.46923828 210.10644531 735.46923828 210.29394531 733.09423828 C213.71191406 731.14111328 217.12988281 729.18798828 220.54785156 727.23486328 C221.16732666 726.8786792 221.78680176 726.52249512 222.42504883 726.15551758 C223.65234115 725.45858228 224.88712741 724.77465048 226.12963867 724.10522461 C230.16183574 721.9061945 233.39680837 719.42808963 236.73144531 716.28173828 C239.83294905 713.38644035 242.92933313 710.52136804 246.16894531 707.78173828 C253.16152838 701.71570866 259.52636142 694.92128189 266.01660156 688.32861328 C268.29394531 686.09423828 268.29394531 686.09423828 271.04394531 683.96923828 C275.84693406 680.04288758 279.47283106 674.93922378 283.29394531 670.09423828 C284.22787109 668.94181641 284.22787109 668.94181641 285.18066406 667.76611328 C289.67941525 662.14520168 293.51087794 656.21293855 297.29394531 650.09423828 C297.88691406 649.17642578 298.47988281 648.25861328 299.09082031 647.31298828 C311.57427154 627.71087478 321.01124679 606.65888573 329.20019531 584.96923828 C330.57328641 581.35997025 332.02772078 577.78633315 333.49707031 574.21533203 C338.23562247 561.60242113 335.09576762 545.86938662 332.29394531 533.09423828 C331.96394531 532.76423828 331.63394531 532.43423828 331.29394531 532.09423828 C331.03647293 530.7373505 330.83647225 529.36946724 330.66137695 527.99951172 C330.54778336 527.12639343 330.43418976 526.25327515 330.31715393 525.35369873 C330.19734665 524.39667053 330.07753937 523.43964233 329.95410156 522.45361328 C329.7635746 520.96562225 329.7635746 520.96562225 329.56919861 519.4475708 C329.29902025 517.32924328 329.03098818 515.21064112 328.76489258 513.09179688 C328.36679145 509.92650028 327.96085637 506.76228882 327.55371094 503.59814453 C327.29088663 501.5291918 327.02851575 499.46018142 326.76660156 497.39111328 C326.63513229 496.36784439 326.50366302 495.3445755 326.36820984 494.29029846 C325.73146479 489.19611153 325.19730346 484.12394627 324.86547852 479.00024414 C324.797556 478.03793884 324.72963348 477.07563354 324.65965271 476.08416748 C324.5389647 474.27358001 324.44134243 472.46125119 324.37098694 470.64801025 C324.01427692 465.43505264 324.01427692 465.43505264 320.47485352 461.61938477 C317.13297202 460.0519212 313.84893865 459.07355335 310.29394531 458.09423828 C308.51364114 457.21564661 306.76080867 456.27862668 305.04394531 455.28173828 C301.81193287 453.47727653 298.56928391 451.70581971 295.28613281 449.99658203 C287.39163091 445.88419281 279.71716832 441.61774858 272.17285156 436.88720703 C264.64906878 432.03768103 264.64906878 432.03768103 256.29394531 429.09423828 C256.29394531 428.43423828 256.29394531 427.77423828 256.29394531 427.09423828 C255.10929687 426.68044922 253.92464844 426.26666016 252.70410156 425.84033203 C248.73748957 424.34991608 245.31824727 422.43077919 241.73144531 420.15673828 C222.25729426 408.18529745 205.07492707 398.92271476 181.91894531 398.59423828 C180.81252686 398.57522461 179.7061084 398.55621094 178.56616211 398.53662109 C171.80267738 398.59177901 166.05552334 399.3276643 160.29394531 403.09423828 C153.26091853 411.70969609 153.68132573 424.090707 154.49853516 434.76708984 C156.3734555 450.73819191 161.65445222 468.69092195 173.39550781 480.22314453 C175.45023575 482.24827762 177.0858857 484.39674094 178.79394531 486.71923828 C182.18555303 491.13139764 185.9100434 494.6781034 190.29394531 498.09423828 C190.93589844 498.59568359 191.57785156 499.09712891 192.23925781 499.61376953 C199.28487377 504.69036354 207.30853353 507.82035572 215.29394531 511.09423828 C216.07769531 511.41682617 216.86144531 511.73941406 217.66894531 512.07177734 C227.5973013 516.14097132 237.59604782 519.97956487 247.67822266 523.6496582 C255.3560925 526.45512747 263.01205354 529.36036802 270.29394531 533.09423828 C270.41894531 535.46923828 270.41894531 535.46923828 270.29394531 538.09423828 C269.63394531 538.75423828 268.97394531 539.41423828 268.29394531 540.09423828 C261.67577121 539.88074879 256.164321 538.17581861 249.99316406 535.83642578 C247.16767237 535.05951779 245.9217191 534.82645268 243.29394531 536.09423828 C242.03928768 537.79588797 242.03928768 537.79588797 241.10644531 539.96923828 C230.01503919 561.05290217 207.75325984 573.25934948 187.29394531 583.78173828 C176.04769931 589.5947064 163.77723916 597.70264497 159.29394531 610.09423828 C158.27556154 612.37311216 157.23804272 614.64237336 156.19628906 616.91064453 C154.66907334 620.60637435 154.15573917 623.78687999 154.16894531 627.78173828 C154.16507813 628.96316406 154.16507813 628.96316406 154.16113281 630.16845703 C154.08266754 632.10188742 154.08266754 632.10188742 155.29394531 633.09423828 C155.66894531 635.40673828 155.66894531 635.40673828 155.29394531 638.09423828 C151.93749522 641.64812661 149.10674493 642.64653599 144.29394531 643.09423828 C140.04105235 630.33555941 144.61748983 612.71380011 150.12597656 600.88330078 C155.28598824 590.87753377 161.66272507 585.03921106 171.73535156 580.33251953 C174.2971449 579.09268978 176.68217247 577.70837832 179.10644531 576.21923828 C182.93730082 573.87381654 186.8286446 571.70472658 190.79394531 569.59423828 C200.22216272 564.5327742 208.51995648 559.32889096 216.62988281 552.36376953 C219.29394531 550.09423828 219.29394531 550.09423828 221.64550781 548.41845703 C222.46148438 547.76296875 222.46148438 547.76296875 223.29394531 547.09423828 C223.29394531 546.43423828 223.29394531 545.77423828 223.29394531 545.09423828 C223.95394531 545.09423828 224.61394531 545.09423828 225.29394531 545.09423828 C226.74588896 543.21370886 228.10759136 541.26286979 229.41894531 539.28173828 C230.14339844 538.20279297 230.86785156 537.12384766 231.61425781 536.01220703 C233.54338793 533.22205118 233.54338793 533.22205118 233.29394531 530.09423828 C232.64546631 529.83320312 231.9969873 529.57216797 231.32885742 529.30322266 C203.65816285 518.11245393 177.21086252 505.56853494 159.421875 480.67236328 C158.46783953 479.33753963 157.4819166 478.02559444 156.48925781 476.71923828 C151.15171547 468.97565354 149.24306017 459.53298526 146.92822266 450.54394531 C146.39381238 448.47994505 145.82616409 446.4245922 145.25097656 444.37158203 C141.30913574 429.437002 141.95786679 411.95127549 149.29394531 398.09423828 C153.09017141 393.27200513 157.66450775 390.72221643 163.66870117 389.68334961 C166.31289409 389.38853817 168.9530095 389.1635315 171.60644531 388.96923828 C173.39422352 388.82101522 175.18198401 388.67257833 176.96972656 388.52392578 C177.84193848 388.4552832 178.71415039 388.38664062 179.61279297 388.31591797 C183.84557401 387.96594846 188.06952761 387.53256218 192.29394531 387.09423828 C193.7176333 383.77081662 194.6806941 380.67027937 195.29394531 377.10986328 C195.45894531 376.17400391 195.62394531 375.23814453 195.79394531 374.27392578 C195.95894531 373.30712891 196.12394531 372.34033203 196.29394531 371.34423828 C199.64658197 352.01419258 199.64658197 352.01419258 202.16894531 346.59423828 C204.28795058 341.52739174 205.50859284 336.34547208 206.6960907 331.00436401 C207.84150445 325.89355582 209.15450371 320.8566834 210.59082031 315.82080078 C213.42481253 305.74433998 216.02644618 295.61318595 218.60644531 285.46923828 C219.08828079 283.58127379 219.57021585 281.6933347 220.05224609 279.80541992 C223.13388801 267.72198708 226.16246549 255.62591014 229.16766357 243.52328491 C231.10056097 235.74808803 233.10072807 228.00547118 235.29589844 220.30053711 C239.24773942 206.31199181 242.7125283 192.18122517 246.29394531 178.09423828 C246.46406128 177.42579895 246.63417725 176.75735962 246.80944824 176.06866455 C254.63859528 146.31226126 254.63859528 146.31226126 260.29394531 116.09423828 C260.95394531 116.09423828 261.61394531 116.09423828 262.29394531 116.09423828 C262.3803125 115.48580078 262.46667969 114.87736328 262.55566406 114.25048828 C263.46199209 108.59633178 264.80380498 103.263779 266.57519531 97.81689453 C269.16009724 89.71799361 271.39958905 81.55058245 273.51635742 73.31811523 C274.11477009 70.99948278 274.72665969 68.68465233 275.33886719 66.36962891 C275.72705565 64.8704917 276.11445538 63.37114998 276.50097656 61.87158203 C276.6821553 61.19232162 276.86333405 60.51306122 277.05000305 59.81321716 C278.36747593 54.60467211 279.26755033 49.57250561 277.26269531 44.46923828 C269.77153259 32.35586878 258.81994587 25.57426296 245.42285156 21.14501953 C231.9281125 18.1006064 218.25001807 20.1921832 205.98535156 26.26611328 C199.46331035 30.69617901 197.31743504 35.7804159 195.23144531 43.09423828 C194.85258179 44.36098389 194.85258179 44.36098389 194.46606445 45.65332031 C193.96057884 47.35202269 193.46165511 49.05269327 192.96972656 50.75537109 C192.39482354 52.74510047 191.79964682 54.728954 191.20019531 56.71142578 C189.23588279 63.3172187 187.58574152 69.97053154 186.01123047 76.67773438 C183.38819406 87.76847253 180.64711552 98.82780047 177.87988281 109.88330078 C177.37848198 111.88958052 176.87715089 113.8958777 176.37588501 115.90219116 C175.33631271 120.06193815 174.29590948 124.22147613 173.25488281 128.38085938 C171.92754628 133.68447233 170.60234758 138.9886168 169.27776146 144.29291725 C168.24739442 148.41801185 167.21589936 152.54282376 166.18407059 156.66755295 C165.69496871 158.62329885 165.20620921 160.57913041 164.7178154 162.53505325 C160.10369613 181.00886942 160.10369613 181.00886942 157.86875916 188.96290588 C157.07549352 191.90422814 156.44066644 194.87321892 155.79931641 197.85058594 C154.85887938 202.02576286 153.71252289 206.14801704 152.60644531 210.28173828 C150.15459738 219.55854613 147.89790032 228.87185685 145.73144531 238.21923828 C145.4355249 239.49516846 145.13960449 240.77109863 144.8347168 242.08569336 C143.74488518 246.79520415 142.65788116 251.50534156 141.57861328 256.21728516 C139.46940205 265.41152159 137.2932941 274.49329586 134.37060547 283.47045898 C132.21996851 290.1420059 130.3881192 296.89506642 128.54394531 303.65673828 C125.58838201 314.47434206 122.54772372 325.26299773 119.41894531 336.03173828 C119.22594849 336.6976297 119.03295166 337.36352112 118.83410645 338.04959106 C117.07953735 344.09906219 115.31611168 350.12789629 113.29394531 356.09423828 C110.65394531 355.43423828 108.01394531 354.77423828 105.29394531 354.09423828 C105.14590454 352.93287354 105.14590454 352.93287354 104.99487305 351.74804688 C103.5460839 340.98050284 101.47522033 330.37123974 99.35644531 319.71923828 C98.96097421 317.71646304 98.56588348 315.71361265 98.17114258 313.71069336 C97.326105 309.42527585 96.4791574 305.14024201 95.63085938 300.85546875 C93.55418298 290.36078854 91.49569665 279.86253022 89.43493652 269.36471558 C88.72978123 265.7732629 88.02414191 262.18190563 87.31835938 258.59057617 C83.60928515 239.71548261 79.91983837 220.83661427 76.24121094 201.95556641 C74.77981901 194.45506494 73.31679312 186.95488219 71.85354614 179.45474243 C71.52317853 177.76136759 71.19283577 176.0679879 70.86251831 174.37460327 C68.91200254 164.3755472 66.95857934 154.37706567 65.00097656 144.37939453 C64.71228951 142.90502174 64.71228951 142.90502174 64.41777039 141.40086365 C64.22520157 140.41739456 64.03263275 139.43392548 63.83422852 138.4206543 C60.6966518 122.39660764 57.56402018 106.37173847 54.46801758 90.33959961 C53.1432004 83.47941683 51.81355984 76.62021583 50.47753906 69.76220703 C50.32186462 68.96284729 50.16619019 68.16348755 50.00579834 67.33990479 C49.08732928 62.62402888 49.08732928 62.62402888 48.16766357 57.90838623 C47.88510937 56.46055342 47.6029531 55.01264289 47.32121277 53.56465149 C47.04720919 52.15966987 46.77144744 50.75502989 46.49385071 49.35075378 C45.79374346 45.785465 45.14088975 42.21964761 44.55883789 38.63305664 C44.43659348 37.90811508 44.31434906 37.18317352 44.18840027 36.43626404 C43.85414636 34.43927957 43.53566742 32.43967296 43.21826172 30.43994141 C41.6425478 24.73640639 38.14815465 22.14586111 33.29394531 19.09423828 C32.28847656 18.43681641 31.28300781 17.77939453 30.24707031 17.10205078 C21.78835787 11.86269905 15.24726041 10.91403165 5.48144531 10.90673828 C4.63001953 10.89449219 3.77859375 10.88224609 2.90136719 10.86962891 C-6.96629325 10.84708284 -14.356434 12.89569184 -22.70605469 18.09423828 Z " fill="#A81414" transform="translate(940.7060546875,495.90576171875)"/>
<path d="M0 0 C3.81589494 3.89884918 5.65666981 8.51283708 7.890625 13.4453125 C8.93864682 15.69920181 9.98956175 17.95174754 11.04296875 20.203125 C11.59968262 21.39583008 12.15639648 22.58853516 12.72998047 23.81738281 C14.57375162 27.72405817 16.50579056 31.58359845 18.45703125 35.4375 C18.78944824 36.09495209 19.12186523 36.75240417 19.46435547 37.42977905 C20.77577886 40.02000752 22.08890895 42.6092814 23.41253662 45.19329834 C27.14015185 52.47568692 30.43541547 59.77093773 33.28198242 67.4465332 C34.89742681 71.53709543 36.87431455 75.38703667 38.88183594 79.29638672 C42.20848585 85.96261136 45.13698868 92.81659167 48.140625 99.6328125 C48.84380629 101.22326359 49.54726028 102.81359414 50.25097656 104.40380859 C51.31582057 106.81040727 52.38037224 109.21713191 53.44372559 111.62438965 C55.64719701 116.61243677 57.86123051 121.59560905 60.0859375 126.57421875 C60.63201374 127.79743795 61.17807536 129.02066367 61.72412109 130.24389648 C62.71801414 132.46921576 63.71304553 134.69402714 64.70947266 136.91821289 C66.76173771 141.52155227 68.7583793 146.12741541 70.59765625 150.8203125 C72.31271481 155.1681896 74.30291189 159.29907642 76.453125 163.4453125 C77.81596488 166.14933967 79.16694582 168.85919912 80.515625 171.5703125 C81.05316406 172.65054688 81.59070313 173.73078125 82.14453125 174.84375 C85.31912393 181.73560078 86.96250169 187.98993678 85.515625 195.5703125 C81.62678324 205.08774103 73.40762054 209.44300442 64.390625 213.3203125 C48.51397861 219.56258434 48.51397861 219.56258434 40.33984375 216.84765625 C28.99426783 211.5701473 24.66622521 201.09666691 19.765625 190.3203125 C18.60518389 187.79059904 17.44101364 185.2626045 16.27734375 182.734375 C15.97392563 182.07384125 15.67050751 181.4133075 15.3578949 180.73275757 C12.14558156 173.74630255 8.86942683 166.79028909 5.58813477 159.83602905 C3.90214155 156.26256501 2.21852591 152.68798178 0.53515625 149.11328125 C0.20266876 148.40724258 -0.12981873 147.70120392 -0.47238159 146.97377014 C-3.76802662 139.97258718 -7.05074122 132.9653878 -10.32522583 125.95428467 C-10.92150722 124.67765685 -11.51807528 123.40116288 -12.11495972 122.12481689 C-17.20537199 111.23782482 -17.20537199 111.23782482 -19.52734375 105.95703125 C-21.90792944 100.55967951 -24.48255898 95.25719921 -27.046875 89.9453125 C-28.11732651 87.72142107 -29.18763585 85.49746121 -30.2578125 83.2734375 C-30.79631836 82.15517578 -31.33482422 81.03691406 -31.88964844 79.88476562 C-36.10584943 71.12188371 -40.29630142 62.34666378 -44.484375 53.5703125 C-45.14542236 52.18634277 -45.14542236 52.18634277 -45.81982422 50.77441406 C-47.08499267 48.12398701 -48.34762157 45.4723667 -49.609375 42.8203125 C-49.98795654 42.0277002 -50.36653809 41.23508789 -50.7565918 40.41845703 C-51.10246338 39.68997559 -51.44833496 38.96149414 -51.8046875 38.2109375 C-52.10648926 37.57704102 -52.40829102 36.94314453 -52.71923828 36.29003906 C-54.98510502 31.19726137 -55.48494523 26.43643191 -53.6484375 21.17578125 C-48.02427073 9.19139904 -40.36012888 1.12061405 -28.046875 -3.8046875 C-18.48086449 -5.48293496 -8.5668362 -4.92997178 0 0 Z " fill="#DC9C9C" transform="translate(804.484375,821.4296875)"/>
<path d="M0 0 C7.96117563 4.42066943 12.75411476 14.95497508 16.97460938 22.6796875 C17.56870605 23.75259033 18.16280273 24.82549316 18.77490234 25.9309082 C23.85123106 35.1907675 28.57614795 44.61636869 33.24755859 54.08520508 C37.14930936 61.97523078 41.24221878 69.72092596 45.5144043 77.4152832 C51.30052712 87.90400313 56.6993699 98.59488132 62.12011719 109.27563477 C65.61779291 116.14632295 69.16928167 122.8179721 73.34960938 129.3046875 C81.9482526 145.69585114 88.00688924 162.34437134 82.91210938 180.7421875 C80.05381921 188.17988878 74.1856988 195.13570872 67.34960938 199.3046875 C58.29026549 201.06471063 50.84887921 198.29299105 43.34960938 193.3046875 C37.57756861 188.75586067 34.50470969 181.48460712 31.03710938 175.15234375 C27.91553224 169.47360308 24.62887505 163.89335066 21.34960938 158.3046875 C17.10614453 151.05768027 12.90690389 143.79288278 8.82006836 136.45654297 C5.43238832 130.39975822 1.92081958 124.41694649 -1.58789062 118.4296875 C-5.74936876 111.3254142 -9.86460166 104.20353786 -13.83789062 96.9921875 C-20.07695589 85.6696759 -26.50821642 74.45479309 -33.21630859 63.40307617 C-36.63391128 57.77080148 -39.94653081 52.09636715 -43.08789062 46.3046875 C-43.58325317 45.4060498 -43.58325317 45.4060498 -44.08862305 44.48925781 C-47.69098738 37.74272048 -49.72312944 30.93606995 -48.65039062 23.3046875 C-47.4262177 20.46460631 -46.47949534 18.67533983 -44.65039062 16.3046875 C-44.23402344 15.74136719 -43.81765625 15.17804687 -43.38867188 14.59765625 C-37.73492988 8.02388275 -29.39283128 4.81234469 -21.65039062 1.3046875 C-20.6988208 0.86552002 -20.6988208 0.86552002 -19.72802734 0.41748047 C-13.06950408 -2.57079534 -6.79612997 -2.59252914 0 0 Z " fill="#DC9C9C" transform="translate(857.650390625,764.6953125)"/>
<path d="M0 0 C1.31359826 3.77067591 0.7731334 6.89514488 0.22265625 10.8046875 C0.0345057 12.24498418 -0.15123625 13.68559692 -0.33496094 15.12646484 C-0.48330383 16.28284454 -0.48330383 16.28284454 -0.63464355 17.46258545 C-3.91254082 43.57280098 -3.39401037 69.73398245 -3 96 C-3.33 96 -3.66 96 -4 96 C-5.88542166 86.80492701 -6.3593016 77.8673328 -6.3125 68.5 C-6.31134186 67.77832642 -6.31018372 67.05665283 -6.30899048 66.31311035 C-6.27184837 54.41920225 -5.65956649 42.60226676 -4.6875 30.75 C-4.62873688 30.00790283 -4.56997375 29.26580566 -4.50942993 28.5012207 C-3.72073193 18.78443974 -2.29102007 9.49391221 0 0 Z " fill="#B43432" transform="translate(772,955)"/>
<path d="M0 0 C0.33 0 0.66 0 1 0 C2.30101718 6.29092241 3.58020806 12.58601606 4.84521484 18.88427734 C5.27687366 21.02068267 5.71328857 23.15613333 6.15478516 25.29052734 C8.57586027 37.01160527 10.70760123 47.99448731 10 60 C9.92459417 62.49732192 9.8517546 64.99472241 9.78125 67.4921875 C9.69010055 69.95322269 9.59635023 72.41416293 9.5 74.875 C9.42845703 76.78345703 9.42845703 76.78345703 9.35546875 78.73046875 C9.23930559 81.82040867 9.1207892 84.91023806 9 88 C8.67 88 8.34 88 8 88 C8.0314209 86.50726562 8.0314209 86.50726562 8.06347656 84.984375 C8.84257956 55.74221854 8.84257956 55.74221854 4 27 C3.67 26.67 3.34 26.34 3 26 C2.52069329 22.79463638 2.12793168 19.58941822 1.75 16.37109375 C1.59637295 12.88890725 1.59637295 12.88890725 0 10 C-0.07205511 8.31391034 -0.08386068 6.62499341 -0.0625 4.9375 C-0.05347656 4.01839844 -0.04445313 3.09929688 -0.03515625 2.15234375 C-0.02355469 1.44207031 -0.01195312 0.73179687 0 0 Z " fill="#B95251" transform="translate(943,829)"/>
<path d="M0 0 C2.59274692 2.33880828 4.10592247 4.75064694 5.7421875 7.82421875 C6.25136719 8.77103516 6.76054688 9.71785156 7.28515625 10.69335938 C8.07212891 12.17545898 8.07212891 12.17545898 8.875 13.6875 C9.91162766 15.63020744 10.95065566 17.57163614 11.9921875 19.51171875 C12.49202148 20.44290527 12.99185547 21.3740918 13.50683594 22.33349609 C14.89895604 24.81955492 16.38681053 27.19796483 17.9453125 29.58203125 C18.62335937 30.70996094 19.30140625 31.83789062 20 33 C19.67 33.66 19.34 34.32 19 35 C18.01 35 17.02 35 16 35 C15.5153125 33.94683594 15.030625 32.89367187 14.53125 31.80859375 C10.74353679 23.64062266 6.84898932 15.58980903 2.43945312 7.73608398 C0.88860077 4.92496906 0 3.2683124 0 0 Z " fill="#C47A79" transform="translate(863,918)"/>
<path d="M0 0 C0.66 0.33 1.32 0.66 2 1 C-0.4293086 3.48730862 -2.86977494 5.96337167 -5.3125 8.4375 C-6.34793945 9.49807617 -6.34793945 9.49807617 -7.40429688 10.58007812 C-8.07138672 11.25361328 -8.73847656 11.92714844 -9.42578125 12.62109375 C-10.03848877 13.2442749 -10.65119629 13.86745605 -11.2824707 14.50952148 C-13 16 -13 16 -16 17 C-14.14327602 10.39831475 -8.97573936 4.92497476 -3.1875 1.4375 C-2.135625 0.963125 -1.08375 0.48875 0 0 Z " fill="#B23635" transform="translate(1108,1078)"/>
<path d="M0 0 C-1.58561638 3.85593074 -4.06509954 6.33216291 -7 9.25 C-7.886875 10.14203125 -8.77375 11.0340625 -9.6875 11.953125 C-12 14 -12 14 -14 14 C-14.33 15.32 -14.66 16.64 -15 18 C-15.66 18 -16.32 18 -17 18 C-15.55524992 13.51882602 -13.24877655 10.7420752 -10.0625 7.3125 C-8.74958984 5.88357422 -8.74958984 5.88357422 -7.41015625 4.42578125 C-3.01288245 0 -3.01288245 0 0 0 Z " fill="#A82A2A" transform="translate(762,813)"/>
<path d="M0 0 C0 3 0 3 -1.36108398 4.68579102 C-1.98313721 5.28576904 -2.60519043 5.88574707 -3.24609375 6.50390625 C-3.91833984 7.16197266 -4.59058594 7.82003906 -5.28320312 8.49804688 C-5.99412109 9.17931641 -6.70503906 9.86058594 -7.4375 10.5625 C-8.8341114 11.91582536 -10.22874302 13.27119774 -11.62109375 14.62890625 C-12.55586548 15.5271814 -12.55586548 15.5271814 -13.50952148 16.44360352 C-15.09713961 17.9479174 -15.09713961 17.9479174 -16 20 C-16.66 19.67 -17.32 19.34 -18 19 C-15.83420496 15.04353129 -13.33636702 12.09518155 -10.125 8.9375 C-9.28195312 8.10089844 -8.43890625 7.26429687 -7.5703125 6.40234375 C-5.13679589 4.12785634 -2.6305101 2.04123812 0 0 Z " fill="#B83B3A" transform="translate(1217,1190)"/>
<path d="M0 0 C0.66 0.33 1.32 0.66 2 1 C-3.28 6.28 -8.56 11.56 -14 17 C-14 12.08113186 -10.31173311 9.3948461 -7 6 C-4.72300284 3.91201998 -2.39497582 1.9550823 0 0 Z " fill="#CD8887" transform="translate(1117,1086)"/>
<path d="M0 0 C0 4.95 0 9.9 0 15 C-2.39763185 12.60236815 -2.34280586 11.66726502 -2.625 8.375 C-2.69976563 7.55773438 -2.77453125 6.74046875 -2.8515625 5.8984375 C-2.90054687 5.27195312 -2.94953125 4.64546875 -3 4 C-3.99 4 -4.98 4 -6 4 C-2.25 0 -2.25 0 0 0 Z " fill="#C17574" transform="translate(1185,1221)"/>
<path d="M0 0 C0.66 0.33 1.32 0.66 2 1 C-2.29 5.29 -6.58 9.58 -11 14 C-11 9.89707103 -9.37198901 8.8472941 -6.625 5.875 C-5.40683594 4.54082031 -5.40683594 4.54082031 -4.1640625 3.1796875 C-2 1 -2 1 0 0 Z " fill="#CC8686" transform="translate(822,773)"/>
<path d="M0 0 C0.66 0.33 1.32 0.66 2 1 C-2.29 5.29 -6.58 9.58 -11 14 C-11.66 13.67 -12.32 13.34 -13 13 C-11.58791833 11.39179588 -10.17013964 9.78859292 -8.75 8.1875 C-7.96109375 7.29417969 -7.1721875 6.40085937 -6.359375 5.48046875 C-4.34120555 3.35871775 -2.40083295 1.65745577 0 0 Z " fill="#CF8383" transform="translate(914,516)"/>
<path d="M0 0 C0.33 0 0.66 0 1 0 C1.53132389 2.58157368 2.05034379 5.16461756 2.5625 7.75 C2.78969727 8.84441406 2.78969727 8.84441406 3.02148438 9.9609375 C3.74557178 13.66557073 4.09817231 16.39322322 3 20 C2.80083984 19.04287109 2.80083984 19.04287109 2.59765625 18.06640625 C2.42105469 17.24011719 2.24445312 16.41382813 2.0625 15.5625 C1.88847656 14.73878906 1.71445312 13.91507813 1.53515625 13.06640625 C1.19247006 11.02338796 1.19247006 11.02338796 0 10 C-0.07205511 8.31391034 -0.08386068 6.62499341 -0.0625 4.9375 C-0.05347656 4.01839844 -0.04445313 3.09929688 -0.03515625 2.15234375 C-0.02355469 1.44207031 -0.01195312 0.73179687 0 0 Z " fill="#B64A4A" transform="translate(943,829)"/>
<path d="M0 0 C0.33 0 0.66 0 1 0 C1.53132389 2.58157368 2.05034379 5.16461756 2.5625 7.75 C2.78969727 8.84441406 2.78969727 8.84441406 3.02148438 9.9609375 C3.74557178 13.66557073 4.09817231 16.39322322 3 20 C2.80083984 19.04287109 2.80083984 19.04287109 2.59765625 18.06640625 C2.42105469 17.24011719 2.24445312 16.41382813 2.0625 15.5625 C1.88847656 14.73878906 1.71445312 13.91507813 1.53515625 13.06640625 C1.19247006 11.02338796 1.19247006 11.02338796 0 10 C-0.07205511 8.31391034 -0.08386068 6.62499341 -0.0625 4.9375 C-0.05347656 4.01839844 -0.04445313 3.09929688 -0.03515625 2.15234375 C-0.02355469 1.44207031 -0.01195312 0.73179687 0 0 Z " fill="#B74B4A" transform="translate(932,771)"/>
<path d="M0 0 C0.33 0 0.66 0 1 0 C2.39737627 3.75544871 3.55917108 6.97396822 3 11 C2.01 11.66 1.02 12.32 0 13 C0 8.71 0 4.42 0 0 Z " fill="#B94443" transform="translate(1094,1123)"/>
<path d="M0 0 C0 3 0 3 -1.53125 4.82421875 C-2.1809375 5.43910156 -2.830625 6.05398438 -3.5 6.6875 C-4.1496875 7.31011719 -4.799375 7.93273438 -5.46875 8.57421875 C-5.9740625 9.04472656 -6.479375 9.51523438 -7 10 C-7.33 9.01 -7.66 8.02 -8 7 C-7.236875 6.401875 -6.47375 5.80375 -5.6875 5.1875 C-3.6516425 3.53040668 -1.8021721 1.89702326 0 0 Z " fill="#BC4948" transform="translate(1217,1190)"/>
<path d="M0 0 C0.33 0 0.66 0 1 0 C1.36448598 4.4953271 1.36448598 4.4953271 -0.21875 6.6875 C-2 8 -2 8 -4.26171875 8.07421875 C-5.46248047 7.88279297 -5.46248047 7.88279297 -6.6875 7.6875 C-7.49574219 7.56761719 -8.30398438 7.44773437 -9.13671875 7.32421875 C-9.75160156 7.21722656 -10.36648438 7.11023437 -11 7 C-7.90279155 6.12159004 -6.09354597 6.00564594 -3 7 C-2.67 6.01 -2.34 5.02 -2 4 C-1.34 4 -0.68 4 0 4 C0 2.68 0 1.36 0 0 Z " fill="#A52A29" transform="translate(1211,1029)"/>
<path d="M0 0 C0.66 0.33 1.32 0.66 2 1 C-0.64 3.64 -3.28 6.28 -6 9 C-6.66 8.67 -7.32 8.34 -8 8 C-3.375 2.25 -3.375 2.25 0 0 Z " fill="#CB8382" transform="translate(766,823)"/>
<path d="M0 0 C2.72426311 2.35277269 3.8141763 4.62496331 5 8 C4.34 8.66 3.68 9.32 3 10 C0 3.375 0 3.375 0 0 Z " fill="#C88281" transform="translate(871,933)"/>
<path d="M0 0 C0.33 0 0.66 0 1 0 C1.33 3.63 1.66 7.26 2 11 C1.34 11 0.68 11 0 11 C-1.35015859 6.94952424 -0.62084998 4.2079832 0 0 Z " fill="#C87676" transform="translate(944,885)"/>
</svg>
