<?xml version="1.0" encoding="UTF-8"?>
<svg version="1.1" xmlns="http://www.w3.org/2000/svg" width="2048" height="2048">
<path d="M0 0 C675.84 0 1351.68 0 2048 0 C2048 675.84 2048 1351.68 2048 2048 C1372.16 2048 696.32 2048 0 2048 C0 1372.16 0 696.32 0 0 Z " fill="#BB7D7E" transform="translate(0,0)"/>
<path d="M0 0 C16.01720985 -0.52338666 31.38561221 -0.89218745 44.29394531 10.09423828 C46.54394531 12.46923828 46.54394531 12.46923828 48.29394531 15.09423828 C48.70257812 15.65626953 49.11121094 16.21830078 49.53222656 16.79736328 C52.76141824 21.48397775 54.26443785 25.9795439 55.61035156 31.48486328 C56.50322386 34.8930844 57.84658548 37.88487517 59.29394531 41.09423828 C66.85604593 62.57542449 70.57456968 85.92110046 74.18823242 108.32641602 C76.2431178 121.00476193 78.51107273 133.64266032 80.79394531 146.28173828 C80.99150421 147.3768573 81.18906311 148.47197632 81.39260864 149.60028076 C83.57441347 161.68834128 85.78059376 173.77116947 88.04394531 185.84423828 C89.95227482 196.03216487 91.67444567 206.24583239 93.3605957 216.47265625 C95.87703054 231.70254075 98.58353467 246.89798684 101.29394531 262.09423828 C101.49131287 263.20114014 101.68868042 264.30804199 101.89202881 265.44848633 C105.02137206 282.99789771 108.15595196 300.54637169 111.29394531 318.09423828 C113.73009505 313.33162022 115.17864221 308.39188704 116.73144531 303.28173828 C117.0456543 302.25161621 117.35986328 301.22149414 117.68359375 300.16015625 C119.7374016 293.29374224 121.40917117 286.51881494 122.59082031 279.44580078 C123.13767919 276.8391068 123.78167101 274.55690009 124.65087891 272.05932617 C126.40488429 266.85878277 127.86850561 261.60219705 129.28613281 256.30126953 C129.58059296 255.20321487 129.8750531 254.10516022 130.17843628 252.97383118 C134.88076071 235.28118139 139.25602276 217.50293991 143.68151855 199.73956299 C144.66611643 195.79033292 145.65335143 191.84176418 146.64064217 187.8932066 C147.60942475 184.01780109 148.57696946 180.14208736 149.5441246 176.26627541 C149.99745815 174.4498203 150.45105143 172.63342999 150.90494156 170.81711388 C153.53627652 160.28257802 156.11724218 149.73848146 158.59221077 139.16595745 C159.99601884 133.20597012 161.60578211 127.34122849 163.32910156 121.46533203 C165.99857883 112.13837301 168.1802637 102.69813702 170.23144531 93.21923828 C171.70517206 86.42553992 173.45458482 79.75198297 175.36352539 73.06884766 C177.0379506 67.15352859 178.51029724 61.20306454 179.91894531 55.21923828 C180.1295459 54.32785156 180.34014648 53.43646484 180.55712891 52.51806641 C181.43055542 48.80825484 182.29335567 45.0968464 183.13378906 41.37939453 C185.50527297 31.21406081 188.44509006 24.1386871 197.29394531 18.09423828 C207.77150044 12.08612974 217.13263311 8.70537674 229.23144531 8.78173828 C230.14587402 8.78592773 231.06030273 8.79011719 232.00244141 8.79443359 C244.53183892 8.99901295 256.77604429 10.96425165 268.29394531 16.09423828 C268.94621094 16.37912109 269.59847656 16.66400391 270.27050781 16.95751953 C275.51928461 19.58190793 278.71529156 23.61108963 282.29394531 28.09423828 C282.95265625 28.76712891 283.61136719 29.44001953 284.29003906 30.13330078 C290.47815511 37.18053153 290.08386787 44.40783641 289.66113281 53.31689453 C289.29092553 58.70581579 288.5141226 63.83589752 287.29394531 69.09423828 C286.90438279 70.98753074 286.51536751 72.88093582 286.12670898 74.77441406 C283.64675026 86.36608272 280.66851427 97.8408207 277.78222656 109.33642578 C277.13445989 111.92374554 276.48688334 114.51111216 275.83955383 117.09854126 C274.47155541 122.56501623 273.10189652 128.03107277 271.73101807 133.49682617 C269.77635959 141.29017199 267.82434522 149.08417814 265.87307405 156.87837267 C263.08503491 168.01486519 260.29570293 179.1510331 257.50504065 190.28686857 C254.33337403 202.94310226 251.16456804 215.60004611 248.00097656 228.25830078 C247.8164134 228.99674477 247.63185024 229.73518875 247.44169426 230.49600983 C245.95376418 236.44948066 244.4663609 242.40308305 242.97897339 248.35668945 C242.09970245 251.87600492 241.22031736 255.39529181 240.34082031 258.91455078 C240.07552017 259.97615417 239.81022003 261.03775757 239.53688049 262.13153076 C237.8838732 268.74303734 236.2238271 275.3527429 234.55957031 281.96142578 C233.76213604 285.13055622 232.96526904 288.29982861 232.16894531 291.46923828 C231.98956421 292.18287537 231.81018311 292.89651245 231.62536621 293.6317749 C229.10449394 303.67560914 226.74329454 313.74960457 224.46166992 323.8503418 C222.48198721 332.51377443 220.19394404 341.07889234 217.84179688 349.64770508 C215.24955348 359.12623 212.94487773 368.65971002 210.75537109 378.23852539 C210.34749785 379.8788664 209.82846184 381.49068869 209.29394531 383.09423828 C209.25440297 385.42723653 209.24992799 387.76132017 209.29394531 390.09423828 C210.03644531 390.17673828 210.77894531 390.25923828 211.54394531 390.34423828 C214.85774552 391.24800198 215.89682419 392.69711716 218.29394531 395.09423828 C219.61265625 395.53316406 219.61265625 395.53316406 220.95800781 395.98095703 C224.81377795 397.26771873 228.17622264 399.02345009 231.73144531 400.96923828 C232.36115234 401.30826172 232.99085938 401.64728516 233.63964844 401.99658203 C237.24376893 403.94495549 240.80517633 405.95875189 244.35766602 408 C247.50426977 409.77822192 250.68868823 411.48604834 253.86816406 413.20458984 C263.83433662 418.59424592 273.65481964 424.17533971 283.39160156 429.96679688 C303.99348822 442.24401146 303.99348822 442.24401146 325.87597656 451.92626953 C328.79155559 453.33460254 330.32250985 454.50699652 332.29394531 457.09423828 C334.46107237 464.29684369 335.33364256 471.70097441 336.35253906 479.13720703 C336.54388849 480.51041476 336.73563349 481.88356742 336.92774963 483.25666809 C337.43178081 486.86641439 337.93071329 490.4768468 338.4284668 494.08746338 C338.92567665 497.6884286 339.42729118 501.28877916 339.92871094 504.88916016 C340.1256377 506.30412562 340.32254738 507.71909346 340.5194397 509.13406372 C340.66422697 510.17452032 340.66422697 510.17452032 340.81193924 511.23599625 C341.28784904 514.65663814 341.76334426 518.07733761 342.23876953 521.49804688 C342.41736511 522.78257751 342.59596069 524.06710815 342.77996826 525.39056396 C343.11067301 527.77359385 343.44038414 530.15676194 343.76885986 532.5401001 C344.18165579 535.53385043 344.59855305 538.52699898 345.01660156 541.52001953 C345.19236977 542.80817818 345.19236977 542.80817818 345.37168884 544.12236023 C345.88743892 548.23451639 345.88743892 548.23451639 347.29394531 552.09423828 C348.03217177 563.75134901 346.55770283 573.79676948 341.85253906 584.44970703 C339.46042914 590.04328739 337.36470378 595.74691994 335.23681641 601.4453125 C333.35610607 606.44144815 331.3519556 611.34122105 329.12817383 616.19506836 C328.19130883 618.24880525 328.19130883 618.24880525 327.29394531 621.09423828 C326.63394531 621.09423828 325.97394531 621.09423828 325.29394531 621.09423828 C325.13539063 621.65111328 324.97683594 622.20798828 324.81347656 622.78173828 C323.27460331 627.81495907 321.37608563 631.93914455 318.37988281 636.27001953 C317.22891706 638.20347638 316.73037729 639.89753065 316.29394531 642.09423828 C315.63394531 642.09423828 314.97394531 642.09423828 314.29394531 642.09423828 C314.02582031 642.82642578 313.75769531 643.55861328 313.48144531 644.31298828 C311.98124423 647.82661714 309.92292333 650.70108949 307.73144531 653.81298828 C306.22311305 656.04857283 306.22311305 656.04857283 305.32910156 658.55517578 C304.14508091 661.45937738 302.5824003 663.69204713 300.73144531 666.21923828 C298.75042669 668.92923881 297.35932908 670.89808698 296.29394531 674.09423828 C294.91113281 675.41845703 294.91113281 675.41845703 293.16894531 676.78173828 C287.59198377 681.41403083 283.19320427 686.66241381 279.23144531 692.71923828 C274.60324975 699.54981656 268.52314664 705.06846217 262.58154297 710.74072266 C261.17632152 712.08576997 261.17632152 712.08576997 260.29394531 714.09423828 C258.65031398 714.81583253 256.98344145 715.48775249 255.29394531 716.09423828 C255.71760829 741.25654198 256.7092056 766.38092404 257.89657211 791.51678848 C258.77235021 810.05936409 259.6131338 828.59513203 260.00292969 847.15576172 C260.14027415 853.54227932 260.38562586 859.90325474 260.79785156 866.27783203 C261.35124195 875.03185489 261.5476848 883.77433387 261.58911133 892.54492188 C261.60076527 894.25887213 261.62142144 895.97278253 261.65063477 897.68652344 C261.85853638 909.97710924 261.39352575 918.32709716 253.29394531 928.09423828 C252.27497573 929.74937536 251.27682396 931.41741768 250.29394531 933.09423828 C248.18404726 936.68318547 245.91722427 939.85886091 243.29394531 943.09423828 C241.88738485 945.3932371 240.59165627 947.73055047 239.29394531 950.09423828 C238.63394531 950.09423828 237.97394531 950.09423828 237.29394531 950.09423828 C237.02710938 950.64982422 236.76027344 951.20541016 236.48535156 951.77783203 C230.55165769 963.3144893 222.54340447 975.26352037 211.29394531 982.09423828 C210.44960937 982.63306641 209.60527344 983.17189453 208.73535156 983.72705078 C193.03391043 992.64786957 172.99550274 996.56156374 155.29394531 999.09423828 C154.52904785 999.20582275 153.76415039 999.31740723 152.97607422 999.43237305 C124.02880543 1003.32750721 93.2663338 1002.16091449 64.29394531 999.09423828 C63.25125488 998.98708496 62.20856445 998.87993164 61.13427734 998.76953125 C44.16472852 996.97956042 27.8521356 993.90791982 11.50488281 989.02392578 C9.17339046 988.34887082 6.81160355 987.77584269 4.43847656 987.26611328 C-0.276912 986.09963954 -4.2134845 983.89097807 -8.39355469 981.46923828 C-9.17738525 981.02338379 -9.96121582 980.5775293 -10.76879883 980.11816406 C-13.08940938 978.79040793 -15.39970445 977.44658891 -17.70605469 976.09423828 C-18.33833984 975.72427734 -18.970625 975.35431641 -19.62207031 974.97314453 C-23.37192778 972.76243879 -27.05418902 970.46288563 -30.70605469 968.09423828 C-31.6715625 967.47162109 -32.63707031 966.84900391 -33.63183594 966.20751953 C-43.83434984 959.25061862 -50.33904131 950.32811574 -56.29589844 939.62548828 C-57.73063049 936.97109662 -57.73063049 936.97109662 -59.70605469 934.09423828 C-60.06739844 931.35089336 -60.32034519 928.68120045 -60.49633789 925.92504883 C-60.55696978 925.08669967 -60.61760166 924.24835051 -60.68007088 923.38459682 C-60.88061122 920.58390221 -61.06861472 917.78250437 -61.25683594 914.98095703 C-61.39654195 913.00009297 -61.53710775 911.01928939 -61.67848206 909.0385437 C-61.97837915 904.8161493 -62.27308642 900.59343807 -62.56365967 896.37039185 C-63.24379324 886.49171931 -63.95069371 876.61494668 -64.65511322 866.7379818 C-64.88995004 863.44156718 -65.12376795 860.14508137 -65.35748291 856.84858704 C-66.66529065 838.44296524 -68.0823227 820.04771254 -69.58105469 801.65673828 C-69.68414948 800.38212738 -69.78724426 799.10751648 -69.89346313 797.79428101 C-70.18050738 794.24956437 -70.46988969 790.70505055 -70.76074219 787.16064453 C-70.88371422 785.6531514 -70.88371422 785.6531514 -71.00917053 784.11520386 C-71.42854671 779.07241658 -71.92104344 774.04674377 -72.49658203 769.01948547 C-72.74684165 766.71936839 -72.90853858 764.42451552 -73.02246094 762.11376953 C-73.06443604 761.26580811 -73.10641113 760.41784668 -73.1496582 759.54418945 C-73.18889404 758.67383057 -73.22812988 757.80347168 -73.26855469 756.90673828 C-73.31101318 755.99706299 -73.35347168 755.0873877 -73.3972168 754.15014648 C-73.71986255 746.79291438 -73.81745068 739.45875134 -73.70605469 732.09423828 C-75.04216797 731.69398438 -75.04216797 731.69398438 -76.40527344 731.28564453 C-85.47913054 728.01046534 -92.18937813 720.9470926 -98.70605469 714.09423828 C-99.63417969 713.18673828 -100.56230469 712.27923828 -101.51855469 711.34423828 C-103.75782866 709.04098505 -105.70838572 706.60743473 -107.70605469 704.09423828 C-108.33125 703.47419922 -108.95644531 702.85416016 -109.60058594 702.21533203 C-114.51664187 697.26279331 -119.10648779 692.02569484 -120.70605469 685.09423828 C-121.36605469 685.09423828 -122.02605469 685.09423828 -122.70605469 685.09423828 C-123.54674884 683.49391691 -124.37836973 681.88882657 -125.20605469 680.28173828 C-125.90214844 678.94175781 -125.90214844 678.94175781 -126.61230469 677.57470703 C-127.70605469 675.09423828 -127.70605469 675.09423828 -127.70605469 672.09423828 C-128.36605469 672.09423828 -129.02605469 672.09423828 -129.70605469 672.09423828 C-130.20105469 670.87736328 -130.69605469 669.66048828 -131.20605469 668.40673828 C-134.56196873 660.83196087 -139.116217 653.82665142 -143.83105469 647.03173828 C-145.58939055 644.2770121 -146.68171539 641.86847501 -147.70605469 638.78173828 C-149.21224646 634.39465588 -150.9448968 630.23739009 -152.97167969 626.06689453 C-153.70605469 624.09423828 -153.70605469 624.09423828 -153.70605469 620.09423828 C-154.36605469 620.09423828 -155.02605469 620.09423828 -155.70605469 620.09423828 C-158.45376658 613.40324521 -160.95023084 606.95934059 -162.18261719 599.82080078 C-162.84536211 596.36859217 -163.73180855 592.98703907 -164.64355469 589.59423828 C-165.12115234 587.81533203 -165.12115234 587.81533203 -165.60839844 586.00048828 C-166.17415331 583.93912399 -166.76845233 581.89553678 -167.40893555 579.85595703 C-177.08885081 548.97998899 -175.68871452 517.69929895 -173.01855469 485.90673828 C-172.94468536 484.97602509 -172.87081604 484.04531189 -172.79470825 483.08639526 C-171.79699296 470.87212579 -170.26214293 459.20641476 -164.70605469 448.09423828 C-164.13040052 442.0195719 -165.63302352 438.38401734 -168.45605469 433.21923828 C-169.19694297 431.80325364 -169.93653844 430.38659177 -170.67480469 428.96923828 C-171.02929688 428.29763672 -171.38378906 427.62603516 -171.74902344 426.93408203 C-174.00048728 422.60575767 -175.93357087 418.14147935 -177.65527344 413.57861328 C-179.49555409 408.71969044 -181.45929636 404.84742011 -184.61621094 400.73095703 C-186.37714313 398.08640296 -186.91625462 395.14813187 -187.70605469 392.09423828 C-189.72010032 386.96487084 -192.21355017 382.06621689 -194.70605469 377.15673828 C-197.05986368 372.5087104 -199.10271228 367.82966312 -200.94433594 362.95751953 C-201.55801554 361.11329325 -201.55801554 361.11329325 -202.70605469 360.09423828 C-203.97643906 346.41317585 -198.81693102 336.93355591 -190.56542969 326.34814453 C-185.8565194 320.80776582 -181.33079811 317.07233395 -174.70605469 314.09423828 C-174.07570313 313.78873047 -173.44535156 313.48322266 -172.79589844 313.16845703 C-166.23111456 310.12412869 -159.91605804 309.95368316 -152.83105469 310.03173828 C-152.04730469 310.03625 -151.26355469 310.04076172 -150.45605469 310.04541016 C-148.53935455 310.05709735 -146.6226942 310.0750292 -144.70605469 310.09423828 C-144.71765625 309.32080078 -144.72925781 308.54736328 -144.74121094 307.75048828 C-144.76910882 304.53027504 -144.74983718 301.31424193 -144.70605469 298.09423828 C-144.7021875 297.37107422 -144.69832031 296.64791016 -144.69433594 295.90283203 C-144.10248781 286.12713367 -137.51800951 277.98225728 -130.67089844 271.51611328 C-117.64450655 260.87531885 -103.76293903 254.75808088 -86.70605469 256.09423828 C-78.81013884 256.93506792 -72.05980777 261.29346149 -66.70605469 267.03173828 C-57.98663119 278.23831539 -51.77395236 291.48173586 -45.39355469 304.09423828 C-44.52954662 305.79179682 -43.66495023 307.48905604 -42.79980469 309.18603516 C-41.00371609 312.71025825 -39.2101372 316.2357408 -37.41845703 319.76220703 C-33.03574103 328.38384009 -28.62024081 336.98868868 -24.20605469 345.59423828 C-23.78631378 346.41291382 -23.36657288 347.23158936 -22.93411255 348.07507324 C-17.9249474 357.84460515 -12.9052722 367.60828803 -7.83105469 377.34423828 C-7.16299805 378.62717773 -7.16299805 378.62717773 -6.48144531 379.93603516 C-3.68442927 385.28441251 -0.79261143 390.57208639 2.16162109 395.83544922 C3.29394531 398.09423828 3.29394531 398.09423828 3.29394531 400.09423828 C3.95394531 400.09423828 4.61394531 400.09423828 5.29394531 400.09423828 C4.18955397 394.5205626 3.08512564 388.94689424 1.98067665 383.37322998 C1.56401878 381.27050985 1.14737134 379.16778765 0.73073387 377.06506348 C-1.87299779 363.92432747 -4.47763395 350.78377155 -7.08398438 337.64355469 C-7.97722585 333.13976391 -8.87041826 328.63596341 -9.7635417 324.13214922 C-10.02560619 322.81061969 -10.28767625 321.48909126 -10.54975176 320.16756392 C-14.05600011 302.48681198 -17.55486523 284.80462159 -21.04356098 267.12039757 C-21.33507443 265.64271387 -21.62658946 264.16503048 -21.91810608 262.68734741 C-22.13451719 261.59037019 -22.13451719 261.59037019 -22.35530025 260.47123182 C-24.21554903 251.04273171 -26.07923359 241.61491037 -27.94327068 232.18715858 C-29.47753727 224.42640668 -31.00872633 216.66505916 -32.53622097 208.90297151 C-33.71279366 202.92566269 -34.89442792 196.94936589 -36.07790184 190.97341919 C-36.56517204 188.50859013 -37.05074992 186.04342584 -37.53454018 183.57791138 C-38.19629565 180.20663882 -38.86400045 176.8365978 -39.53320312 173.46679688 C-39.72526557 172.48072638 -39.91732801 171.49465588 -40.11521053 170.47870445 C-40.98442754 166.1321712 -41.94762825 162.1808389 -43.70605469 158.09423828 C-44.11129761 156.09379578 -44.11129761 156.09379578 -44.34228516 154.10864258 C-44.43937775 153.33873489 -44.53647034 152.56882721 -44.63650513 151.77558899 C-44.73937836 150.93586044 -44.84225159 150.0961319 -44.94824219 149.23095703 C-46.79531012 135.35290988 -49.63263114 121.66793897 -52.41650391 107.95513916 C-52.97728962 105.18415427 -53.53143829 102.41185853 -54.08554268 99.63953114 C-54.75009191 96.31779199 -55.41952717 92.99704679 -56.08886719 89.67626953 C-56.33678009 88.44004349 -56.58469299 87.20381744 -56.84011841 85.93013 C-57.07060883 84.79681747 -57.30109924 83.66350494 -57.53857422 82.49584961 C-57.84143845 80.99868156 -57.84143845 80.99868156 -58.15042114 79.4712677 C-58.6089327 77.09524124 -58.6089327 77.09524124 -59.70605469 75.09423828 C-59.94916306 71.60001507 -59.89126897 68.09596511 -59.89355469 64.59423828 C-59.90580078 63.63775391 -59.91804687 62.68126953 -59.93066406 61.69580078 C-59.96882242 42.92188813 -51.80257813 27.6332637 -39.20605469 13.96923828 C-34.9604738 10.07914862 -29.8359853 7.61548259 -24.70605469 5.09423828 C-23.96355469 4.68947266 -23.22105469 4.28470703 -22.45605469 3.86767578 C-15.21927788 0.16946999 -7.93958263 0.27649575 0 0 Z M-21.70605469 17.09423828 C-23.43855469 17.92955078 -23.43855469 17.92955078 -25.20605469 18.78173828 C-29.20050067 21.07991268 -31.9022911 24.43622756 -34.85449219 27.91845703 C-37.00831199 30.44942249 -39.35715101 32.7453346 -41.70605469 35.09423828 C-45.44073491 38.93876204 -46.66560067 42.61626969 -47.99511719 47.69189453 C-48.70605469 50.09423828 -48.70605469 50.09423828 -49.79199219 51.96533203 C-52.63587719 58.58891036 -49.70056883 66.90540029 -48.29199219 73.59423828 C-48.04181839 74.81018173 -47.79164459 76.02612518 -47.53388977 77.27891541 C-46.99905452 79.87499392 -46.46188525 82.47044814 -45.92050171 85.06515503 C-45.07470431 89.1196925 -44.23847568 93.17616227 -43.40454102 97.2331543 C-43.19823421 98.2366616 -43.19823421 98.2366616 -42.98775959 99.26044178 C-42.71185688 100.60255086 -42.43598322 101.94466591 -42.16013908 103.28678703 C-41.75042064 105.27885129 -41.33985937 107.27074021 -40.92909241 109.2625885 C-39.02439193 118.50811334 -37.16762967 127.76025151 -35.39355469 137.03173828 C-35.05735107 138.78587036 -35.05735107 138.78587036 -34.71435547 140.57543945 C-34.27187309 142.8891795 -33.83013049 145.20306115 -33.38916016 147.51708984 C-32.0907978 154.316091 -30.77448298 161.1116038 -29.45605469 167.90673828 C-29.24340469 169.00406784 -29.24340469 169.00406784 -29.02645874 170.12356567 C-27.14784624 179.809803 -25.23171079 189.48802455 -23.28417969 199.16064453 C-23.07427902 200.20336014 -22.86437836 201.24607574 -22.64811707 202.32038879 C-22.43609146 203.37360825 -22.22406586 204.4268277 -22.00561523 205.51196289 C-18.44711174 223.19020343 -14.94813209 240.87123838 -11.73193359 258.61517334 C-9.34140071 271.79882075 -6.79887921 284.9489493 -4.20605469 298.09423828 C-1.0499057 314.09718622 2.00779003 330.11372487 4.91113281 346.16455078 C5.0402002 346.87377686 5.16926758 347.58300293 5.30224609 348.3137207 C5.56074106 349.74067176 5.81576129 351.16825644 6.06738281 352.59643555 C6.72126021 356.24518699 7.45918358 359.83986013 8.36816406 363.43408203 C12.16843621 379.02000035 11.83050114 394.66762322 11.68518066 410.59631348 C11.66336612 413.61672569 11.6642493 416.63695893 11.66545677 419.65743637 C11.66491125 422.59500136 11.65392095 425.53245167 11.63945389 428.46997833 C11.63314958 429.85890086 11.62916216 431.24783613 11.62766647 432.63677216 C11.59430102 447.38396644 8.66313291 459.37591895 -1.83105469 470.36767578 C-8.7160586 476.70761688 -14.82382411 477.76600473 -23.96655273 477.61816406 C-33.85118451 477.17227172 -42.57826794 474.16149181 -49.70605469 467.09423828 C-54.50070695 461.21853708 -58.06543752 454.7125693 -61.70605469 448.09423828 C-63.90484777 444.13052997 -66.11603971 440.17389973 -68.33105469 436.21923828 C-68.90339844 435.18798828 -69.47574219 434.15673828 -70.06542969 433.09423828 C-70.61972656 432.10681641 -71.17402344 431.11939453 -71.74511719 430.10205078 C-72.24221191 429.21146973 -72.73930664 428.32088867 -73.25146484 427.40332031 C-74.57281097 425.30575542 -75.87438983 423.74770181 -77.70605469 422.09423828 C-75.87966413 430.91129613 -70.63247025 439.28281382 -66.58105469 447.28173828 C-64.05495832 452.26950472 -61.78997926 457.23361995 -59.80761719 462.46533203 C-58.69401948 465.1229606 -57.41494003 467.66143894 -56.0871582 470.2175293 C-52.03660067 478.02475532 -48.5604432 486.00051252 -45.26855469 494.15673828 C-44.83140137 495.22738525 -44.39424805 496.29803223 -43.94384766 497.40112305 C-39.86708149 507.65434321 -38.46414226 517.16491519 -40.70605469 528.09423828 C-41.36605469 528.09423828 -42.02605469 528.09423828 -42.70605469 528.09423828 C-43.59218829 529.4144576 -44.41420341 530.77790422 -45.20605469 532.15673828 C-48.78642647 537.6876758 -53.12523704 540.72636424 -58.70605469 544.09423828 C-59.58648438 544.64208984 -60.46691406 545.18994141 -61.37402344 545.75439453 C-72.70640779 552.40992185 -86.66792896 555.79646207 -99.70458984 552.60498047 C-108.52999412 549.84580396 -113.63326297 545.87772803 -117.98022461 537.69604492 C-119.34936719 534.95186382 -120.66025566 532.18628199 -121.95605469 529.40673828 C-122.67112183 527.89466797 -122.67112183 527.89466797 -123.40063477 526.35205078 C-126.86741816 518.98766267 -130.19200529 511.56367412 -133.48876953 504.12207031 C-136.36430767 497.69661342 -139.56818409 491.51175375 -142.97949219 485.35595703 C-144.76473603 481.98338099 -146.24441714 478.61715956 -147.70605469 475.09423828 C-148.22167969 473.91861328 -148.73730469 472.74298828 -149.26855469 471.53173828 C-150.57061536 468.41811494 -151.68650525 465.30974034 -152.70605469 462.09423828 C-154.02605469 462.42423828 -155.34605469 462.75423828 -156.70605469 463.09423828 C-156.70605469 466.72423828 -156.70605469 470.35423828 -156.70605469 474.09423828 C-157.36605469 474.09423828 -158.02605469 474.09423828 -158.70605469 474.09423828 C-167.79908611 501.37333254 -164.76006449 544.99262166 -157.42041016 572.32324219 C-156.64007532 575.35017327 -155.99275887 578.38735561 -155.36621094 581.44970703 C-155.15053467 582.50101807 -154.9348584 583.5523291 -154.71264648 584.63549805 C-154.50422119 585.65313232 -154.2957959 586.6707666 -154.08105469 587.71923828 C-152.81834436 593.87304631 -151.35861671 599.39267154 -148.70605469 605.09423828 C-148.23560975 606.36063805 -147.77464872 607.63068533 -147.33105469 608.90673828 C-146.21781449 611.93498235 -144.89131329 614.73749103 -143.39355469 617.59423828 C-141.14977507 621.94784053 -139.47082602 626.36747419 -137.83105469 630.96923828 C-135.00467462 638.81803473 -131.48404724 646.35402243 -126.24902344 652.92236328 C-124.46713664 655.43053812 -123.1869445 658.02309252 -121.83984375 660.78369141 C-115.38234449 673.94341858 -108.75330284 686.325559 -98.70605469 697.09423828 C-97.53643421 698.46672655 -96.36951675 699.84152563 -95.20605469 701.21923828 C-94.04570054 702.51657869 -92.87863512 703.80793776 -91.70605469 705.09423828 C-91.00480469 705.88443359 -90.30355469 706.67462891 -89.58105469 707.48876953 C-83.70552094 713.77984267 -77.45666152 718.00307651 -70.02636719 722.18408203 C-66.70605469 724.09423828 -66.70605469 724.09423828 -64.49511719 725.75439453 C-62.0869042 727.55792522 -59.6412858 728.35747653 -56.81933594 729.33251953 C-54.70605469 730.09423828 -54.70605469 730.09423828 -51.14355469 731.78173828 C-45.90735169 733.8110298 -40.31862691 733.26505322 -34.80371094 733.10205078 C-33.27037109 733.09818359 -33.27037109 733.09818359 -31.70605469 733.09423828 C-29.81116516 734.98912781 -30.52586357 737.66562974 -30.47558594 740.18408203 C-30.70605469 742.09423828 -30.70605469 742.09423828 -32.70605469 744.09423828 C-43.21510923 745.41214903 -52.86694426 742.39094385 -62.70605469 739.09423828 C-62.09422398 752.98402245 -61.31489426 766.85095165 -60.33105469 780.71923828 C-60.26702454 781.63147156 -60.20299438 782.54370483 -60.13702393 783.48358154 C-59.21632352 796.57057878 -58.20613987 809.64821873 -57.08105469 822.71923828 C-57.018797 823.44363098 -56.95653931 824.16802368 -56.89239502 824.91436768 C-56.13513995 833.77449169 -56.13513995 833.77449169 -55.17089844 842.61376953 C-54.50608746 848.38712803 -54.29719036 854.19150581 -54.00463867 859.99313354 C-53.23721292 874.94043675 -52.17950794 889.86232121 -50.96914673 904.77999878 C-50.79404072 906.94425703 -50.62181002 909.10874988 -50.45248413 911.27346802 C-50.21233284 914.32778494 -49.96091384 917.38096144 -49.70605469 920.43408203 C-49.63522171 921.35236786 -49.56438873 922.27065369 -49.4914093 923.21676636 C-49.41786728 924.06570465 -49.34432526 924.91464294 -49.26855469 925.78930664 C-49.20796875 926.52757187 -49.14738281 927.2658371 -49.08496094 928.026474 C-48.66319558 930.32812865 -47.840698 932.05867397 -46.70605469 934.09423828 C-46.04605469 934.09423828 -45.38605469 934.09423828 -44.70605469 934.09423828 C-44.45855469 934.79548828 -44.21105469 935.49673828 -43.95605469 936.21923828 C-42.53225445 939.49397882 -40.75408042 942.16848723 -38.70605469 945.09423828 C-37.65611328 946.75132812 -37.65611328 946.75132812 -36.58496094 948.44189453 C-33.57218819 952.64859541 -29.83796074 955.01508866 -25.45605469 957.65673828 C-23.92179396 958.61051167 -22.38793504 959.56493175 -20.85449219 960.52001953 C-20.12842773 960.96684082 -19.40236328 961.41366211 -18.65429688 961.87402344 C-16.40311237 963.28397584 -14.24191849 964.80017277 -12.08105469 966.34423828 C1.81507385 975.47747531 17.31344919 979.22213422 33.29394531 983.09423828 C34.02081543 983.27470703 34.74768555 983.45517578 35.49658203 983.64111328 C52.93309154 987.89817217 71.33077452 988.85348681 89.16894531 990.28173828 C90.19479736 990.36560791 91.22064941 990.44947754 92.27758789 990.53588867 C126.77739193 993.13114294 181.34940882 992.38727362 209.85644531 969.38330078 C213.60134026 966.02456881 216.36817844 962.18598129 219.16894531 958.03173828 C219.68432861 957.2844043 220.19971191 956.53707031 220.73071289 955.76708984 C221.77193342 954.25569795 222.80919998 952.74157366 223.84228516 951.22460938 C225.13561223 949.3265986 226.43930543 947.43662734 227.75097656 945.55126953 C229.21665202 943.44387978 230.67773696 941.33328852 232.13378906 939.21923828 C233.63691898 937.04472846 235.14815677 934.87844876 236.67285156 932.71923828 C240.53646297 927.22946664 244.23114623 921.77111536 247.32128906 915.80126953 C248.29394531 914.09423828 248.29394531 914.09423828 250.29394531 912.09423828 C250.58565287 909.89212043 250.58565287 909.89212043 250.51754761 907.32446289 C250.51423274 905.83953087 250.51423274 905.83953087 250.51085091 904.32460022 C250.49711874 903.24697922 250.48338657 902.16935822 250.46923828 901.05908203 C250.46151335 899.93799545 250.45378841 898.81690887 250.44582939 897.66184998 C250.3348827 885.6533881 249.93516569 873.65659443 249.48925781 861.65673828 C249.40401415 859.27637984 249.31913371 856.89600836 249.23458862 854.515625 C249.05736082 849.55067963 248.87729641 844.5858491 248.69482422 839.62109375 C248.46693228 833.42032479 248.24381866 827.21939717 248.02260208 821.01838684 C246.88118903 789.03941075 245.63326358 757.06551887 244.29394531 725.09423828 C241.25050999 726.56059199 238.88283456 728.16721777 236.29394531 730.34423828 C229.69201973 735.54939283 222.0125284 740.97453782 213.29394531 740.09423828 C212.30394531 739.43423828 211.31394531 738.77423828 210.29394531 738.09423828 C210.10644531 735.46923828 210.10644531 735.46923828 210.29394531 733.09423828 C213.71191406 731.14111328 217.12988281 729.18798828 220.54785156 727.23486328 C221.16732666 726.8786792 221.78680176 726.52249512 222.42504883 726.15551758 C223.65234115 725.45858228 224.88712741 724.77465048 226.12963867 724.10522461 C230.16183574 721.9061945 233.39680837 719.42808963 236.73144531 716.28173828 C239.83294905 713.38644035 242.92933313 710.52136804 246.16894531 707.78173828 C253.16152838 701.71570866 259.52636142 694.92128189 266.01660156 688.32861328 C268.29394531 686.09423828 268.29394531 686.09423828 271.04394531 683.96923828 C275.84693406 680.04288758 279.47283106 674.93922378 283.29394531 670.09423828 C284.22787109 668.94181641 284.22787109 668.94181641 285.18066406 667.76611328 C289.67941525 662.14520168 293.51087794 656.21293855 297.29394531 650.09423828 C297.88691406 649.17642578 298.47988281 648.25861328 299.09082031 647.31298828 C311.57427154 627.71087478 321.01124679 606.65888573 329.20019531 584.96923828 C330.57328641 581.35997025 332.02772078 577.78633315 333.49707031 574.21533203 C338.65457992 560.48725499 335.40208862 540.51684779 331.31689453 526.81787109 C330.21871225 522.82038275 329.59702761 518.93955909 329.07519531 514.83642578 C328.97287598 514.05884918 328.87055664 513.28127258 328.76513672 512.48013306 C328.54879195 510.82764349 328.33489722 509.17483155 328.12329102 507.52172852 C327.79129962 504.9487337 327.44507215 502.37794965 327.09667969 499.80712891 C326.00168696 491.59468344 325.1438355 483.51660347 324.89379883 475.2277832 C324.74300208 471.25065726 324.42146249 467.93749575 323.29394531 464.09423828 C319.37678434 460.55069624 315.31110873 459.47634601 310.29394531 458.09423828 C308.51364114 457.21564661 306.76080867 456.27862668 305.04394531 455.28173828 C301.81193287 453.47727653 298.56928391 451.70581971 295.28613281 449.99658203 C287.43654572 445.90755261 279.81246204 441.66442991 272.31347656 436.95751953 C264.76945647 431.64481879 264.76945647 431.64481879 256.29394531 429.09423828 C256.29394531 428.43423828 256.29394531 427.77423828 256.29394531 427.09423828 C255.10929687 426.68044922 253.92464844 426.26666016 252.70410156 425.84033203 C248.73748957 424.34991608 245.31824727 422.43077919 241.73144531 420.15673828 C218.39485036 405.81091828 195.6433082 394.15940175 167.41577148 399.65454102 C162.6430189 400.93267091 160.00908109 401.76941567 157.23144531 406.03173828 C150.29264175 423.13093277 154.61702243 444.79939467 161.390625 461.22583008 C164.53341321 468.36097054 167.77209786 474.6997557 173.39550781 480.22314453 C175.45023575 482.24827762 177.0858857 484.39674094 178.79394531 486.71923828 C182.18555303 491.13139764 185.9100434 494.6781034 190.29394531 498.09423828 C190.93589844 498.59568359 191.57785156 499.09712891 192.23925781 499.61376953 C203.42879392 507.67619193 217.54201782 512.06625841 230.29394531 517.09423828 C231.04562988 517.3992627 231.79731445 517.70428711 232.57177734 518.01855469 C239.72950368 520.91811952 246.975322 523.5294961 254.25878906 526.09423828 C259.83073334 528.08922812 265.05698992 530.33405473 270.29394531 533.09423828 C270.41894531 535.46923828 270.41894531 535.46923828 270.29394531 538.09423828 C269.63394531 538.75423828 268.97394531 539.41423828 268.29394531 540.09423828 C261.68485902 539.88104195 256.08990101 538.18295088 249.89550781 535.93408203 C247.273752 534.94063252 247.273752 534.94063252 244.29394531 535.09423828 C244.060625 535.59310547 243.82730469 536.09197266 243.58691406 536.60595703 C236.15979255 551.22400184 224.47450084 560.84431862 211.29394531 570.09423828 C210.31296875 570.78388672 209.33199219 571.47353516 208.32128906 572.18408203 C203.18416494 575.60108314 197.82055984 578.37883477 192.29394531 581.09423828 C177.67011649 588.28541491 164.58679129 596.35015975 158.29394531 612.09423828 C157.90335938 613.00431641 157.51277344 613.91439453 157.11035156 614.85205078 C154.69298122 620.85783592 153.77247604 625.62801926 154.29394531 632.09423828 C154.62394531 632.42423828 154.95394531 632.75423828 155.29394531 633.09423828 C155.66894531 635.40673828 155.66894531 635.40673828 155.29394531 638.09423828 C151.93749522 641.64812661 149.10674493 642.64653599 144.29394531 643.09423828 C140.04105235 630.33555941 144.61748983 612.71380011 150.12597656 600.88330078 C155.28598824 590.87753377 161.66272507 585.03921106 171.73535156 580.33251953 C174.2971449 579.09268978 176.68217247 577.70837832 179.10644531 576.21923828 C182.93730082 573.87381654 186.8286446 571.70472658 190.79394531 569.59423828 C200.22216272 564.5327742 208.51995648 559.32889096 216.62988281 552.36376953 C219.29394531 550.09423828 219.29394531 550.09423828 221.64550781 548.41845703 C222.46148438 547.76296875 222.46148438 547.76296875 223.29394531 547.09423828 C223.29394531 546.43423828 223.29394531 545.77423828 223.29394531 545.09423828 C223.95394531 545.09423828 224.61394531 545.09423828 225.29394531 545.09423828 C226.74588896 543.21370886 228.10759136 541.26286979 229.41894531 539.28173828 C230.14339844 538.20279297 230.86785156 537.12384766 231.61425781 536.01220703 C233.54338793 533.22205118 233.54338793 533.22205118 233.29394531 530.09423828 C232.61928223 529.81749268 231.94461914 529.54074707 231.24951172 529.25561523 C228.13770489 527.97655349 225.02832757 526.6916823 221.91894531 525.40673828 C220.32759766 524.75415039 220.32759766 524.75415039 218.70410156 524.08837891 C195.10465792 514.31560317 172.64649828 500.76585723 158.29394531 479.09423828 C157.81159424 478.38710693 157.32924316 477.67997559 156.83227539 476.95141602 C152.43346664 470.14015615 150.14830574 463.18093772 147.98144531 455.40673828 C147.63533203 454.22273438 147.28921875 453.03873047 146.93261719 451.81884766 C141.9457545 434.46689854 140.56494827 414.58234381 149.29394531 398.09423828 C153.09017141 393.27200513 157.66450775 390.72221643 163.66870117 389.68334961 C166.31289409 389.38853817 168.9530095 389.1635315 171.60644531 388.96923828 C173.39422352 388.82101522 175.18198401 388.67257833 176.96972656 388.52392578 C177.84193848 388.4552832 178.71415039 388.38664062 179.61279297 388.31591797 C183.84557401 387.96594846 188.06952761 387.53256218 192.29394531 387.09423828 C194.66154895 382.13805467 195.32390289 376.89727318 196.23144531 371.53173828 C199.77358551 351.40032783 199.77358551 351.40032783 202.6730957 345.09521484 C204.70188922 340.39300261 205.83621052 335.50955973 207.03613281 330.54345703 C207.28638214 329.53064163 207.53663147 328.51782623 207.79446411 327.47431946 C208.59159002 324.24481397 209.38077267 321.0134394 210.16894531 317.78173828 C211.20448158 313.55560471 212.24368878 309.3303919 213.28613281 305.10595703 C213.54127151 304.0711319 213.79641022 303.03630676 214.0592804 301.97012329 C215.75996414 295.11903922 217.58377184 288.31333909 219.5058136 281.52146912 C221.81110648 273.342826 223.83068355 265.09570574 225.85644531 256.84423828 C228.21215339 247.25045178 230.64874479 237.71298449 233.4074707 228.22607422 C234.66119689 223.79677113 235.70878808 219.33143489 236.73144531 214.84423828 C238.20304499 208.5302193 239.75638862 202.26355951 241.54394531 196.03173828 C246.9779321 176.9691964 251.68137232 157.62936005 255.98144531 138.28173828 C259.15670988 124.00055264 262.39269967 109.5441277 267.43457031 95.78955078 C268.41560726 92.71266219 269.07931559 89.62237708 269.75830078 86.46728516 C270.60890893 82.6988662 271.6728319 78.99603575 272.73144531 75.28173828 C273.17246716 73.70647408 273.61256969 72.13095221 274.05175781 70.55517578 C274.36935059 69.41580566 274.36935059 69.41580566 274.69335938 68.25341797 C278.96549713 55.00860335 278.96549713 55.00860335 275.79394531 42.09423828 C268.54106141 31.03108358 255.87377519 23.5027479 242.98144531 20.59423828 C228.92313468 18.62278904 215.41895518 20.46132544 203.29394531 28.09423828 C199.98882216 30.96841412 198.5287991 33.3739015 197.14550781 37.51220703 C196.59636719 39.15092773 196.59636719 39.15092773 196.03613281 40.82275391 C195.66746094 41.96421875 195.29878906 43.10568359 194.91894531 44.28173828 C194.55800781 45.34199219 194.19707031 46.40224609 193.82519531 47.49462891 C191.10612622 55.75166214 189.02662165 64.10987144 187.03645325 72.56867981 C184.31272463 84.12069038 181.44140583 95.63451243 178.56347656 107.14892578 C178.30427681 108.18643541 178.04507706 109.22394505 177.77802277 110.29289436 C176.43714608 115.65939688 175.09513516 121.0256145 173.75219727 126.39160156 C172.37219929 131.90584731 170.99434758 137.4206268 169.61710072 142.93556023 C168.5447012 147.22878238 167.47117507 151.52172221 166.39731407 155.81457901 C165.88867459 157.84847534 165.38037747 159.88245733 164.87244606 161.91653061 C160.08039145 181.10207378 160.08039145 181.10207378 157.86230469 188.98872375 C157.07071019 191.92122347 156.43878106 194.88197151 155.79931641 197.85058594 C154.85887938 202.02576286 153.71252289 206.14801704 152.60644531 210.28173828 C150.15459738 219.55854613 147.89790032 228.87185685 145.73144531 238.21923828 C145.4355249 239.49516846 145.13960449 240.77109863 144.8347168 242.08569336 C143.74488518 246.79520415 142.65788116 251.50534156 141.57861328 256.21728516 C139.46940205 265.41152159 137.2932941 274.49329586 134.37060547 283.47045898 C132.21996851 290.1420059 130.3881192 296.89506642 128.54394531 303.65673828 C125.58838201 314.47434206 122.54772372 325.26299773 119.41894531 336.03173828 C119.22594849 336.6976297 119.03295166 337.36352112 118.83410645 338.04959106 C117.07953735 344.09906219 115.31611168 350.12789629 113.29394531 356.09423828 C110.65394531 355.43423828 108.01394531 354.77423828 105.29394531 354.09423828 C105.14590454 352.93287354 105.14590454 352.93287354 104.99487305 351.74804688 C103.5460839 340.98050284 101.47522033 330.37123974 99.35644531 319.71923828 C98.96097421 317.71646304 98.56588348 315.71361265 98.17114258 313.71069336 C97.326105 309.42527585 96.4791574 305.14024201 95.63085938 300.85546875 C93.55418298 290.36078854 91.49569665 279.86253022 89.43493652 269.36471558 C88.72978123 265.7732629 88.02414191 262.18190563 87.31835938 258.59057617 C83.60928515 239.71548261 79.91983837 220.83661427 76.24121094 201.95556641 C74.61432736 193.60568954 72.98540109 185.25621109 71.35644531 176.90673828 C71.19311707 176.06947205 71.02978882 175.23220581 70.86151123 174.36956787 C68.34862105 161.48833752 65.82960727 148.60831224 63.30828857 135.72872925 C61.63576678 127.18410899 59.96454155 118.6392352 58.29394531 110.09423828 C58.05417969 108.86800751 58.05417969 108.86800751 57.80957031 107.61700439 C56.78179044 102.35975382 55.75595102 97.10212781 54.73144531 91.84423828 C54.59379761 91.13864777 54.4561499 90.43305725 54.31433105 89.70608521 C52.56307268 80.72401103 50.84514638 71.73613847 49.15332031 62.74267578 C48.78820647 60.806796 48.42305365 58.87092357 48.05786133 56.93505859 C47.35306765 53.19830059 46.65386162 49.46055438 45.95776367 45.72216797 C45.63642844 44.01542496 45.31490467 42.30871742 44.99316406 40.60205078 C44.8507428 39.82872406 44.70832153 39.05539734 44.56158447 38.25863647 C42.85851139 29.28381249 40.76852578 24.53563884 33.29394531 19.09423828 C23.7176418 12.78942066 16.78306096 10.91517862 5.48144531 10.90673828 C4.63001953 10.89449219 3.77859375 10.88224609 2.90136719 10.86962891 C-6.29042402 10.8486271 -13.68566235 12.65496762 -21.70605469 17.09423828 Z " fill="#960404" transform="translate(940.7060546875,495.90576171875)"/>
<path d="M0 0 C3.81589494 3.89884918 5.65666981 8.51283708 7.890625 13.4453125 C8.93864682 15.69920181 9.98956175 17.95174754 11.04296875 20.203125 C11.59968262 21.39583008 12.15639648 22.58853516 12.72998047 23.81738281 C14.57375162 27.72405817 16.50579056 31.58359845 18.45703125 35.4375 C18.78944824 36.09495209 19.12186523 36.75240417 19.46435547 37.42977905 C20.77577886 40.02000752 22.08890895 42.6092814 23.41253662 45.19329834 C27.16838355 52.53084126 30.56287718 59.87735361 33.37719727 67.63549805 C34.93542674 71.65254212 36.87687189 75.42607721 38.890625 79.23046875 C40.31279105 82.15343022 41.57066511 85.07674193 42.8046875 88.08203125 C45.62638863 94.92787496 48.74279949 101.61954602 51.890625 108.3203125 C56.57759095 118.34325224 61.16728566 128.39519843 65.515625 138.5703125 C66.02351562 139.74851562 66.53140625 140.92671875 67.0546875 142.140625 C68.32622668 145.12568222 69.55036501 148.12461612 70.765625 151.1328125 C72.6662084 155.71825618 74.76661643 160.1456326 77.015625 164.5703125 C87.70549248 185.76332488 87.70549248 185.76332488 86.515625 193.5703125 C82.07350862 204.18203496 74.54608602 208.93355905 64.390625 213.3203125 C48.3915961 219.61070187 48.3915961 219.61070187 39.89453125 216.66015625 C29.25743973 211.74465036 26.00699709 203.94354419 21.390625 193.6328125 C20.5327277 191.74518533 19.67140043 189.85914755 18.80990601 187.97315979 C18.22749836 186.69762654 17.64614099 185.42161321 17.06582642 184.14512634 C13.93512754 177.2656661 10.66349593 170.4554463 7.38232422 163.64672852 C2.7573316 154.03344251 -1.73056169 144.3566094 -6.21664429 134.67796326 C-7.41956774 132.08340305 -8.62418879 129.48963297 -9.82910156 126.89599609 C-10.44072277 125.57807446 -11.05137546 124.25970298 -11.66113281 122.94091797 C-12.56316276 120.9906473 -13.46873878 119.04205737 -14.375 117.09375 C-15.16438965 115.390979 -15.16438965 115.390979 -15.96972656 113.65380859 C-17.41558839 110.60029146 -17.41558839 110.60029146 -19.0715332 107.93115234 C-20.38897912 105.72971775 -21.30987061 103.67246012 -22.19921875 101.2734375 C-25.11734349 93.79220061 -28.6149565 86.57528543 -32.046875 79.3203125 C-32.39898041 78.57307922 -32.75108582 77.82584595 -33.11386108 77.05596924 C-37.96961545 66.75189575 -42.91097701 56.50078753 -48.12133789 46.37011719 C-55.92265705 31.09363397 -55.92265705 31.09363397 -54.484375 23.5703125 C-50.74063618 13.03238102 -43.70991262 3.99123243 -33.8515625 -1.3125 C-23.23972954 -6.3207248 -10.25096753 -5.89914169 0 0 Z " fill="#BB7D7E" transform="translate(804.484375,821.4296875)"/>
<path d="M0 0 C7.88925738 4.38137299 12.64753803 14.77898608 16.85058594 22.43041992 C17.3675 23.34823242 17.88441406 24.26604492 18.41699219 25.21166992 C22.25207407 32.09031802 25.78443197 39.10314391 29.28417969 46.15551758 C32.65724793 52.94726299 36.128848 59.68872808 39.60058594 66.43041992 C39.96709259 67.14264709 40.33359924 67.85487427 40.71121216 68.58868408 C46.20957401 79.26406626 51.85163708 89.84848011 57.64355469 100.36791992 C61.6017047 107.56198149 65.43000001 114.82303589 69.20996094 122.11206055 C69.95537229 123.54544574 70.70519199 124.97654933 71.45996094 126.4050293 C80.66675591 143.83455963 88.41279265 160.7393355 82.91308594 180.74291992 C80.05479577 188.18062121 74.18667536 195.13644115 67.35058594 199.30541992 C59.47053545 200.83633335 53.13480958 198.85690549 46.13964844 195.30151367 C38.95106477 190.15674301 35.18729713 182.87688835 31.06082153 175.21316528 C29.41792099 172.16300413 27.74725379 169.12805188 26.08105469 166.09057617 C25.75427231 165.49303024 25.42748993 164.89548431 25.09080505 164.27983093 C22.61396534 159.7580565 20.05548115 155.29450138 17.41308594 150.86791992 C13.05135909 143.54446965 8.81919848 136.14939994 4.60058594 128.74291992 C-1.08446242 118.76486839 -6.82704454 108.82318459 -12.62963867 98.9128418 C-16.95881766 91.51160244 -21.21708464 84.07196947 -25.45410156 76.61767578 C-28.36513823 71.51012071 -31.34491507 66.45327049 -34.39941406 61.43041992 C-37.41420913 56.45172838 -40.31213691 51.42212931 -43.08691406 46.30541992 C-43.41723633 45.70616699 -43.74755859 45.10691406 -44.08789062 44.48950195 C-47.75953896 37.61333122 -50.20856923 30.10119576 -48.64941406 22.30541992 C-43.87826791 13.62935877 -36.29633806 8.28966083 -27.58691406 4.11791992 C-26.89275391 3.77567383 -26.19859375 3.43342773 -25.48339844 3.08081055 C-16.83548529 -1.14870063 -9.42199575 -3.59264422 0 0 Z " fill="#BB7D7E" transform="translate(857.6494140625,764.694580078125)"/>
<path d="M0 0 C1.31359826 3.77067591 0.7731334 6.89514488 0.22265625 10.8046875 C0.0345057 12.24498418 -0.15123625 13.68559692 -0.33496094 15.12646484 C-0.48330383 16.28284454 -0.48330383 16.28284454 -0.63464355 17.46258545 C-3.91254082 43.57280098 -3.39401037 69.73398245 -3 96 C-3.33 96 -3.66 96 -4 96 C-5.82596102 86.97315472 -6.39691492 78.19506569 -6.375 69 C-6.37578552 68.29387573 -6.37657104 67.58775146 -6.37738037 66.86022949 C-6.35969477 53.26640237 -5.3596009 39.78173968 -4.125 26.25 C-4.03804871 25.28239746 -3.95109741 24.31479492 -3.86151123 23.31787109 C-3.60827785 20.54932751 -3.34245432 17.78236842 -3.0703125 15.015625 C-2.99310974 14.19201477 -2.91590698 13.36840454 -2.83636475 12.51983643 C-2.37825624 8.09407173 -1.60436403 4.18931268 0 0 Z " fill="#A02121" transform="translate(772,955)"/>
<path d="M0 0 C0.33 0 0.66 0 1 0 C2.30101718 6.29092241 3.58020806 12.58601606 4.84521484 18.88427734 C5.27687366 21.02068267 5.71328857 23.15613333 6.15478516 25.29052734 C8.57586027 37.01160527 10.70760123 47.99448731 10 60 C9.92459417 62.49732192 9.8517546 64.99472241 9.78125 67.4921875 C9.69010055 69.95322269 9.59635023 72.41416293 9.5 74.875 C9.42845703 76.78345703 9.42845703 76.78345703 9.35546875 78.73046875 C9.23930559 81.82040867 9.1207892 84.91023806 9 88 C8.67 88 8.34 88 8 88 C8.0314209 86.50726562 8.0314209 86.50726562 8.06347656 84.984375 C8.84257956 55.74221854 8.84257956 55.74221854 4 27 C3.67 26.67 3.34 26.34 3 26 C2.62624205 24.06989058 2.30070427 22.13033152 2 20.1875 C1.37273987 16.03251575 1.37273987 16.03251575 0.44140625 11.94140625 C-0.1126788 9.50441269 -0.0953425 7.24603011 -0.0625 4.75 C-0.05347656 3.85796875 -0.04445313 2.9659375 -0.03515625 2.046875 C-0.02355469 1.37140625 -0.01195312 0.6959375 0 0 Z " fill="#A03838" transform="translate(943,829)"/>
<path d="M0 0 C0.33 0 0.66 0 1 0 C1.37270651 21.14074129 1.37270651 21.14074129 -1 31 C-1.45884457 33.22906149 -1.9171378 35.45823652 -2.375 37.6875 C-4.06685957 45.50475883 -6.01781595 53.25237708 -8 61 C-8.33 61 -8.66 61 -9 61 C-9.33704598 53.82678222 -8.1785441 48.03542394 -6.125 41.1875 C-2.19026894 27.35937167 -0.60470687 14.32200475 0 0 Z " fill="#9D3838" transform="translate(1229,534)"/>
<path d="M0 0 C4.3949379 3.95634926 6.82419377 9.40623095 9.6875 14.5 C10.59725586 16.08748047 10.59725586 16.08748047 11.52539062 17.70703125 C12.09837891 18.72152344 12.67136719 19.73601563 13.26171875 20.78125 C13.78725342 21.71001953 14.31278809 22.63878906 14.85424805 23.59570312 C16 26 16 26 16 29 C15.01 29 14.02 29 13 29 C11.5986938 26.19738759 10.19808478 23.39445537 8.80078125 20.58984375 C7.56444012 18.11510434 6.3093981 15.65087603 5.04296875 13.19140625 C4.72336182 12.56572754 4.40375488 11.94004883 4.07446289 11.29541016 C3.16012638 9.50623535 2.24032693 7.71985554 1.3203125 5.93359375 C0 3 0 3 0 0 Z " fill="#A25555" transform="translate(863,918)"/>
<path d="M0 0 C0 3 0 3 -1.36108398 4.68579102 C-1.98313721 5.28576904 -2.60519043 5.88574707 -3.24609375 6.50390625 C-3.91833984 7.16197266 -4.59058594 7.82003906 -5.28320312 8.49804688 C-5.99412109 9.17931641 -6.70503906 9.86058594 -7.4375 10.5625 C-8.8341114 11.91582536 -10.22874302 13.27119774 -11.62109375 14.62890625 C-12.55586548 15.5271814 -12.55586548 15.5271814 -13.50952148 16.44360352 C-15.09713961 17.9479174 -15.09713961 17.9479174 -16 20 C-16.66 19.67 -17.32 19.34 -18 19 C-15.83420496 15.04353129 -13.33636702 12.09518155 -10.125 8.9375 C-9.28195312 8.10089844 -8.43890625 7.26429687 -7.5703125 6.40234375 C-5.13679589 4.12785634 -2.6305101 2.04123812 0 0 Z " fill="#A32726" transform="translate(1217,1190)"/>
<path d="M0 0 C1.720606 5.2510346 0.52807679 10.60188168 0 16 C-3.96 16 -7.92 16 -12 16 C-12 15.34 -12 14.68 -12 14 C-8.7 14 -5.4 14 -2 14 C-1.93941406 13.07316406 -1.87882813 12.14632812 -1.81640625 11.19140625 C-1.73261719 9.99386719 -1.64882813 8.79632812 -1.5625 7.5625 C-1.48128906 6.36753906 -1.40007813 5.17257812 -1.31640625 3.94140625 C-1 1 -1 1 0 0 Z " fill="#A45859" transform="translate(796,790)"/>
<path d="M0 0 C0.66 0.33 1.32 0.66 2 1 C-3.61 6.61 -9.22 12.22 -15 18 C-15 13.07254925 -11.31913617 10.39978807 -8 7 C-5.39491779 4.58973264 -2.72918126 2.2684104 0 0 Z " fill="#AD6868" transform="translate(1118,1085)"/>
<path d="M0 0 C0.66 0.33 1.32 0.66 2 1 C-3.05352742 6.96348734 -8.41711741 12.53105379 -14 18 C-14 15 -14 15 -12.0625 12.9375 C-11.61648438 12.51984375 -11.17046875 12.1021875 -10.7109375 11.671875 C-6.93547504 7.98261032 -3.51090286 3.93924831 0 0 Z " fill="#AE5E5E" transform="translate(913,516)"/>
<path d="M0 0 C0.33 0 0.66 0 1 0 C1.21221057 5.8888434 0.55320433 10.83290313 -1 16.5 C-1.28617188 17.59054687 -1.28617188 17.59054687 -1.578125 18.703125 C-2.04337245 20.47106531 -2.52043593 22.23588933 -3 24 C-3.33 24 -3.66 24 -4 24 C-4.59932904 15.45956114 -2.39248893 8.1066924 0 0 Z " fill="#912929" transform="translate(1224,571)"/>
<path d="M0 0 C0.66 0.33 1.32 0.66 2 1 C-1.96 4.96 -5.92 8.92 -10 13 C-10.66 12.67 -11.32 12.34 -12 12 C-10.56665422 10.37133456 -9.12817021 8.74719006 -7.6875 7.125 C-6.88699219 6.22007812 -6.08648438 5.31515625 -5.26171875 4.3828125 C-3 2 -3 2 0 0 Z " fill="#991515" transform="translate(907,506)"/>
<path d="M0 0 C0.99 0.33 1.98 0.66 3 1 C0.3821703 3.77181969 -2.04830544 6.03158432 -5.25 8.125 C-8.26003892 9.77064122 -8.26003892 9.77064122 -9 13 C-9.66 13 -10.32 13 -11 13 C-9.63422544 8.71506993 -7.79318655 6.56854295 -4.375 3.6875 C-3.55773438 2.99011719 -2.74046875 2.29273438 -1.8984375 1.57421875 C-0.95871094 0.79498047 -0.95871094 0.79498047 0 0 Z " fill="#A23232" transform="translate(1105,1079)"/>
<path d="M0 0 C0.66 0 1.32 0 2 0 C0.55922954 3.36179774 -1.24750021 5.59156268 -4 8 C-4.66 8 -5.32 8 -6 8 C-6 8.66 -6 9.32 -6 10 C-6.66 9.67 -7.32 9.34 -8 9 C-6.85459775 7.68712379 -5.70866567 6.37470979 -4.5625 5.0625 C-3.92441406 4.33160156 -3.28632812 3.60070312 -2.62890625 2.84765625 C-1.77458541 1.87860647 -0.91348825 0.91348825 0 0 Z " fill="#942020" transform="translate(757,815)"/>
<path d="M0 0 C0.33 0 0.66 0 1 0 C2.39737627 3.75544871 3.55917108 6.97396822 3 11 C2.01 11.66 1.02 12.32 0 13 C0 8.71 0 4.42 0 0 Z " fill="#A22F2E" transform="translate(1094,1123)"/>
<path d="M0 0 C1.875 0.625 1.875 0.625 4 2 C5.25 5.125 5.25 5.125 6 8 C4.68 8 3.36 8 2 8 C0.23537317 4.91190305 0 3.76687864 0 0 Z " fill="#B16E6E" transform="translate(877,945)"/>
<path d="M0 0 C-1.44077046 3.36179774 -3.24750021 5.59156268 -6 8 C-6.66 8 -7.32 8 -8 8 C-6.65580512 3.85539913 -4.87800266 0 0 0 Z " fill="#9A1D1D" transform="translate(1097,888)"/>
<path d="M0 0 C0.66 0.33 1.32 0.66 2 1 C-0.97 3.97 -3.94 6.94 -7 10 C-7.66 9.67 -8.32 9.34 -9 9 C-8.06725891 7.87105124 -7.12859878 6.74699124 -6.1875 5.625 C-5.66542969 4.99851562 -5.14335938 4.37203125 -4.60546875 3.7265625 C-3 2 -3 2 0 0 Z " fill="#AC6566" transform="translate(766,823)"/>
<path d="M0 0 C0 3 0 3 -1.53125 4.82421875 C-2.1809375 5.43910156 -2.830625 6.05398438 -3.5 6.6875 C-4.1496875 7.31011719 -4.799375 7.93273438 -5.46875 8.57421875 C-5.9740625 9.04472656 -6.479375 9.51523438 -7 10 C-7.33 9.01 -7.66 8.02 -8 7 C-7.236875 6.401875 -6.47375 5.80375 -5.6875 5.1875 C-3.6516425 3.53040668 -1.8021721 1.89702326 0 0 Z " fill="#A53333" transform="translate(1217,1190)"/>
<path d="M0 0 C0.66 0 1.32 0 2 0 C3.75 2.25 3.75 2.25 5 5 C4.34 6.32 3.68 7.64 3 9 C2.01 6.03 1.02 3.06 0 0 Z " fill="#A35758" transform="translate(869,930)"/>
<path d="M0 0 C0.66 0.33 1.32 0.66 2 1 C-1.465 3.97 -1.465 3.97 -5 7 C-4 3 -4 3 -3 1 C-2.01 0.67 -1.02 0.34 0 0 Z " fill="#AB6364" transform="translate(1104,897)"/>
<path d="M0 0 C0.33 0 0.66 0 1 0 C1.33 3.63 1.66 7.26 2 11 C1.34 11 0.68 11 0 11 C-1.35015859 6.94952424 -0.62084998 4.2079832 0 0 Z " fill="#AB5B5C" transform="translate(944,885)"/>
</svg>
